<svg xmlns="http://www.w3.org/2000/svg" xmlns:svg="http://www.w3.org/2000/svg" id="svg4" width="16" height="16" version="1.1" viewBox="0 0 24 24"><metadata id="metadata10"/><path id="path2" fill-rule="evenodd" d="M 3.232,2.175 A 0.75029927,0.75029927 0 1 0 2.268,3.325 L 4.947,5.569 5,21.253 a 0.75,0.75 0 0 0 1.219,0.583 L 12,17.21 17.782,21.835 A 0.75,0.75 0 0 0 19,21.25 v -3.907 l 1.768,1.482 a 0.75029927,0.75029927 0 1 0 0.964,-1.15 z M 7.422,2 A 0.75,0.75 0 0 0 6.94,3.325 l 10.828,9.073 A 0.75,0.75 0 0 0 19,11.823 V 3.75 A 1.75,1.75 0 0 0 17.25,2 H 7.421 Z"/></svg>