<?xml version="1.0" encoding="UTF-8" standalone="no"?>
<svg
   xmlns:dc="http://purl.org/dc/elements/1.1/"
   xmlns:cc="http://creativecommons.org/ns#"
   xmlns:rdf="http://www.w3.org/1999/02/22-rdf-syntax-ns#"
   xmlns:svg="http://www.w3.org/2000/svg"
   xmlns="http://www.w3.org/2000/svg"
   xmlns:sodipodi="http://sodipodi.sourceforge.net/DTD/sodipodi-0.dtd"
   xmlns:inkscape="http://www.inkscape.org/namespaces/inkscape"
   inkscape:version="1.0 (4035a4fb49, 2020-05-01)"
   sodipodi:docname="commit.svg"
   id="svg6"
   version="1.1"
   viewBox="0 0 24 24"
   height="16"
   width="16">
  <metadata
     id="metadata12">
    <rdf:RDF>
      <cc:Work
         rdf:about="">
        <dc:format>image/svg+xml</dc:format>
        <dc:type
           rdf:resource="http://purl.org/dc/dcmitype/StillImage" />
        <dc:title></dc:title>
      </cc:Work>
    </rdf:RDF>
  </metadata>
  <defs
     id="defs10" />
  <sodipodi:namedview
     inkscape:current-layer="svg6"
     inkscape:window-maximized="0"
     inkscape:window-y="0"
     inkscape:window-x="0"
     inkscape:cy="12"
     inkscape:cx="12"
     inkscape:zoom="34.583333"
     showgrid="false"
     id="namedview8"
     inkscape:window-height="480"
     inkscape:window-width="755"
     inkscape:pageshadow="2"
     inkscape:pageopacity="0"
     guidetolerance="10"
     gridtolerance="10"
     objecttolerance="10"
     borderopacity="1"
     bordercolor="#666666"
     pagecolor="#ffffff" />
  <path
     id="path2"
     d="M 17.5,11.75 A 0.75,0.75 0 0 1 18.25,11 h 5 a 0.75,0.75 0 0 1 0,1.5 h -5 A 0.75,0.75 0 0 1 17.5,11.75 Z M 0,11.75 A 0.75,0.75 0 0 1 0.75,11 h 5 a 0.75,0.75 0 0 1 0,1.5 h -5 A 0.75,0.75 0 0 1 0,11.75 Z"
     fill-rule="evenodd" />
  <path
     id="path4"
     d="m 12,16.25 a 4.5,4.5 0 1 0 0,-9 4.5,4.5 0 0 0 0,9 z m 0,1.5 a 6,6 0 1 0 0,-12 6,6 0 0 0 0,12 z"
     fill-rule="evenodd" />
</svg>
