<svg xmlns="http://www.w3.org/2000/svg" xmlns:svg="http://www.w3.org/2000/svg" id="svg6" width="16" height="16" version="1.1" viewBox="0 0 24 24"><metadata id="metadata12"/><path id="path2" fill-rule="evenodd" d="M 17.5,11.75 A 0.75,0.75 0 0 1 18.25,11 h 5 a 0.75,0.75 0 0 1 0,1.5 h -5 A 0.75,0.75 0 0 1 17.5,11.75 Z M 0,11.75 A 0.75,0.75 0 0 1 0.75,11 h 5 a 0.75,0.75 0 0 1 0,1.5 h -5 A 0.75,0.75 0 0 1 0,11.75 Z"/><path id="path4" fill-rule="evenodd" d="m 12,16.25 a 4.5,4.5 0 1 0 0,-9 4.5,4.5 0 0 0 0,9 z m 0,1.5 a 6,6 0 1 0 0,-12 6,6 0 0 0 0,12 z"/></svg>