<?xml version="1.0" encoding="UTF-8" standalone="no"?>
<svg
   xmlns:dc="http://purl.org/dc/elements/1.1/"
   xmlns:cc="http://creativecommons.org/ns#"
   xmlns:rdf="http://www.w3.org/1999/02/22-rdf-syntax-ns#"
   xmlns:svg="http://www.w3.org/2000/svg"
   xmlns="http://www.w3.org/2000/svg"
   xmlns:sodipodi="http://sodipodi.sourceforge.net/DTD/sodipodi-0.dtd"
   xmlns:inkscape="http://www.inkscape.org/namespaces/inkscape"
   inkscape:version="1.0 (4035a4fb49, 2020-05-01)"
   sodipodi:docname="copy.svg"
   id="svg4"
   version="1.1"
   viewBox="0 0 24 24"
   height="16"
   width="16">
  <metadata
     id="metadata10">
    <rdf:RDF>
      <cc:Work
         rdf:about="">
        <dc:format>image/svg+xml</dc:format>
        <dc:type
           rdf:resource="http://purl.org/dc/dcmitype/StillImage" />
        <dc:title></dc:title>
      </cc:Work>
    </rdf:RDF>
  </metadata>
  <defs
     id="defs8" />
  <sodipodi:namedview
     inkscape:current-layer="svg4"
     inkscape:window-maximized="0"
     inkscape:window-y="0"
     inkscape:window-x="0"
     inkscape:cy="12"
     inkscape:cx="12"
     inkscape:zoom="34.583333"
     showgrid="false"
     id="namedview6"
     inkscape:window-height="480"
     inkscape:window-width="755"
     inkscape:pageshadow="2"
     inkscape:pageopacity="0"
     guidetolerance="10"
     gridtolerance="10"
     objecttolerance="10"
     borderopacity="1"
     bordercolor="#666666"
     pagecolor="#ffffff" />
  <path
     id="path2"
     d="M 4.75,3 A 1.75,1.75 0 0 0 3,4.75 v 9.5 C 3,15.216 3.784,16 4.75,16 h 1.5 a 0.75,0.75 0 0 0 0,-1.5 H 4.75 A 0.25,0.25 0 0 1 4.5,14.25 V 4.75 A 0.25,0.25 0 0 1 4.75,4.5 h 9.5 a 0.25,0.25 0 0 1 0.25,0.25 v 1.5 a 0.75,0.75 0 0 0 1.5,0 V 4.75 A 1.75,1.75 0 0 0 14.25,3 Z m 5,5 A 1.75,1.75 0 0 0 8,9.75 v 9.5 C 8,20.216 8.784,21 9.75,21 h 9.5 A 1.75,1.75 0 0 0 21,19.25 V 9.75 A 1.75,1.75 0 0 0 19.25,8 Z M 9.5,9.75 A 0.25,0.25 0 0 1 9.75,9.5 h 9.5 a 0.25,0.25 0 0 1 0.25,0.25 v 9.5 A 0.25,0.25 0 0 1 19.25,19.5 H 9.75 A 0.25,0.25 0 0 1 9.5,19.25 Z"
     fill-rule="evenodd" />
</svg>
