<svg xmlns="http://www.w3.org/2000/svg" xmlns:svg="http://www.w3.org/2000/svg" id="svg4" width="16" height="16" version="1.1" viewBox="0 0 24 24"><metadata id="metadata10"/><path id="path2" fill-rule="evenodd" d="M 4.75,3 A 1.75,1.75 0 0 0 3,4.75 v 9.5 C 3,15.216 3.784,16 4.75,16 h 1.5 a 0.75,0.75 0 0 0 0,-1.5 H 4.75 A 0.25,0.25 0 0 1 4.5,14.25 V 4.75 A 0.25,0.25 0 0 1 4.75,4.5 h 9.5 a 0.25,0.25 0 0 1 0.25,0.25 v 1.5 a 0.75,0.75 0 0 0 1.5,0 V 4.75 A 1.75,1.75 0 0 0 14.25,3 Z m 5,5 A 1.75,1.75 0 0 0 8,9.75 v 9.5 C 8,20.216 8.784,21 9.75,21 h 9.5 A 1.75,1.75 0 0 0 21,19.25 V 9.75 A 1.75,1.75 0 0 0 19.25,8 Z M 9.5,9.75 A 0.25,0.25 0 0 1 9.75,9.5 h 9.5 a 0.25,0.25 0 0 1 0.25,0.25 v 9.5 A 0.25,0.25 0 0 1 19.25,19.5 H 9.75 A 0.25,0.25 0 0 1 9.5,19.25 Z"/></svg>