<?xml version="1.0" encoding="UTF-8" standalone="no"?>
<svg
   xmlns:dc="http://purl.org/dc/elements/1.1/"
   xmlns:cc="http://creativecommons.org/ns#"
   xmlns:rdf="http://www.w3.org/1999/02/22-rdf-syntax-ns#"
   xmlns:svg="http://www.w3.org/2000/svg"
   xmlns="http://www.w3.org/2000/svg"
   xmlns:sodipodi="http://sodipodi.sourceforge.net/DTD/sodipodi-0.dtd"
   xmlns:inkscape="http://www.inkscape.org/namespaces/inkscape"
   inkscape:version="1.0 (4035a4fb49, 2020-05-01)"
   sodipodi:docname="eye-slash.svg"
   id="svg6"
   version="1.1"
   viewBox="0 0 24 24"
   height="16"
   width="16">
  <metadata
     id="metadata12">
    <rdf:RDF>
      <cc:Work
         rdf:about="">
        <dc:format>image/svg+xml</dc:format>
        <dc:type
           rdf:resource="http://purl.org/dc/dcmitype/StillImage" />
        <dc:title></dc:title>
      </cc:Work>
    </rdf:RDF>
  </metadata>
  <defs
     id="defs10" />
  <sodipodi:namedview
     inkscape:current-layer="svg6"
     inkscape:window-maximized="0"
     inkscape:window-y="0"
     inkscape:window-x="0"
     inkscape:cy="12"
     inkscape:cx="12"
     inkscape:zoom="34.583333"
     showgrid="false"
     id="namedview8"
     inkscape:window-height="480"
     inkscape:window-width="755"
     inkscape:pageshadow="2"
     inkscape:pageopacity="0"
     guidetolerance="10"
     gridtolerance="10"
     objecttolerance="10"
     borderopacity="1"
     bordercolor="#666666"
     pagecolor="#ffffff" />
  <path
     id="path2"
     d="M 8.052,5.837 A 9.715,9.715 0 0 1 12,5 c 2.955,0 5.309,1.315 7.06,2.864 1.756,1.553 2.866,3.307 3.307,4.08 a 0.11,0.11 0 0 1 0.016,0.055 0.122,0.122 0 0 1 -0.017,0.06 16.766,16.766 0 0 1 -1.53,2.218 0.75,0.75 0 1 0 1.163,0.946 18.253,18.253 0 0 0 1.67,-2.42 1.607,1.607 0 0 0 0.001,-1.602 C 23.185,10.351 21.98,8.444 20.054,6.741 18.124,5.034 15.432,3.5 12,3.5 10.305,3.5 8.785,3.874 7.448,4.463 a 0.75,0.75 0 0 0 0.604,1.373 z" />
  <path
     id="path4"
     d="M 19.166,17.987 C 17.328,19.38 14.933,20.5 12,20.5 8.568,20.5 5.875,18.966 3.946,17.26 2.02,15.556 0.814,13.648 0.33,12.798 A 1.606,1.606 0 0 1 0.331,11.198 18.305,18.305 0 0 1 3.648,7.01 L 1.317,5.362 A 0.75,0.75 0 1 1 2.183,4.138 l 20.5,14.5 a 0.75,0.75 0 1 1 -0.866,1.224 z M 4.902,7.898 c -1.73,1.541 -2.828,3.273 -3.268,4.044 a 0.118,0.118 0 0 0 -0.017,0.059 c 0,0.015 0.003,0.034 0.016,0.055 0.441,0.774 1.551,2.527 3.307,4.08 C 6.69,17.685 9.045,19 12,19 c 2.334,0 4.29,-0.82 5.874,-1.927 L 14.358,14.586 A 3.5,3.5 0 0 1 8.775,10.637 L 4.902,7.899 Z"
     fill-rule="evenodd" />
</svg>
