<?xml version="1.0" encoding="UTF-8" standalone="no"?>
<svg
   xmlns:dc="http://purl.org/dc/elements/1.1/"
   xmlns:cc="http://creativecommons.org/ns#"
   xmlns:rdf="http://www.w3.org/1999/02/22-rdf-syntax-ns#"
   xmlns:svg="http://www.w3.org/2000/svg"
   xmlns="http://www.w3.org/2000/svg"
   xmlns:sodipodi="http://sodipodi.sourceforge.net/DTD/sodipodi-0.dtd"
   xmlns:inkscape="http://www.inkscape.org/namespaces/inkscape"
   inkscape:version="1.0 (4035a4fb49, 2020-05-01)"
   sodipodi:docname="file-symlink.svg"
   id="svg4"
   version="1.1"
   viewBox="0 0 24 24"
   height="16"
   width="16">
  <metadata
     id="metadata10">
    <rdf:RDF>
      <cc:Work
         rdf:about="">
        <dc:format>image/svg+xml</dc:format>
        <dc:type
           rdf:resource="http://purl.org/dc/dcmitype/StillImage" />
        <dc:title></dc:title>
      </cc:Work>
    </rdf:RDF>
  </metadata>
  <defs
     id="defs8" />
  <sodipodi:namedview
     inkscape:current-layer="svg4"
     inkscape:window-maximized="0"
     inkscape:window-y="0"
     inkscape:window-x="0"
     inkscape:cy="12"
     inkscape:cx="12"
     inkscape:zoom="34.583333"
     showgrid="false"
     id="namedview6"
     inkscape:window-height="480"
     inkscape:window-width="755"
     inkscape:pageshadow="2"
     inkscape:pageopacity="0"
     guidetolerance="10"
     gridtolerance="10"
     objecttolerance="10"
     borderopacity="1"
     bordercolor="#666666"
     pagecolor="#ffffff" />
  <path
     id="path2"
     d="M 3,3 A 2,2 0 0 1 5,1 h 9.982 a 2,2 0 0 1 1.414,0.586 l 4.018,4.018 A 2,2 0 0 1 21,7.018 V 21 a 2,2 0 0 1 -2,2 H 4.75 a 0.75,0.75 0 0 1 0,-1.5 H 19 A 0.5,0.5 0 0 0 19.5,21 V 8.5 h -4 a 2,2 0 0 1 -2,-2 v -4 H 5 A 0.5,0.5 0 0 0 4.5,3 V 9.25 A 0.75,0.75 0 0 1 3,9.25 Z M 15,2.5 v 4 A 0.5,0.5 0 0 0 15.5,7 h 4 A 0.5,0.5 0 0 0 19.354,6.664 L 15.336,2.646 A 0.5,0.5 0 0 0 15,2.5 Z m -5.692,12 -2.104,-2.236 a 0.75,0.75 0 1 1 1.092,-1.028 l 3.294,3.5 a 0.75,0.75 0 0 1 0,1.028 l -3.294,3.5 A 0.75,0.75 0 1 1 7.204,18.236 L 9.308,16 H 4.09 A 2.59,2.59 0 0 0 1.5,18.59 v 3.16 a 0.75,0.75 0 0 1 -1.5,0 V 18.59 A 4.09,4.09 0 0 1 4.09,14.5 Z"
     fill-rule="evenodd" />
</svg>
