<svg xmlns="http://www.w3.org/2000/svg" xmlns:svg="http://www.w3.org/2000/svg" id="svg4" width="16" height="16" version="1.1" viewBox="0 0 24 24"><metadata id="metadata10"/><path id="path2" fill-rule="evenodd" d="M 2.25,4 A 0.25,0.25 0 0 0 2,4.25 v 15.5 C 2,19.888 2.112,20 2.25,20 H 5.428 L 14,10.977 a 1.75,1.75 0 0 1 2.506,-0.032 L 22,16.44 V 4.25 A 0.25,0.25 0 0 0 21.75,4 Z M 5.746,21.5 H 21.75 A 1.75,1.75 0 0 0 23.5,19.75 V 4.25 A 1.75,1.75 0 0 0 21.75,2.5 H 2.25 A 1.75,1.75 0 0 0 0.5,4.25 v 15.5 c 0,0.966 0.784,1.75 1.75,1.75 z M 22,19.75 V 18.56 L 15.445,12.006 A 0.25,0.25 0 0 0 15.087,12.01 L 7.497,20 H 21.75 A 0.25,0.25 0 0 0 22,19.75 Z M 9,9.25 a 1.75,1.75 0 1 1 -3.5,0 1.75,1.75 0 0 1 3.5,0 z m 1.5,0 a 3.25,3.25 0 1 1 -6.5,0 3.25,3.25 0 0 1 6.5,0 z"/></svg>