<svg xmlns="http://www.w3.org/2000/svg" xmlns:svg="http://www.w3.org/2000/svg" id="svg4" width="16" height="16" version="1.1" viewBox="0 0 24 24"><metadata id="metadata10"/><path id="path2" fill-rule="evenodd" d="m 12.185,21.5 c 4.059,0 7.065,-2.84 7.065,-6.75 0,-2.337 -1.093,-3.489 -2.678,-5.158 L 16.551,9.569 C 15.111,8.052 13.412,6.218 12.902,3.012 a 6.14,6.14 0 0 0 -1.911,1.76 c -0.787,1.144 -1.147,2.633 -0.216,4.495 0.603,1.205 0.777,2.74 -0.277,3.794 -0.657,0.657 -1.762,1.1 -2.956,0.586 C 6.79,13.323 6.189,12.692 5.704,11.857 5.137,12.563 4.75,13.597 4.75,14.75 c 0,3.847 3.288,6.75 7.435,6.75 z M 14.265,1.627 C 14.248,1.282 13.969,1.002 13.633,1.084 11.296,1.659 7.028,5.126 9.433,9.938 9.907,10.884 9.825,11.613 9.437,12 8.797,12.64 7.563,12.684 6.562,10.185 6.431,9.858 6.064,9.676 5.759,9.851 4.212,10.739 3.25,12.711 3.25,14.75 c 0,4.829 4.122,8.25 8.935,8.25 4.812,0 8.565,-3.438 8.565,-8.25 0,-2.939 -1.466,-4.482 -3.006,-6.102 -1.61,-1.694 -3.479,-3.476 -3.479,-7.021 z"/></svg>