<?xml version="1.0" encoding="UTF-8" standalone="no"?>
<svg
   xmlns:dc="http://purl.org/dc/elements/1.1/"
   xmlns:cc="http://creativecommons.org/ns#"
   xmlns:rdf="http://www.w3.org/1999/02/22-rdf-syntax-ns#"
   xmlns:svg="http://www.w3.org/2000/svg"
   xmlns="http://www.w3.org/2000/svg"
   xmlns:sodipodi="http://sodipodi.sourceforge.net/DTD/sodipodi-0.dtd"
   xmlns:inkscape="http://www.inkscape.org/namespaces/inkscape"
   inkscape:version="1.0 (4035a4fb49, 2020-05-01)"
   sodipodi:docname="git-fork.svg"
   id="svg8"
   version="1.1"
   viewBox="0 0 90.708664 90.708664"
   height="16mm"
   width="16mm">
  <metadata
     id="metadata14">
    <rdf:RDF>
      <cc:Work
         rdf:about="">
        <dc:format>image/svg+xml</dc:format>
        <dc:type
           rdf:resource="http://purl.org/dc/dcmitype/StillImage" />
        <dc:title></dc:title>
      </cc:Work>
    </rdf:RDF>
  </metadata>
  <defs
     id="defs12" />
  <sodipodi:namedview
     inkscape:current-layer="svg8"
     inkscape:window-maximized="0"
     inkscape:window-y="0"
     inkscape:window-x="0"
     inkscape:cy="12"
     inkscape:cx="12"
     inkscape:zoom="34.583333"
     width="16mm"
     units="mm"
     showgrid="false"
     id="namedview10"
     inkscape:window-height="480"
     inkscape:window-width="755"
     inkscape:pageshadow="2"
     inkscape:pageopacity="0"
     guidetolerance="10"
     gridtolerance="10"
     objecttolerance="10"
     borderopacity="1"
     bordercolor="#666666"
     pagecolor="#ffffff" />
  <path
     id="path2"
     d="m 12,21 a 1.75,1.75 0 1 1 0,-3.5 1.75,1.75 0 0 1 0,3.5 z M 8.75,19.25 a 3.25,3.25 0 1 0 6.5,0 3.25,3.25 0 0 0 -6.5,0 z M 5.75,6.5 a 1.75,1.75 0 1 1 0,-3.5 1.75,1.75 0 0 1 0,3.5 z M 2.5,4.75 a 3.25,3.25 0 1 0 6.5,0 3.25,3.25 0 0 0 -6.5,0 z M 18.25,6.5 a 1.75,1.75 0 1 1 0,-3.5 1.75,1.75 0 0 1 0,3.5 z M 15,4.75 a 3.25,3.25 0 1 0 6.5,0 3.25,3.25 0 0 0 -6.5,0 z"
     fill-rule="evenodd" />
  <path
     id="path4"
     d="m 6.5,7.75 v 1 A 2.25,2.25 0 0 0 8.75,11 h 6.5 A 2.25,2.25 0 0 0 17.5,8.75 v -1 H 19 v 1 A 3.75,3.75 0 0 1 15.25,12.5 H 8.75 A 3.75,3.75 0 0 1 5,8.75 v -1 z"
     fill-rule="evenodd" />
  <path
     id="path6"
     d="m 11.25,16.25 v -5 h 1.5 v 5 z"
     fill-rule="evenodd" />
</svg>
