<?xml version="1.0" encoding="UTF-8" standalone="no"?>
<svg
   xmlns:dc="http://purl.org/dc/elements/1.1/"
   xmlns:cc="http://creativecommons.org/ns#"
   xmlns:rdf="http://www.w3.org/1999/02/22-rdf-syntax-ns#"
   xmlns:svg="http://www.w3.org/2000/svg"
   xmlns="http://www.w3.org/2000/svg"
   xmlns:sodipodi="http://sodipodi.sourceforge.net/DTD/sodipodi-0.dtd"
   xmlns:inkscape="http://www.inkscape.org/namespaces/inkscape"
   inkscape:version="1.0 (4035a4fb49, 2020-05-01)"
   sodipodi:docname="insights.svg"
   id="svg4"
   version="1.1"
   viewBox="0 0 24 24"
   height="16"
   width="16">
  <metadata
     id="metadata10">
    <rdf:RDF>
      <cc:Work
         rdf:about="">
        <dc:format>image/svg+xml</dc:format>
        <dc:type
           rdf:resource="http://purl.org/dc/dcmitype/StillImage" />
        <dc:title></dc:title>
      </cc:Work>
    </rdf:RDF>
  </metadata>
  <defs
     id="defs8" />
  <sodipodi:namedview
     inkscape:current-layer="svg4"
     inkscape:window-maximized="0"
     inkscape:window-y="0"
     inkscape:window-x="0"
     inkscape:cy="12"
     inkscape:cx="12"
     inkscape:zoom="34.583333"
     showgrid="false"
     id="namedview6"
     inkscape:window-height="480"
     inkscape:window-width="755"
     inkscape:pageshadow="2"
     inkscape:pageopacity="0"
     guidetolerance="10"
     gridtolerance="10"
     objecttolerance="10"
     borderopacity="1"
     bordercolor="#666666"
     pagecolor="#ffffff" />
  <path
     id="path2"
     d="m 11.75,3.5 a 0.75,0.75 0 0 1 0.75,0.75 v 15.5 a 0.75,0.75 0 0 1 -1.5,0 V 4.25 A 0.75,0.75 0 0 1 11.75,3.5 Z m 6.5,3.625 A 0.75,0.75 0 0 1 19,7.875 V 19.75 a 0.75,0.75 0 0 1 -1.5,0 V 7.875 a 0.75,0.75 0 0 1 0.75,-0.75 z M 5.25,11 A 0.75,0.75 0 0 1 6,11.75 v 8 a 0.75,0.75 0 0 1 -1.5,0 v -8 A 0.75,0.75 0 0 1 5.25,11 Z"
     fill-rule="evenodd" />
</svg>
