<svg xmlns="http://www.w3.org/2000/svg" xmlns:svg="http://www.w3.org/2000/svg" id="svg4" width="16" height="16" version="1.1" viewBox="0 0 24 24"><metadata id="metadata10"/><path id="path2" fill-rule="evenodd" d="m 11.75,3.5 a 0.75,0.75 0 0 1 0.75,0.75 v 15.5 a 0.75,0.75 0 0 1 -1.5,0 V 4.25 A 0.75,0.75 0 0 1 11.75,3.5 Z m 6.5,3.625 A 0.75,0.75 0 0 1 19,7.875 V 19.75 a 0.75,0.75 0 0 1 -1.5,0 V 7.875 a 0.75,0.75 0 0 1 0.75,-0.75 z M 5.25,11 A 0.75,0.75 0 0 1 6,11.75 v 8 a 0.75,0.75 0 0 1 -1.5,0 v -8 A 0.75,0.75 0 0 1 5.25,11 Z"/></svg>