<?xml version="1.0" encoding="UTF-8" standalone="no"?>
<svg
   xmlns:dc="http://purl.org/dc/elements/1.1/"
   xmlns:cc="http://creativecommons.org/ns#"
   xmlns:rdf="http://www.w3.org/1999/02/22-rdf-syntax-ns#"
   xmlns:svg="http://www.w3.org/2000/svg"
   xmlns="http://www.w3.org/2000/svg"
   xmlns:sodipodi="http://sodipodi.sourceforge.net/DTD/sodipodi-0.dtd"
   xmlns:inkscape="http://www.inkscape.org/namespaces/inkscape"
   inkscape:version="1.0 (4035a4fb49, 2020-05-01)"
   sodipodi:docname="settings.svg"
   id="svg4"
   version="1.1"
   viewBox="0 0 24 24"
   height="16"
   width="16">
  <metadata
     id="metadata10">
    <rdf:RDF>
      <cc:Work
         rdf:about="">
        <dc:format>image/svg+xml</dc:format>
        <dc:type
           rdf:resource="http://purl.org/dc/dcmitype/StillImage" />
        <dc:title></dc:title>
      </cc:Work>
    </rdf:RDF>
  </metadata>
  <defs
     id="defs8" />
  <sodipodi:namedview
     inkscape:current-layer="svg4"
     inkscape:window-maximized="0"
     inkscape:window-y="0"
     inkscape:window-x="0"
     inkscape:cy="12"
     inkscape:cx="12"
     inkscape:zoom="34.583333"
     showgrid="false"
     id="namedview6"
     inkscape:window-height="480"
     inkscape:window-width="743"
     inkscape:pageshadow="2"
     inkscape:pageopacity="0"
     guidetolerance="10"
     gridtolerance="10"
     objecttolerance="10"
     borderopacity="1"
     bordercolor="#666666"
     pagecolor="#ffffff" />
  <path
     id="path2"
     d="m 11.31,2.525 a 9.648,9.648 0 0 1 1.38,0 c 0.055,0.004 0.135,0.05 0.162,0.16 l 0.351,1.45 c 0.153,0.628 0.626,1.08 1.173,1.278 0.205,0.074 0.405,0.157 0.6,0.249 a 1.832,1.832 0 0 0 1.733,-0.074 l 1.275,-0.776 c 0.097,-0.06 0.186,-0.036 0.228,0 0.348,0.302 0.674,0.628 0.976,0.976 0.036,0.042 0.06,0.13 0,0.228 L 18.412,7.29 a 1.832,1.832 0 0 0 -0.074,1.734 c 0.092,0.195 0.175,0.395 0.248,0.6 0.198,0.547 0.652,1.02 1.278,1.172 l 1.45,0.353 c 0.111,0.026 0.157,0.106 0.161,0.161 a 9.653,9.653 0 0 1 0,1.38 c -0.004,0.055 -0.05,0.135 -0.16,0.162 l -1.45,0.351 a 1.833,1.833 0 0 0 -1.278,1.173 6.926,6.926 0 0 1 -0.25,0.6 1.832,1.832 0 0 0 0.075,1.733 l 0.776,1.275 c 0.06,0.097 0.036,0.186 0,0.228 a 9.555,9.555 0 0 1 -0.976,0.976 c -0.042,0.036 -0.13,0.06 -0.228,0 l -1.275,-0.776 a 1.832,1.832 0 0 0 -1.733,-0.074 6.926,6.926 0 0 1 -0.6,0.248 1.833,1.833 0 0 0 -1.172,1.278 l -0.353,1.45 c -0.026,0.111 -0.106,0.157 -0.161,0.161 a 9.653,9.653 0 0 1 -1.38,0 c -0.055,-0.004 -0.135,-0.05 -0.162,-0.16 l -0.351,-1.45 a 1.833,1.833 0 0 0 -1.173,-1.278 6.928,6.928 0 0 1 -0.6,-0.25 1.832,1.832 0 0 0 -1.734,0.075 l -1.274,0.776 c -0.097,0.06 -0.186,0.036 -0.228,0 A 9.56,9.56 0 0 1 4.812,18.212 c -0.036,-0.042 -0.06,-0.13 0,-0.228 L 5.588,16.709 A 1.832,1.832 0 0 0 5.662,14.976 6.948,6.948 0 0 1 5.413,14.376 1.833,1.833 0 0 0 4.136,13.204 L 2.686,12.851 C 2.575,12.825 2.529,12.745 2.525,12.69 a 9.648,9.648 0 0 1 0,-1.38 c 0.004,-0.055 0.05,-0.135 0.16,-0.162 l 1.45,-0.351 A 1.833,1.833 0 0 0 5.413,9.624 6.95,6.95 0 0 1 5.662,9.024 1.832,1.832 0 0 0 5.588,7.29 L 4.812,6.016 C 4.752,5.919 4.776,5.83 4.812,5.788 5.114,5.44 5.44,5.114 5.788,4.812 c 0.042,-0.036 0.13,-0.06 0.228,0 L 7.29,5.588 a 1.832,1.832 0 0 0 1.734,0.074 6.95,6.95 0 0 1 0.6,-0.249 1.833,1.833 0 0 0 1.172,-1.277 l 0.353,-1.45 C 11.175,2.575 11.255,2.529 11.31,2.525 Z M 12,1 C 11.732,1 11.466,1.01 11.203,1.028 10.44,1.083 9.858,1.645 9.691,2.332 L 9.339,3.782 C 9.319,3.86 9.249,3.954 9.114,4.002 A 8.45,8.45 0 0 0 8.386,4.305 C 8.256,4.365 8.14,4.349 8.071,4.307 L 6.797,3.531 C 6.193,3.163 5.385,3.177 4.807,3.678 4.404,4.026 4.027,4.404 3.678,4.806 3.178,5.385 3.163,6.193 3.531,6.796 L 4.307,8.071 C 4.349,8.14 4.366,8.256 4.305,8.386 A 8.45,8.45 0 0 0 4.003,9.114 C 3.953,9.249 3.86,9.32 3.782,9.339 L 2.332,9.691 C 1.645,9.858 1.083,10.44 1.028,11.203 a 11.149,11.149 0 0 0 0,1.594 c 0.055,0.763 0.617,1.345 1.304,1.512 l 1.45,0.352 c 0.078,0.02 0.172,0.09 0.22,0.225 0.09,0.248 0.191,0.491 0.303,0.729 0.06,0.129 0.044,0.245 0.002,0.314 l -0.776,1.274 c -0.368,0.604 -0.354,1.412 0.147,1.99 0.348,0.403 0.726,0.78 1.128,1.129 0.579,0.5 1.387,0.515 1.99,0.147 l 1.275,-0.776 c 0.069,-0.042 0.185,-0.059 0.315,0.002 0.237,0.112 0.48,0.213 0.728,0.302 0.135,0.05 0.206,0.143 0.225,0.221 l 0.352,1.45 c 0.167,0.687 0.749,1.249 1.512,1.303 a 11.125,11.125 0 0 0 1.594,0 c 0.763,-0.054 1.345,-0.616 1.512,-1.303 l 0.352,-1.45 c 0.02,-0.078 0.09,-0.172 0.225,-0.22 0.248,-0.09 0.491,-0.191 0.729,-0.303 0.129,-0.06 0.245,-0.044 0.314,-0.002 l 1.274,0.776 c 0.604,0.368 1.412,0.354 1.99,-0.147 0.403,-0.348 0.78,-0.726 1.129,-1.128 0.5,-0.579 0.515,-1.387 0.147,-1.99 l -0.776,-1.275 c -0.042,-0.069 -0.059,-0.185 0.002,-0.315 0.112,-0.237 0.213,-0.48 0.302,-0.728 0.05,-0.135 0.143,-0.206 0.221,-0.225 l 1.45,-0.352 c 0.687,-0.167 1.249,-0.749 1.303,-1.512 a 11.125,11.125 0 0 0 0,-1.594 C 22.917,10.44 22.355,9.858 21.668,9.691 L 20.218,9.339 C 20.14,9.319 20.046,9.249 19.998,9.114 A 8.469,8.469 0 0 0 19.695,8.386 C 19.635,8.256 19.651,8.14 19.693,8.071 L 20.469,6.797 C 20.837,6.193 20.823,5.385 20.322,4.807 19.974,4.404 19.596,4.027 19.194,3.678 18.615,3.178 17.807,3.163 17.204,3.531 L 15.929,4.307 C 15.86,4.349 15.744,4.366 15.614,4.305 A 8.465,8.465 0 0 0 14.886,4.003 C 14.751,3.953 14.68,3.86 14.661,3.782 L 14.309,2.332 C 14.142,1.645 13.56,1.083 12.797,1.028 A 11.149,11.149 0 0 0 12,1 Z m 2.5,11 a 2.5,2.5 0 1 1 -5,0 2.5,2.5 0 0 1 5,0 z m 1.5,0 a 4,4 0 1 1 -8,0 4,4 0 0 1 8,0 z"
     fill-rule="evenodd" />
</svg>
