<?xml version="1.0" encoding="UTF-8" standalone="no"?>
<svg
   xmlns:dc="http://purl.org/dc/elements/1.1/"
   xmlns:cc="http://creativecommons.org/ns#"
   xmlns:rdf="http://www.w3.org/1999/02/22-rdf-syntax-ns#"
   xmlns:svg="http://www.w3.org/2000/svg"
   xmlns="http://www.w3.org/2000/svg"
   xmlns:sodipodi="http://sodipodi.sourceforge.net/DTD/sodipodi-0.dtd"
   xmlns:inkscape="http://www.inkscape.org/namespaces/inkscape"
   inkscape:version="1.0 (4035a4fb49, 2020-05-01)"
   sodipodi:docname="trash.svg"
   id="svg8"
   version="1.1"
   viewBox="0 0 24 24"
   height="16"
   width="16">
  <metadata
     id="metadata14">
    <rdf:RDF>
      <cc:Work
         rdf:about="">
        <dc:format>image/svg+xml</dc:format>
        <dc:type
           rdf:resource="http://purl.org/dc/dcmitype/StillImage" />
        <dc:title></dc:title>
      </cc:Work>
    </rdf:RDF>
  </metadata>
  <defs
     id="defs12" />
  <sodipodi:namedview
     inkscape:current-layer="svg8"
     inkscape:window-maximized="0"
     inkscape:window-y="0"
     inkscape:window-x="0"
     inkscape:cy="12"
     inkscape:cx="12"
     inkscape:zoom="34.583333"
     showgrid="false"
     id="namedview10"
     inkscape:window-height="480"
     inkscape:window-width="755"
     inkscape:pageshadow="2"
     inkscape:pageopacity="0"
     guidetolerance="10"
     gridtolerance="10"
     objecttolerance="10"
     borderopacity="1"
     bordercolor="#666666"
     pagecolor="#ffffff" />
  <path
     id="path2"
     d="M 16,1.75 V 3 h 5.25 a 0.75,0.75 0 0 1 0,1.5 H 2.75 A 0.75,0.75 0 0 1 2.75,3 H 8 V 1.75 C 8,0.784 8.784,0 9.75,0 h 4.5 C 15.216,0 16,0.784 16,1.75 Z m -6.5,0 A 0.25,0.25 0 0 1 9.75,1.5 h 4.5 A 0.25,0.25 0 0 1 14.5,1.75 V 3 h -5 z"
     fill-rule="evenodd" />
  <path
     id="path4"
     d="M 4.997,6.178 A 0.75,0.75 0 1 0 3.504,6.322 L 4.916,20.92 a 1.75,1.75 0 0 0 1.742,1.58 h 10.684 a 1.75,1.75 0 0 0 1.742,-1.581 L 20.497,6.322 A 0.75046186,0.75046186 0 0 0 19.003,6.178 L 17.591,20.774 A 0.25,0.25 0 0 1 17.342,21 H 6.658 A 0.25,0.25 0 0 1 6.409,20.774 Z" />
  <path
     id="path6"
     d="m 9.206,7.501 a 0.75,0.75 0 0 1 0.793,0.705 l 0.5,8.5 A 0.75079042,0.75079042 0 1 1 9,16.794 L 8.5,8.294 A 0.75,0.75 0 0 1 9.205,7.501 Z m 6.293,0.793 A 0.75079042,0.75079042 0 1 0 14,8.206 l -0.5,8.5 a 0.75029128,0.75029128 0 0 0 1.498,0.088 l 0.5,-8.5 z" />
</svg>
