<svg xmlns="http://www.w3.org/2000/svg" xmlns:svg="http://www.w3.org/2000/svg" id="svg8" width="16" height="16" version="1.1" viewBox="0 0 24 24"><metadata id="metadata14"/><path id="path2" fill-rule="evenodd" d="M 16,1.75 V 3 h 5.25 a 0.75,0.75 0 0 1 0,1.5 H 2.75 A 0.75,0.75 0 0 1 2.75,3 H 8 V 1.75 C 8,0.784 8.784,0 9.75,0 h 4.5 C 15.216,0 16,0.784 16,1.75 Z m -6.5,0 A 0.25,0.25 0 0 1 9.75,1.5 h 4.5 A 0.25,0.25 0 0 1 14.5,1.75 V 3 h -5 z"/><path id="path4" d="M 4.997,6.178 A 0.75,0.75 0 1 0 3.504,6.322 L 4.916,20.92 a 1.75,1.75 0 0 0 1.742,1.58 h 10.684 a 1.75,1.75 0 0 0 1.742,-1.581 L 20.497,6.322 A 0.75046186,0.75046186 0 0 0 19.003,6.178 L 17.591,20.774 A 0.25,0.25 0 0 1 17.342,21 H 6.658 A 0.25,0.25 0 0 1 6.409,20.774 Z"/><path id="path6" d="m 9.206,7.501 a 0.75,0.75 0 0 1 0.793,0.705 l 0.5,8.5 A 0.75079042,0.75079042 0 1 1 9,16.794 L 8.5,8.294 A 0.75,0.75 0 0 1 9.205,7.501 Z m 6.293,0.793 A 0.75079042,0.75079042 0 1 0 14,8.206 l -0.5,8.5 a 0.75029128,0.75029128 0 0 0 1.498,0.088 l 0.5,-8.5 z"/></svg>