<?xml version="1.0" encoding="UTF-8" standalone="no"?>
<svg
   xmlns:dc="http://purl.org/dc/elements/1.1/"
   xmlns:cc="http://creativecommons.org/ns#"
   xmlns:rdf="http://www.w3.org/1999/02/22-rdf-syntax-ns#"
   xmlns:svg="http://www.w3.org/2000/svg"
   xmlns="http://www.w3.org/2000/svg"
   xmlns:sodipodi="http://sodipodi.sourceforge.net/DTD/sodipodi-0.dtd"
   xmlns:inkscape="http://www.inkscape.org/namespaces/inkscape"
   inkscape:version="1.0 (4035a4fb49, 2020-05-01)"
   sodipodi:docname="unverifed.svg"
   id="svg6"
   version="1.1"
   viewBox="0 0 24 24"
   height="16"
   width="16">
  <metadata
     id="metadata12">
    <rdf:RDF>
      <cc:Work
         rdf:about="">
        <dc:format>image/svg+xml</dc:format>
        <dc:type
           rdf:resource="http://purl.org/dc/dcmitype/StillImage" />
        <dc:title></dc:title>
      </cc:Work>
    </rdf:RDF>
  </metadata>
  <defs
     id="defs10" />
  <sodipodi:namedview
     inkscape:current-layer="svg6"
     inkscape:window-maximized="0"
     inkscape:window-y="0"
     inkscape:window-x="0"
     inkscape:cy="12"
     inkscape:cx="12"
     inkscape:zoom="34.583333"
     showgrid="false"
     id="namedview8"
     inkscape:window-height="480"
     inkscape:window-width="755"
     inkscape:pageshadow="2"
     inkscape:pageopacity="0"
     guidetolerance="10"
     gridtolerance="10"
     objecttolerance="10"
     borderopacity="1"
     bordercolor="#666666"
     pagecolor="#ffffff" />
  <path
     id="path2"
     d="m 13,16.5 a 1,1 0 1 1 -2,0 1,1 0 0 1 2,0 z M 10.483,8.835 C 10.595,8.612 10.751,8.411 10.971,8.265 11.186,8.12 11.506,8 12,8 c 0.384,0 0.766,0.118 1.034,0.319 a 0.953,0.953 0 0 1 0.403,0.806 c 0,0.48 -0.218,0.81 -0.62,1.186 a 9.293,9.293 0 0 1 -0.409,0.354 19.8,19.8 0 0 0 -0.294,0.249 c -0.246,0.213 -0.524,0.474 -0.738,0.795 l -0.126,0.19 V 13.5 a 0.75,0.75 0 0 0 1.5,0 v -1.12 c 0.09,-0.1 0.203,-0.208 0.347,-0.333 0.063,-0.055 0.14,-0.119 0.222,-0.187 0.166,-0.14 0.358,-0.3 0.52,-0.452 0.536,-0.5 1.098,-1.2 1.098,-2.283 A 2.45,2.45 0 0 0 13.934,7.119 C 13.37,6.695 12.658,6.5 12,6.5 c -0.756,0 -1.373,0.191 -1.861,0.517 a 2.944,2.944 0 0 0 -0.997,1.148 0.75,0.75 0 0 0 1.341,0.67 z" />
  <path
     id="path4"
     d="m 9.864,1.2 a 3.61,3.61 0 0 1 4.272,0 l 1.375,1.01 c 0.274,0.2 0.593,0.333 0.929,0.384 l 1.686,0.259 a 3.61,3.61 0 0 1 3.021,3.02 l 0.259,1.687 c 0.051,0.336 0.183,0.655 0.384,0.929 l 1.01,1.375 a 3.61,3.61 0 0 1 0,4.272 l -1.01,1.375 a 2.11,2.11 0 0 0 -0.384,0.929 l -0.259,1.686 a 3.61,3.61 0 0 1 -3.02,3.021 l -1.687,0.259 a 2.11,2.11 0 0 0 -0.929,0.384 l -1.375,1.01 a 3.61,3.61 0 0 1 -4.272,0 L 8.489,21.79 A 2.11,2.11 0 0 0 7.56,21.406 L 5.874,21.147 A 3.61,3.61 0 0 1 2.853,18.127 L 2.594,16.44 A 2.11,2.11 0 0 0 2.21,15.511 L 1.2,14.136 a 3.61,3.61 0 0 1 0,-4.272 L 2.21,8.489 A 2.11,2.11 0 0 0 2.594,7.56 L 2.853,5.874 A 3.61,3.61 0 0 1 5.873,2.853 L 7.56,2.594 A 2.11,2.11 0 0 0 8.489,2.21 Z m 3.384,1.209 a 2.11,2.11 0 0 0 -2.496,0 L 9.376,3.419 A 3.61,3.61 0 0 1 7.787,4.077 L 6.101,4.335 A 2.11,2.11 0 0 0 4.335,6.101 L 4.077,7.787 a 3.61,3.61 0 0 1 -0.658,1.59 l -1.01,1.375 a 2.11,2.11 0 0 0 0,2.496 l 1.01,1.376 a 3.61,3.61 0 0 1 0.658,1.589 l 0.258,1.686 a 2.11,2.11 0 0 0 1.766,1.765 l 1.686,0.26 a 3.61,3.61 0 0 1 1.59,0.657 l 1.375,1.01 a 2.11,2.11 0 0 0 2.496,0 l 1.376,-1.01 a 3.61,3.61 0 0 1 1.589,-0.658 l 1.686,-0.258 a 2.11,2.11 0 0 0 1.765,-1.766 l 0.26,-1.686 a 3.61,3.61 0 0 1 0.657,-1.59 l 1.01,-1.375 a 2.11,2.11 0 0 0 0,-2.496 L 20.581,9.376 A 3.61,3.61 0 0 1 19.923,7.787 L 19.665,6.101 A 2.11,2.11 0 0 0 17.899,4.335 L 16.213,4.077 a 3.61,3.61 0 0 1 -1.59,-0.658 z"
     fill-rule="evenodd" />
</svg>
