<?xml version="1.0" encoding="UTF-8" standalone="no"?>
<svg
   xmlns:dc="http://purl.org/dc/elements/1.1/"
   xmlns:cc="http://creativecommons.org/ns#"
   xmlns:rdf="http://www.w3.org/1999/02/22-rdf-syntax-ns#"
   xmlns:svg="http://www.w3.org/2000/svg"
   xmlns="http://www.w3.org/2000/svg"
   xmlns:sodipodi="http://sodipodi.sourceforge.net/DTD/sodipodi-0.dtd"
   xmlns:inkscape="http://www.inkscape.org/namespaces/inkscape"
   inkscape:version="1.0 (4035a4fb49, 2020-05-01)"
   sodipodi:docname="x-circle.svg"
   id="svg6"
   version="1.1"
   viewBox="0 0 24 24"
   height="16"
   width="16">
  <metadata
     id="metadata12">
    <rdf:RDF>
      <cc:Work
         rdf:about="">
        <dc:format>image/svg+xml</dc:format>
        <dc:type
           rdf:resource="http://purl.org/dc/dcmitype/StillImage" />
        <dc:title></dc:title>
      </cc:Work>
    </rdf:RDF>
  </metadata>
  <defs
     id="defs10" />
  <sodipodi:namedview
     inkscape:current-layer="svg6"
     inkscape:window-maximized="0"
     inkscape:window-y="0"
     inkscape:window-x="0"
     inkscape:cy="12"
     inkscape:cx="12"
     inkscape:zoom="34.583333"
     showgrid="false"
     id="namedview8"
     inkscape:window-height="480"
     inkscape:window-width="755"
     inkscape:pageshadow="2"
     inkscape:pageopacity="0"
     guidetolerance="10"
     gridtolerance="10"
     objecttolerance="10"
     borderopacity="1"
     bordercolor="#666666"
     pagecolor="#ffffff" />
  <path
     id="path2"
     d="m 9.036,7.976 a 0.75,0.75 0 0 0 -1.06,1.06 L 10.939,12 7.976,14.963 a 0.75,0.75 0 1 0 1.06,1.06 L 12,13.06 l 2.963,2.964 a 0.75,0.75 0 0 0 1.061,-1.06 L 13.061,12 16.024,9.036 a 0.75,0.75 0 1 0 -1.06,-1.06 L 12,10.939 Z" />
  <path
     id="path4"
     d="M 12,1 C 5.925,1 1,5.925 1,12 1,18.075 5.925,23 12,23 18.075,23 23,18.075 23,12 23,5.925 18.075,1 12,1 Z M 2.5,12 a 9.5,9.5 0 1 1 19,0 9.5,9.5 0 0 1 -19,0 z"
     fill-rule="evenodd" />
</svg>
