<svg xmlns="http://www.w3.org/2000/svg" xmlns:svg="http://www.w3.org/2000/svg" id="svg4" width="16" height="16" version="1.1" viewBox="0 0 24 24"><metadata id="metadata10"/><path id="path2" fill-rule="evenodd" d="M 1,12 C 1,5.925 5.925,1 12,1 18.075,1 23,5.925 23,12 23,18.075 18.075,23 12,23 5.925,23 1,18.075 1,12 Z M 9.036,7.976 a 0.75,0.75 0 0 0 -1.06,1.06 L 10.939,12 7.976,14.963 a 0.75,0.75 0 1 0 1.06,1.06 L 12,13.06 l 2.963,2.964 a 0.75,0.75 0 0 0 1.061,-1.06 L 13.061,12 16.024,9.036 a 0.75,0.75 0 1 0 -1.06,-1.06 L 12,10.939 Z"/></svg>