<svg xmlns="http://www.w3.org/2000/svg" xmlns:svg="http://www.w3.org/2000/svg" id="svg6" width="16" height="16" version="1.1" viewBox="0 0 24 24"><metadata id="metadata12"/><path id="path2" d="m 9.036,7.976 a 0.75,0.75 0 0 0 -1.06,1.06 L 10.939,12 7.976,14.963 a 0.75,0.75 0 1 0 1.06,1.06 L 12,13.06 l 2.963,2.964 a 0.75,0.75 0 0 0 1.061,-1.06 L 13.061,12 16.024,9.036 a 0.75,0.75 0 1 0 -1.06,-1.06 L 12,10.939 Z"/><path id="path4" fill-rule="evenodd" d="M 12,1 C 5.925,1 1,5.925 1,12 1,18.075 5.925,23 12,23 18.075,23 23,18.075 23,12 23,5.925 18.075,1 12,1 Z M 2.5,12 a 9.5,9.5 0 1 1 19,0 9.5,9.5 0 0 1 -19,0 z"/></svg>