<svg xmlns="http://www.w3.org/2000/svg" width="213.333" height="213.333" preserveAspectRatio="xMidYMid meet" version="1.0" viewBox="0 0 160 160"><metadata>Created by potrace 1.14, written by Peter Selinger 2001-2017</metadata><g fill="#000" stroke="none"><path d="M724 1561 c-41 -25 -105 -127 -269 -427 -212 -388 -416 -802 -422 -856 -6 -55 26 -122 69 -144 46 -24 290 -34 841 -34 l518 0 54 54 c57 57 67 85 52 146 -13 50 -215 451 -409 811 -176 325 -208 380 -242 417 -46 51 -137 67 -192 33z m219 -363 c151 -278 457 -886 457 -909 0 -14 -29 -17 -227 -22 -464 -14 -958 -6 -979 16 -9 8 76 183 238 492 239 454 353 655 372 655 6 0 69 -105 139 -232z" transform="translate(0.000000,160.000000) scale(0.100000,-0.100000)"/><path d="M777 1089 c-40 -23 -52 -68 -51 -189 1 -146 12 -174 70 -178 55 -4 64 10 77 111 12 103 3 186 -27 229 -24 36 -42 43 -69 27z" transform="translate(0.000000,160.000000) scale(0.100000,-0.100000)"/><path d="M746 569 c-44 -38 -51 -60 -32 -98 38 -72 94 -86 148 -34 52 50 43 102 -25 143 -42 26 -50 25 -91 -11z" transform="translate(0.000000,160.000000) scale(0.100000,-0.100000)"/></g></svg>