<?xml version="1.0" standalone="no"?>
<!DOCTYPE svg PUBLIC "-//W3C//DTD SVG 20010904//EN"
 "http://www.w3.org/TR/2001/REC-SVG-20010904/DTD/svg10.dtd">
<svg version="1.0" xmlns="http://www.w3.org/2000/svg"
 width="160.000000pt" height="160.000000pt" viewBox="0 0 160.000000 160.000000"
 preserveAspectRatio="xMidYMid meet">
<metadata>
Created by potrace 1.14, written by Peter Selinger 2001-2017
</metadata>
<g transform="translate(0.000000,160.000000) scale(0.100000,-0.100000)"
fill="#000000" stroke="none">
<path d="M737 1565 c-40 -20 -58 -44 -136 -175 -150 -250 -441 -808 -530
-1013 -50 -116 -50 -157 3 -214 27 -29 41 -36 96 -44 36 -5 341 -12 677 -16
511 -4 616 -3 630 8 9 8 34 36 55 62 59 75 55 97 -50 312 -158 321 -465 895
-535 998 -57 86 -141 118 -210 82z m122 -220 c125 -208 551 -1049 538 -1062
-23 -22 -1106 -29 -1179 -6 l-28 8 44 98 c85 189 488 943 542 1015 14 17 27
32 28 32 2 0 27 -38 55 -85z"/>
<path d="M777 1089 c-37 -22 -47 -63 -47 -194 0 -120 1 -127 25 -150 24 -25
59 -32 82 -17 19 12 32 56 39 134 8 92 -8 177 -41 212 -27 29 -32 30 -58 15z"/>
<path d="M747 568 c-50 -45 -53 -78 -11 -127 20 -24 34 -31 61 -31 48 0 93 45
93 94 0 31 -6 40 -42 66 -22 16 -46 30 -53 30 -6 0 -28 -15 -48 -32z"/>
</g>
</svg>
