<svg xmlns="http://www.w3.org/2000/svg" width="213.333" height="213.333" preserveAspectRatio="xMidYMid meet" version="1.0" viewBox="0 0 160 160"><metadata>Created by potrace 1.14, written by Peter Selinger 2001-2017</metadata><g fill="#000" stroke="none"><path d="M826 1299 c-14 -11 -26 -30 -26 -41 0 -30 62 -106 195 -238 l115 -115 -386 -5 -386 -5 -21 -36 -21 -36 23 -36 23 -37 385 0 386 0 -141 -144 c-77 -80 -148 -156 -157 -170 -24 -37 -12 -73 31 -93 33 -16 37 -16 69 1 49 27 442 427 450 459 4 14 4 36 -1 49 -8 25 -342 369 -417 429 -55 44 -83 48 -121 18z" transform="translate(0.000000,160.000000) scale(0.100000,-0.100000)"/></g></svg>