<svg xmlns="http://www.w3.org/2000/svg" width="213.333" height="213.333" preserveAspectRatio="xMidYMid meet" version="1.0" viewBox="0 0 160 160"><metadata>Created by potrace 1.14, written by Peter Selinger 2001-2017</metadata><g fill="#000" stroke="none"><path d="M653 1281 c-84 -67 -412 -407 -418 -434 -4 -14 -4 -36 0 -49 11 -34 435 -455 467 -463 55 -14 106 30 94 80 -4 14 -75 95 -158 180 l-151 155 388 2 387 3 21 36 21 36 -23 36 -23 37 -385 0 -386 0 141 144 c162 166 177 186 168 221 -6 24 -51 55 -80 55 -8 0 -36 -17 -63 -39z" transform="translate(0.000000,160.000000) scale(0.100000,-0.100000)"/></g></svg>