<?xml version="1.0" standalone="no"?>
<!DOCTYPE svg PUBLIC "-//W3C//DTD SVG 20010904//EN"
 "http://www.w3.org/TR/2001/REC-SVG-20010904/DTD/svg10.dtd">
<svg version="1.0" xmlns="http://www.w3.org/2000/svg"
 width="160.000000pt" height="160.000000pt" viewBox="0 0 160.000000 160.000000"
 preserveAspectRatio="xMidYMid meet">
<metadata>
Created by potrace 1.14, written by Peter Selinger 2001-2017
</metadata>
<g transform="translate(0.000000,160.000000) scale(0.100000,-0.100000)"
fill="#000000" stroke="none">
<path d="M783 1279 l-33 -21 0 -385 0 -386 -144 141 c-166 162 -186 177 -221
168 -32 -8 -59 -59 -50 -95 9 -35 431 -457 467 -466 15 -4 37 -4 50 0 34 11
455 435 463 467 14 55 -30 106 -80 94 -14 -4 -95 -75 -180 -158 l-155 -151 0
386 0 385 -34 21 c-41 26 -43 26 -83 0z"/>
</g>
</svg>
