<?xml version="1.0" standalone="no"?>
<!DOCTYPE svg PUBLIC "-//W3C//DTD SVG 20010904//EN"
 "http://www.w3.org/TR/2001/REC-SVG-20010904/DTD/svg10.dtd">
<svg version="1.0" xmlns="http://www.w3.org/2000/svg"
 width="160.000000pt" height="160.000000pt" viewBox="0 0 160.000000 160.000000"
 preserveAspectRatio="xMidYMid meet">
<metadata>
Created by potrace 1.14, written by Peter Selinger 2001-2017
</metadata>
<g transform="translate(0.000000,160.000000) scale(0.100000,-0.100000)"
fill="#000000" stroke="none">
<path d="M420 1180 c-11 -11 -20 -25 -20 -31 0 -15 79 -98 404 -426 l291 -293
-235 -1 c-129 -1 -246 -4 -260 -8 -17 -5 -26 -15 -28 -31 -5 -56 -10 -55 337
-55 294 0 322 1 338 18 16 16 18 45 21 316 2 183 -1 308 -7 324 -12 30 -56 46
-74 28 -8 -8 -13 -88 -15 -263 l-3 -252 -292 290 c-328 325 -411 404 -426 404
-6 0 -20 -9 -31 -20z"/>
</g>
</svg>
