<svg xmlns="http://www.w3.org/2000/svg" width="213.333" height="213.333" preserveAspectRatio="xMidYMid meet" version="1.0" viewBox="0 0 160 160"><metadata>Created by potrace 1.14, written by Peter Selinger 2001-2017</metadata><g fill="#000" stroke="none"><path d="M613 1263 c-25 -3 -34 -10 -39 -29 -15 -60 1 -64 294 -64 l225 0 -341 -344 c-187 -189 -343 -354 -347 -366 -10 -31 24 -65 55 -55 12 4 177 160 366 347 l343 340 3 -251 c3 -272 6 -283 55 -265 18 6 29 19 35 42 5 18 8 163 6 322 -3 262 -5 291 -21 307 -16 16 -44 18 -310 19 -161 1 -307 -1 -324 -3z" transform="translate(0.000000,160.000000) scale(0.100000,-0.100000)"/></g></svg>