<?xml version="1.0" standalone="no"?>
<!DOCTYPE svg PUBLIC "-//W3C//DTD SVG 20010904//EN"
 "http://www.w3.org/TR/2001/REC-SVG-20010904/DTD/svg10.dtd">
<svg version="1.0" xmlns="http://www.w3.org/2000/svg"
 width="160.000000pt" height="160.000000pt" viewBox="0 0 160.000000 160.000000"
 preserveAspectRatio="xMidYMid meet">
<metadata>
Created by potrace 1.14, written by Peter Selinger 2001-2017
</metadata>
<g transform="translate(0.000000,160.000000) scale(0.100000,-0.100000)"
fill="#000000" stroke="none">
<path d="M374 1221 c-59 -43 -360 -353 -368 -379 -5 -15 -2 -32 9 -50 32 -51
371 -381 399 -388 54 -13 102 48 75 98 -7 12 -62 74 -122 136 l-110 112 544 0
544 0 -101 -102 c-119 -121 -144 -153 -144 -183 0 -27 39 -65 68 -65 28 0 125
84 278 241 140 144 159 169 148 201 -8 27 -335 361 -382 390 -28 17 -37 18
-62 8 -37 -15 -56 -59 -39 -92 6 -12 62 -74 122 -135 l111 -113 -544 0 -544 0
111 113 c60 61 116 123 122 135 16 31 -1 75 -35 91 -34 15 -36 15 -80 -18z"/>
</g>
</svg>
