<?xml version="1.0" standalone="no"?>
<!DOCTYPE svg PUBLIC "-//W3C//DTD SVG 20010904//EN"
 "http://www.w3.org/TR/2001/REC-SVG-20010904/DTD/svg10.dtd">
<svg version="1.0" xmlns="http://www.w3.org/2000/svg"
 width="160.000000pt" height="160.000000pt" viewBox="0 0 160.000000 160.000000"
 preserveAspectRatio="xMidYMid meet">
<metadata>
Created by potrace 1.14, written by Peter Selinger 2001-2017
</metadata>
<g transform="translate(0.000000,160.000000) scale(0.100000,-0.100000)"
fill="#000000" stroke="none">
<path d="M1077 1143 c-34 -31 -194 -188 -354 -347 l-293 -291 -1 235 c-1 129
-4 246 -8 260 -5 17 -15 26 -32 28 -52 6 -54 -4 -54 -344 0 -287 1 -315 18
-331 16 -17 44 -18 331 -18 340 0 350 2 344 54 -2 17 -11 27 -28 32 -14 4
-131 7 -260 8 l-235 1 286 288 c327 329 409 416 409 431 0 14 -37 51 -51 51
-6 0 -38 -26 -72 -57z"/>
</g>
</svg>
