<?xml version="1.0" standalone="no"?>
<!DOCTYPE svg PUBLIC "-//W3C//DTD SVG 20010904//EN"
 "http://www.w3.org/TR/2001/REC-SVG-20010904/DTD/svg10.dtd">
<svg version="1.0" xmlns="http://www.w3.org/2000/svg"
 width="160.000000pt" height="160.000000pt" viewBox="0 0 160.000000 160.000000"
 preserveAspectRatio="xMidYMid meet">
<metadata>
Created by potrace 1.14, written by Peter Selinger 2001-2017
</metadata>
<g transform="translate(0.000000,160.000000) scale(0.100000,-0.100000)"
fill="#000000" stroke="none">
<path d="M421 1466 c-12 -18 -21 -40 -21 -48 0 -22 53 -68 78 -68 22 0 22 -2
22 -164 l0 -164 -176 -277 c-190 -299 -224 -362 -224 -414 0 -83 48 -164 123
-204 42 -22 43 -22 577 -22 529 0 535 0 575 22 51 27 79 57 104 113 27 59 26
114 -3 176 -13 29 -103 177 -200 329 l-176 277 0 164 c0 162 0 164 22 164 25
0 78 46 78 68 0 8 -9 30 -21 48 l-21 34 -358 0 -358 0 -21 -34z m529 -302 l0
-186 80 -127 c44 -70 80 -132 80 -139 0 -9 -74 -12 -310 -12 -236 0 -310 3
-310 12 0 7 36 69 80 139 l80 127 0 186 0 186 150 0 150 0 0 -186z m322 -691
c54 -91 78 -138 78 -153 0 -6 -10 -24 -22 -40 l-22 -30 -506 0 -506 0 -24 32
c-28 38 -25 50 52 179 l52 89 426 0 425 0 47 -77z"/>
</g>
</svg>
