<?xml version="1.0" standalone="no"?>
<!DOCTYPE svg PUBLIC "-//W3C//DTD SVG 20010904//EN"
 "http://www.w3.org/TR/2001/REC-SVG-20010904/DTD/svg10.dtd">
<svg version="1.0" xmlns="http://www.w3.org/2000/svg"
 width="160.000000pt" height="160.000000pt" viewBox="0 0 160.000000 160.000000"
 preserveAspectRatio="xMidYMid meet">
<metadata>
Created by potrace 1.14, written by Peter Selinger 2001-2017
</metadata>
<g transform="translate(0.000000,160.000000) scale(0.100000,-0.100000)"
fill="#000000" stroke="none">
<path d="M679 1446 c-97 -37 -155 -80 -204 -151 -56 -81 -66 -122 -74 -311 -9
-195 -3 -180 -121 -344 -38 -52 -72 -108 -75 -123 -9 -34 10 -84 39 -100 28
-16 939 -23 1047 -8 76 10 94 22 106 70 8 31 -14 74 -93 184 -99 138 -96 130
-104 317 -9 214 -35 287 -135 379 -76 70 -143 95 -255 98 -62 2 -108 -2 -131
-11z"/>
<path d="M580 322 c0 -16 58 -89 87 -109 72 -51 154 -56 234 -15 49 24 119 97
119 123 0 5 -92 9 -220 9 -121 0 -220 -4 -220 -8z"/>
</g>
</svg>
