<svg xmlns="http://www.w3.org/2000/svg" width="213.333" height="213.333" preserveAspectRatio="xMidYMid meet" version="1.0" viewBox="0 0 160 160"><metadata>Created by potrace 1.14, written by Peter Selinger 2001-2017</metadata><g fill="#000" stroke="none"><path d="M683 1585 c-125 -34 -263 -134 -263 -190 0 -30 41 -75 67 -75 10 0 30 8 44 18 147 99 156 102 280 102 73 0 93 -4 139 -27 71 -35 128 -94 164 -168 27 -56 29 -69 36 -239 8 -169 10 -182 30 -198 29 -23 62 -23 91 1 23 18 24 26 27 153 5 181 -8 264 -54 356 -102 208 -347 324 -561 267z" transform="translate(0.000000,160.000000) scale(0.100000,-0.100000)"/><path d="M25 1375 c-53 -52 -29 -85 163 -225 l112 -82 0 -133 0 -134 -90 -137 c-50 -76 -95 -155 -102 -176 -22 -76 29 -160 108 -179 22 -4 288 -9 591 -9 l553 0 65 -45 c37 -25 77 -48 91 -51 47 -12 96 44 80 93 -3 10 -32 38 -63 63 -92 72 -1274 927 -1395 1008 -56 38 -81 40 -113 7z m825 -703 c154 -112 278 -208 275 -213 -4 -5 -184 -9 -440 -9 l-435 0 86 130 c98 148 114 191 114 302 l0 79 59 -43 c33 -24 186 -134 341 -246z" transform="translate(0.000000,160.000000) scale(0.100000,-0.100000)"/><path d="M618 193 c-22 -6 -22 -18 1 -68 36 -81 131 -135 210 -120 86 16 161 92 161 164 l0 31 -177 -1 c-98 -1 -186 -3 -195 -6z" transform="translate(0.000000,160.000000) scale(0.100000,-0.100000)"/></g></svg>