<?xml version="1.0" standalone="no"?>
<!DOCTYPE svg PUBLIC "-//W3C//DTD SVG 20010904//EN"
 "http://www.w3.org/TR/2001/REC-SVG-20010904/DTD/svg10.dtd">
<svg version="1.0" xmlns="http://www.w3.org/2000/svg"
 width="160.000000pt" height="160.000000pt" viewBox="0 0 160.000000 160.000000"
 preserveAspectRatio="xMidYMid meet">
<metadata>
Created by potrace 1.14, written by Peter Selinger 2001-2017
</metadata>
<g transform="translate(0.000000,160.000000) scale(0.100000,-0.100000)"
fill="#000000" stroke="none">
<path d="M681 1584 c-139 -37 -262 -138 -325 -266 -46 -91 -56 -156 -56 -360
l0 -157 -90 -137 c-50 -76 -95 -155 -102 -176 -22 -76 29 -160 108 -179 51
-11 1118 -11 1169 1 50 11 101 65 111 115 9 47 -15 100 -118 257 l-78 119 0
157 c0 204 -10 269 -56 360 -103 209 -347 324 -563 266z m187 -144 c112 -26
198 -93 246 -193 27 -54 28 -65 36 -269 5 -152 12 -223 22 -248 9 -19 52 -90
96 -157 l82 -123 -550 0 -550 0 82 123 c44 67 87 138 96 157 10 25 17 96 22
248 8 202 9 216 35 267 73 151 229 230 383 195z"/>
<path d="M618 193 c-22 -6 -22 -18 1 -68 36 -81 131 -135 210 -120 86 16 161
92 161 164 l0 31 -177 -1 c-98 -1 -186 -3 -195 -6z"/>
</g>
</svg>
