<?xml version="1.0" standalone="no"?>
<!DOCTYPE svg PUBLIC "-//W3C//DTD SVG 20010904//EN"
 "http://www.w3.org/TR/2001/REC-SVG-20010904/DTD/svg10.dtd">
<svg version="1.0" xmlns="http://www.w3.org/2000/svg"
 width="160.000000pt" height="160.000000pt" viewBox="0 0 160.000000 160.000000"
 preserveAspectRatio="xMidYMid meet">
<metadata>
Created by potrace 1.14, written by Peter Selinger 2001-2017
</metadata>
<g transform="translate(0.000000,160.000000) scale(0.100000,-0.100000)"
fill="#000000" stroke="none">
<path d="M377 1390 c-21 -4 -43 -12 -48 -17 -24 -24 -30 -173 -27 -632 3 -494
4 -508 45 -527 10 -5 166 -10 347 -12 l329 -3 65 33 c81 41 140 97 175 168 24
47 27 66 27 148 0 81 -3 100 -27 150 -16 31 -49 79 -75 105 l-46 49 24 51 c20
43 24 68 24 148 0 83 -3 102 -27 149 -35 71 -93 127 -172 168 l-64 32 -256 -1
c-141 -1 -273 -5 -294 -9z m549 -216 c50 -37 69 -72 69 -124 0 -52 -19 -87
-69 -124 -25 -19 -44 -21 -227 -24 l-199 -4 0 152 0 152 199 -4 c183 -3 202
-5 227 -24z m100 -500 c50 -37 69 -72 69 -124 0 -52 -19 -87 -69 -124 -26 -20
-43 -21 -277 -24 l-249 -3 0 151 0 151 249 -3 c234 -3 251 -4 277 -24z"/>
</g>
</svg>
