<?xml version="1.0" standalone="no"?>
<!DOCTYPE svg PUBLIC "-//W3C//DTD SVG 20010904//EN"
 "http://www.w3.org/TR/2001/REC-SVG-20010904/DTD/svg10.dtd">
<svg version="1.0" xmlns="http://www.w3.org/2000/svg"
 width="160.000000pt" height="160.000000pt" viewBox="0 0 160.000000 160.000000"
 preserveAspectRatio="xMidYMid meet">
<metadata>
Created by potrace 1.14, written by Peter Selinger 2001-2017
</metadata>
<g transform="translate(0.000000,160.000000) scale(0.100000,-0.100000)"
fill="#000000" stroke="none">
<path d="M25 1476 l-25 -25 0 -551 0 -551 25 -24 24 -25 253 0 c147 0 269 -5
291 -11 24 -6 65 -35 108 -75 93 -84 105 -84 198 0 43 40 84 69 108 75 22 6
144 11 291 11 l253 0 24 25 25 24 0 551 0 551 -25 24 -24 25 -249 0 c-310 0
-356 -11 -464 -108 l-38 -34 -52 46 c-97 84 -123 90 -430 94 l-268 3 -25 -25z
m576 -154 c66 -34 105 -88 119 -161 5 -30 10 -213 10 -409 0 -333 -1 -354 -17
-349 -10 3 -43 15 -73 26 -49 18 -80 20 -272 21 l-218 0 0 450 0 450 199 0
c198 0 199 0 252 -28z m849 -422 l0 -450 -217 0 c-221 -1 -240 -3 -336 -45
-17 -7 -18 12 -15 398 l3 405 30 43 c19 27 50 54 84 71 53 28 54 28 252 28
l199 0 0 -450z"/>
</g>
</svg>
