<?xml version="1.0" standalone="no"?>
<!DOCTYPE svg PUBLIC "-//W3C//DTD SVG 20010904//EN"
 "http://www.w3.org/TR/2001/REC-SVG-20010904/DTD/svg10.dtd">
<svg version="1.0" xmlns="http://www.w3.org/2000/svg"
 width="160.000000pt" height="160.000000pt" viewBox="0 0 160.000000 160.000000"
 preserveAspectRatio="xMidYMid meet">
<metadata>
Created by potrace 1.14, written by Peter Selinger 2001-2017
</metadata>
<g transform="translate(0.000000,160.000000) scale(0.100000,-0.100000)"
fill="#000000" stroke="none">
<path d="M150 1450 c-37 -37 -34 -41 88 -144 l92 -79 0 -528 c0 -520 0 -529
21 -550 14 -14 27 -18 41 -13 12 3 108 76 215 161 l193 155 117 -93 c65 -51
152 -120 193 -154 91 -75 112 -83 139 -56 19 19 21 33 21 157 l0 135 66 -55
c36 -31 72 -56 80 -56 18 0 54 35 54 53 0 7 -17 29 -37 49 -84 81 -1236 1038
-1249 1038 -8 0 -23 -9 -34 -20z"/>
<path d="M466 1457 c-12 -9 -17 -23 -14 -42 3 -32 -15 -16 541 -481 114 -96
215 -174 223 -174 7 0 23 9 34 20 19 19 20 33 20 303 0 317 -4 336 -70 369
-31 16 -71 18 -376 18 -263 0 -344 -3 -358 -13z"/>
</g>
</svg>
