<?xml version="1.0" standalone="no"?>
<!DOCTYPE svg PUBLIC "-//W3C//DTD SVG 20010904//EN"
 "http://www.w3.org/TR/2001/REC-SVG-20010904/DTD/svg10.dtd">
<svg version="1.0" xmlns="http://www.w3.org/2000/svg"
 width="160.000000pt" height="160.000000pt" viewBox="0 0 160.000000 160.000000"
 preserveAspectRatio="xMidYMid meet">
<metadata>
Created by potrace 1.14, written by Peter Selinger 2001-2017
</metadata>
<g transform="translate(0.000000,160.000000) scale(0.100000,-0.100000)"
fill="#000000" stroke="none">
<path d="M25 1475 c-53 -52 -29 -85 163 -225 l112 -82 0 -512 0 -512 30 -22
c16 -12 33 -22 37 -22 22 0 103 54 260 172 l172 130 40 -29 c22 -15 100 -73
173 -129 73 -55 152 -112 175 -125 40 -22 45 -23 70 -9 34 19 42 55 42 208 1
62 5 112 10 112 6 0 53 -29 106 -65 52 -36 105 -65 116 -65 26 0 69 43 69 69
0 50 42 17 -790 617 -691 499 -712 514 -740 514 -11 0 -32 -11 -45 -25z m828
-705 l297 -215 0 -114 c0 -89 -3 -111 -12 -104 -119 94 -283 213 -307 223 -44
18 -64 7 -227 -116 -117 -88 -140 -101 -146 -87 -3 10 -7 172 -7 361 l-1 343
53 -38 c29 -21 186 -135 350 -253z"/>
<path d="M532 1471 c-27 -38 -28 -61 -1 -95 l20 -26 297 -2 297 -3 6 -200 c3
-129 9 -208 17 -222 26 -47 103 -38 122 13 6 14 10 119 10 233 l0 208 -30 41
c-55 76 -56 77 -405 80 l-310 3 -23 -30z"/>
</g>
</svg>
