<?xml version="1.0" standalone="no"?>
<!DOCTYPE svg PUBLIC "-//W3C//DTD SVG 20010904//EN"
 "http://www.w3.org/TR/2001/REC-SVG-20010904/DTD/svg10.dtd">
<svg version="1.0" xmlns="http://www.w3.org/2000/svg"
 width="160.000000pt" height="160.000000pt" viewBox="0 0 160.000000 160.000000"
 preserveAspectRatio="xMidYMid meet">
<metadata>
Created by potrace 1.14, written by Peter Selinger 2001-2017
</metadata>
<g transform="translate(0.000000,160.000000) scale(0.100000,-0.100000)"
fill="#000000" stroke="none">
<path d="M605 1584 c-80 -41 -105 -90 -105 -203 l0 -80 -194 -3 -194 -3 -39
-31 c-76 -61 -74 -41 -71 -576 l3 -476 30 -38 c64 -78 18 -74 765 -74 747 0
701 -4 765 74 l30 38 3 476 c3 536 5 514 -72 577 l-38 30 -193 3 -193 3 -4 94
c-3 86 -5 96 -33 131 -55 68 -78 74 -265 74 -130 0 -171 -3 -195 -16z m343
-211 l3 -73 -151 0 -150 0 0 68 c0 38 3 72 7 76 4 3 70 5 147 4 l141 -3 3 -72z
m497 -334 c0 -98 -2 -108 -27 -146 -15 -22 -44 -51 -65 -64 l-38 -24 -516 0
-515 0 -41 27 c-66 44 -87 87 -91 195 -3 51 -2 99 2 108 5 13 78 15 648 13
l643 -3 0 -106z m-645 -384 l535 0 58 27 57 27 -2 -227 -3 -227 -645 0 -645 0
-3 227 -2 227 57 -27 58 -27 535 0z"/>
</g>
</svg>
