<?xml version="1.0" standalone="no"?>
<!DOCTYPE svg PUBLIC "-//W3C//DTD SVG 20010904//EN"
 "http://www.w3.org/TR/2001/REC-SVG-20010904/DTD/svg10.dtd">
<svg version="1.0" xmlns="http://www.w3.org/2000/svg"
 width="160.000000pt" height="160.000000pt" viewBox="0 0 160.000000 160.000000"
 preserveAspectRatio="xMidYMid meet">
<metadata>
Created by potrace 1.14, written by Peter Selinger 2001-2017
</metadata>
<g transform="translate(0.000000,160.000000) scale(0.100000,-0.100000)"
fill="#000000" stroke="none">
<path d="M209 1438 c-82 -88 -152 -218 -185 -343 -24 -93 -26 -294 -2 -380 29
-106 58 -172 107 -247 76 -114 104 -140 147 -136 26 2 43 11 57 30 26 34 18
62 -33 124 -90 107 -150 274 -150 414 0 143 60 306 155 420 50 61 56 94 25
128 -32 34 -84 30 -121 -10z"/>
<path d="M1270 1448 c-31 -34 -25 -67 25 -128 95 -114 155 -277 155 -420 0
-143 -60 -306 -155 -420 -27 -33 -45 -65 -45 -80 0 -56 57 -93 104 -68 13 7
41 34 63 60 220 268 242 655 54 940 -73 109 -103 138 -145 138 -23 0 -42 -7
-56 -22z"/>
<path d="M414 1215 c-74 -79 -121 -230 -111 -354 10 -123 85 -279 144 -302 37
-14 78 5 94 43 11 28 10 35 -10 67 -100 162 -106 283 -20 425 45 76 48 98 14
131 -35 36 -71 32 -111 -10z"/>
<path d="M1088 1235 c-39 -22 -46 -61 -19 -105 62 -100 76 -142 76 -230 0 -88
-14 -129 -77 -232 -27 -44 -18 -84 24 -107 40 -23 76 -5 120 57 101 145 114
342 33 507 -50 103 -103 140 -157 110z"/>
<path d="M709 1047 c-54 -36 -79 -82 -79 -144 0 -62 17 -100 60 -136 l30 -26
0 -273 c0 -150 4 -288 10 -307 23 -82 117 -82 140 0 6 19 10 157 10 307 l0
273 30 26 c43 36 60 74 60 136 0 62 -25 108 -79 144 -47 32 -135 32 -182 0z"/>
</g>
</svg>
