<?xml version="1.0" standalone="no"?>
<!DOCTYPE svg PUBLIC "-//W3C//DTD SVG 20010904//EN"
 "http://www.w3.org/TR/2001/REC-SVG-20010904/DTD/svg10.dtd">
<svg version="1.0" xmlns="http://www.w3.org/2000/svg"
 width="160.000000pt" height="160.000000pt" viewBox="0 0 160.000000 160.000000"
 preserveAspectRatio="xMidYMid meet">
<metadata>
Created by potrace 1.14, written by Peter Selinger 2001-2017
</metadata>
<g transform="translate(0.000000,160.000000) scale(0.100000,-0.100000)"
fill="#000000" stroke="none">
<path d="M151 1386 c-51 -28 -50 -24 -51 -583 0 -384 3 -529 12 -548 25 -56
14 -55 688 -55 674 0 663 -1 688 55 9 19 12 164 12 546 0 564 0 562 -55 587
-40 18 -1261 16 -1294 -2z m149 -136 l0 -50 -50 0 -50 0 0 50 0 50 50 0 50 0
0 -50z m200 0 l0 -50 -50 0 -50 0 0 50 0 50 50 0 50 0 0 -50z m200 0 l0 -50
-50 0 -50 0 0 50 0 50 50 0 50 0 0 -50z m700 0 l0 -50 -300 0 -300 0 0 50 0
50 300 0 300 0 0 -50z m0 -550 l0 -400 -600 0 -600 0 0 400 0 400 600 0 600 0
0 -400z"/>
</g>
</svg>
