<svg xmlns="http://www.w3.org/2000/svg" width="213.333" height="213.333" preserveAspectRatio="xMidYMid meet" version="1.0" viewBox="0 0 160 160"><metadata>Created by potrace 1.14, written by Peter Selinger 2001-2017</metadata><g fill="#000" stroke="none"><path d="M151 1386 c-51 -28 -50 -24 -51 -583 0 -384 3 -529 12 -548 25 -56 14 -55 688 -55 674 0 663 -1 688 55 9 19 12 164 12 546 0 564 0 562 -55 587 -40 18 -1261 16 -1294 -2z m149 -136 l0 -50 -50 0 -50 0 0 50 0 50 50 0 50 0 0 -50z m200 0 l0 -50 -50 0 -50 0 0 50 0 50 50 0 50 0 0 -50z m200 0 l0 -50 -50 0 -50 0 0 50 0 50 50 0 50 0 0 -50z m700 0 l0 -50 -300 0 -300 0 0 50 0 50 300 0 300 0 0 -50z m0 -550 l0 -400 -600 0 -600 0 0 400 0 400 600 0 600 0 0 -400z" transform="translate(0.000000,160.000000) scale(0.100000,-0.100000)"/></g></svg>