<svg xmlns="http://www.w3.org/2000/svg" width="213.333" height="213.333" preserveAspectRatio="xMidYMid meet" version="1.0" viewBox="0 0 160 160"><metadata>Created by potrace 1.14, written by Peter Selinger 2001-2017</metadata><g fill="#000" stroke="none"><path d="M300 1450 l0 -50 93 0 93 0 47 -48 c50 -50 56 -62 33 -62 -8 0 -26 -14 -40 -31 -22 -26 -26 -40 -26 -93 0 -62 0 -62 -35 -75 -46 -16 -65 -55 -65 -130 l0 -60 -132 45 c-73 24 -137 44 -143 44 -10 0 -35 -54 -35 -77 0 -6 70 -35 155 -63 l155 -52 0 -49 0 -49 -150 0 -150 0 0 -50 0 -50 150 0 150 0 0 -49 0 -49 -155 -52 c-85 -28 -155 -57 -155 -63 0 -23 25 -77 35 -77 6 0 70 20 143 44 l132 45 0 -59 c0 -107 33 -140 142 -140 l63 0 47 53 48 52 0 348 0 347 50 0 50 0 0 -347 0 -348 48 -52 47 -53 63 0 c109 0 142 33 142 140 l0 59 132 -45 c73 -24 137 -44 143 -44 10 0 35 54 35 77 0 6 -70 35 -155 63 l-155 52 0 49 0 49 150 0 150 0 0 50 0 50 -150 0 -150 0 0 49 0 49 155 52 c85 28 155 57 155 63 0 23 -25 77 -35 77 -6 0 -70 -20 -143 -44 l-132 -45 0 60 c0 75 -19 114 -65 130 -35 13 -35 13 -35 75 0 53 -4 67 -26 93 -14 17 -32 31 -40 31 -23 0 -16 14 34 63 l48 47 92 0 92 0 0 50 0 50 -113 0 -112 0 -100 -100 c-74 -74 -106 -100 -125 -100 -19 0 -51 26 -125 100 l-100 100 -112 0 -113 0 0 -50z m600 -300 l0 -50 -150 0 -150 0 0 50 0 50 150 0 150 0 0 -50z" transform="translate(0.000000,160.000000) scale(0.100000,-0.100000)"/></g></svg>