<?xml version="1.0" standalone="no"?>
<!DOCTYPE svg PUBLIC "-//W3C//DTD SVG 20010904//EN"
 "http://www.w3.org/TR/2001/REC-SVG-20010904/DTD/svg10.dtd">
<svg version="1.0" xmlns="http://www.w3.org/2000/svg"
 width="160.000000pt" height="160.000000pt" viewBox="0 0 160.000000 160.000000"
 preserveAspectRatio="xMidYMid meet">
<metadata>
Created by potrace 1.14, written by Peter Selinger 2001-2017
</metadata>
<g transform="translate(0.000000,160.000000) scale(0.100000,-0.100000)"
fill="#000000" stroke="none">
<path d="M425 1575 c-22 -21 -25 -33 -25 -99 l0 -74 -94 -4 c-88 -3 -97 -5
-133 -34 -76 -61 -73 -31 -73 -664 0 -634 -4 -601 74 -665 l38 -30 588 0 588
0 38 30 c78 64 74 31 74 665 0 634 4 601 -74 665 -35 28 -45 30 -132 33 l-94
4 0 74 c0 66 -3 78 -25 99 -31 32 -69 32 -100 0 -22 -21 -25 -33 -25 -100 l0
-75 -250 0 -250 0 0 75 c0 67 -3 79 -25 100 -13 14 -36 25 -50 25 -14 0 -37
-11 -50 -25z m923 -452 l3 -123 -551 0 -550 0 0 118 c0 65 3 122 7 125 3 4
250 6 547 5 l541 -3 3 -122z m0 -620 l-3 -348 -545 0 -545 0 -3 348 -2 347
550 0 550 0 -2 -347z"/>
</g>
</svg>
