<?xml version="1.0" standalone="no"?>
<!DOCTYPE svg PUBLIC "-//W3C//DTD SVG 20010904//EN"
 "http://www.w3.org/TR/2001/REC-SVG-20010904/DTD/svg10.dtd">
<svg version="1.0" xmlns="http://www.w3.org/2000/svg"
 width="160.000000pt" height="160.000000pt" viewBox="0 0 160.000000 160.000000"
 preserveAspectRatio="xMidYMid meet">
<metadata>
Created by potrace 1.14, written by Peter Selinger 2001-2017
</metadata>
<g transform="translate(0.000000,160.000000) scale(0.100000,-0.100000)"
fill="#000000" stroke="none">
<path d="M205 1584 c-16 -8 -41 -25 -54 -37 -51 -48 -51 -41 -51 -699 0 -688
-4 -649 74 -713 l38 -30 202 -3 c188 -3 204 -2 226 16 17 14 24 30 24 56 0 67
-11 70 -222 76 l-187 5 0 595 0 595 445 0 445 0 5 -411 c5 -387 6 -413 24
-433 28 -31 79 -28 106 6 20 26 21 33 18 454 l-3 427 -30 38 c-63 77 -43 74
-565 74 -402 0 -469 -2 -495 -16z"/>
<path d="M425 1175 c-14 -13 -25 -36 -25 -50 0 -14 11 -37 25 -50 l24 -25 251
0 251 0 24 25 c14 13 25 36 25 50 0 14 -11 37 -25 50 l-24 25 -251 0 -251 0
-24 -25z"/>
<path d="M425 875 c-14 -13 -25 -36 -25 -50 0 -14 11 -37 25 -50 23 -24 30
-25 150 -25 120 0 127 1 150 25 14 13 25 36 25 50 0 14 -11 37 -25 50 -23 24
-30 25 -150 25 -120 0 -127 -1 -150 -25z"/>
<path d="M1396 503 c-56 -54 -151 -147 -213 -207 l-112 -110 -86 83 c-79 78
-87 83 -117 77 -41 -8 -56 -23 -64 -64 -6 -31 -1 -38 112 -152 107 -109 121
-120 153 -120 33 0 55 19 284 243 270 263 274 270 222 322 -44 45 -68 35 -179
-72z"/>
</g>
</svg>
