<?xml version="1.0" standalone="no"?>
<!DOCTYPE svg PUBLIC "-//W3C//DTD SVG 20010904//EN"
 "http://www.w3.org/TR/2001/REC-SVG-20010904/DTD/svg10.dtd">
<svg version="1.0" xmlns="http://www.w3.org/2000/svg"
 width="160.000000pt" height="160.000000pt" viewBox="0 0 160.000000 160.000000"
 preserveAspectRatio="xMidYMid meet">
<metadata>
Created by potrace 1.14, written by Peter Selinger 2001-2017
</metadata>
<g transform="translate(0.000000,160.000000) scale(0.100000,-0.100000)"
fill="#000000" stroke="none">
<path d="M665 1589 c-349 -69 -597 -323 -656 -673 -40 -234 51 -505 226 -681
154 -154 340 -230 565 -230 225 0 411 76 565 230 154 154 230 340 230 565 0
174 -36 297 -125 433 -112 173 -271 287 -480 344 -68 18 -258 25 -325 12z
m512 -512 c7 -7 16 -27 19 -45 7 -33 2 -38 -242 -283 -213 -212 -254 -249
-279 -249 -24 0 -51 22 -153 124 -120 120 -125 126 -118 158 8 41 23 56 64 64
30 6 38 1 120 -79 l87 -86 212 211 c206 205 213 211 245 204 18 -3 38 -12 45
-19z"/>
</g>
</svg>
