<?xml version="1.0" standalone="no"?>
<!DOCTYPE svg PUBLIC "-//W3C//DTD SVG 20010904//EN"
 "http://www.w3.org/TR/2001/REC-SVG-20010904/DTD/svg10.dtd">
<svg version="1.0" xmlns="http://www.w3.org/2000/svg"
 width="160.000000pt" height="160.000000pt" viewBox="0 0 160.000000 160.000000"
 preserveAspectRatio="xMidYMid meet">
<metadata>
Created by potrace 1.14, written by Peter Selinger 2001-2017
</metadata>
<g transform="translate(0.000000,160.000000) scale(0.100000,-0.100000)"
fill="#000000" stroke="none">
<path d="M665 1589 c-349 -69 -597 -323 -656 -673 -40 -234 51 -505 226 -681
154 -154 340 -230 565 -230 225 0 411 76 565 230 154 154 230 340 230 565 0
174 -36 297 -125 433 -112 173 -271 287 -480 344 -68 18 -258 25 -325 12z
m270 -154 c65 -14 204 -75 250 -110 19 -15 -1 -36 -438 -472 -521 -522 -456
-480 -527 -338 -93 185 -93 384 1 575 82 167 259 306 439 344 86 19 189 19
275 1z m414 -290 c98 -162 126 -354 75 -525 -48 -166 -181 -324 -334 -399
-191 -94 -390 -94 -575 -1 -142 71 -183 7 335 525 250 250 457 455 460 455 3
0 21 -25 39 -55z"/>
</g>
</svg>
