<?xml version="1.0" standalone="no"?>
<!DOCTYPE svg PUBLIC "-//W3C//DTD SVG 20010904//EN"
 "http://www.w3.org/TR/2001/REC-SVG-20010904/DTD/svg10.dtd">
<svg version="1.0" xmlns="http://www.w3.org/2000/svg"
 width="160.000000pt" height="160.000000pt" viewBox="0 0 160.000000 160.000000"
 preserveAspectRatio="xMidYMid meet">
<metadata>
Created by potrace 1.14, written by Peter Selinger 2001-2017
</metadata>
<g transform="translate(0.000000,160.000000) scale(0.100000,-0.100000)"
fill="#000000" stroke="none">
<path d="M621 1510 c-248 -65 -437 -242 -518 -485 -25 -72 -27 -94 -27 -225 0
-131 2 -153 27 -225 38 -115 91 -199 182 -290 141 -141 284 -204 482 -213 83
-3 131 0 190 13 252 56 457 241 540 490 25 72 27 94 27 225 0 131 -2 153 -27
225 -82 246 -287 433 -534 489 -98 22 -248 20 -342 -4z m379 -109 c183 -63
332 -211 399 -394 23 -64 26 -86 26 -207 -1 -115 -4 -144 -24 -200 -65 -185
-211 -332 -394 -399 -64 -23 -86 -26 -207 -26 -115 1 -144 4 -200 24 -185 65
-334 213 -398 394 -33 94 -41 251 -18 349 54 229 237 416 464 473 86 22 269
14 352 -14z"/>
</g>
</svg>
