<svg xmlns="http://www.w3.org/2000/svg" width="213.333" height="213.333" preserveAspectRatio="xMidYMid meet" version="1.0" viewBox="0 0 160 160"><metadata>Created by potrace 1.14, written by Peter Selinger 2001-2017</metadata><g fill="#000" stroke="none"><path d="M525 1475 c-25 -24 -25 -27 -25 -200 0 -173 0 -176 25 -200 l24 -25 251 0 251 0 24 25 c25 24 25 27 25 200 0 173 0 176 -25 200 l-24 25 -251 0 -251 0 -24 -25z m425 -200 l0 -75 -150 0 -150 0 0 75 0 75 150 0 150 0 0 -75z" transform="translate(0.000000,160.000000) scale(0.100000,-0.100000)"/><path d="M284 1371 c-17 -10 -42 -34 -55 -53 l-24 -33 0 -537 0 -536 30 -38 c63 -77 43 -74 565 -74 522 0 502 -3 565 74 l30 38 0 537 0 538 -28 36 c-40 53 -81 72 -118 56 -54 -22 -64 -70 -24 -117 l25 -30 -2 -489 -3 -488 -445 0 -445 0 -3 488 -2 489 25 30 c38 45 32 89 -16 113 -36 19 -38 19 -75 -4z" transform="translate(0.000000,160.000000) scale(0.100000,-0.100000)"/></g></svg>