<svg xmlns="http://www.w3.org/2000/svg" width="213.333" height="213.333" preserveAspectRatio="xMidYMid meet" version="1.0" viewBox="0 0 160 160"><metadata>Created by potrace 1.14, written by Peter Selinger 2001-2017</metadata><g fill="#000" stroke="none"><path d="M665 1589 c-221 -43 -405 -163 -525 -340 -97 -141 -134 -268 -134 -449 -1 -225 75 -410 229 -565 154 -154 340 -230 565 -230 225 0 411 76 565 230 154 154 230 340 230 565 0 174 -36 297 -125 433 -112 173 -271 287 -480 344 -68 18 -258 25 -325 12z m270 -154 c184 -38 361 -176 444 -345 94 -193 94 -387 0 -580 -59 -119 -170 -230 -289 -289 -140 -68 -279 -87 -425 -56 -184 38 -361 176 -444 345 -94 192 -94 387 0 580 33 67 59 102 124 166 162 161 372 225 590 179z" transform="translate(0.000000,160.000000) scale(0.100000,-0.100000)"/><path d="M725 1175 c-25 -24 -25 -25 -25 -222 0 -159 3 -203 15 -220 15 -21 278 -133 313 -133 29 0 60 28 67 60 11 52 -12 73 -134 121 l-111 44 0 163 c0 160 0 163 -25 187 -13 14 -36 25 -50 25 -14 0 -37 -11 -50 -25z" transform="translate(0.000000,160.000000) scale(0.100000,-0.100000)"/></g></svg>