<svg xmlns="http://www.w3.org/2000/svg" width="213.333" height="213.333" preserveAspectRatio="xMidYMid meet" version="1.0" viewBox="0 0 160 160"><metadata>Created by potrace 1.14, written by Peter Selinger 2001-2017</metadata><g fill="#000" stroke="none"><path d="M105 1584 c-47 -24 -84 -65 -96 -104 -6 -23 -9 -265 -7 -702 l3 -666 30 -38 c64 -78 18 -74 765 -74 747 0 701 -4 765 74 l30 38 0 688 0 688 -30 38 c-64 78 -18 74 -765 74 -582 0 -669 -2 -695 -16z m1340 -784 l0 -645 -645 0 -645 0 -3 635 c-1 349 0 641 3 648 3 10 138 12 647 10 l643 -3 0 -645z" transform="translate(0.000000,160.000000) scale(0.100000,-0.100000)"/><path d="M468 952 c-154 -156 -154 -146 -10 -294 59 -60 119 -116 134 -124 52 -27 108 8 108 68 0 22 -19 48 -82 113 l-81 85 76 78 c42 43 79 91 83 106 10 42 -22 80 -71 84 -37 3 -42 -1 -157 -116z" transform="translate(0.000000,160.000000) scale(0.100000,-0.100000)"/><path d="M920 1048 c-38 -41 -27 -71 62 -163 l81 -85 -81 -84 c-65 -66 -82 -90 -82 -113 0 -61 55 -96 108 -69 15 8 75 64 135 124 143 147 143 138 -11 293 -108 109 -120 119 -154 119 -25 0 -44 -7 -58 -22z" transform="translate(0.000000,160.000000) scale(0.100000,-0.100000)"/></g></svg>