<svg xmlns="http://www.w3.org/2000/svg" width="213.333" height="213.333" preserveAspectRatio="xMidYMid meet" version="1.0" viewBox="0 0 160 160"><metadata>Created by potrace 1.14, written by Peter Selinger 2001-2017</metadata><g fill="#000" stroke="none"><path d="M105 1484 c-16 -8 -41 -25 -54 -37 -50 -47 -51 -53 -51 -549 0 -520 -3 -500 74 -563 35 -28 45 -30 132 -33 l94 -4 0 -89 c0 -54 6 -103 14 -123 26 -62 92 -95 164 -81 30 5 64 33 182 150 l145 144 342 3 341 3 38 30 c77 63 75 41 72 577 l-3 476 -30 38 c-64 78 -18 74 -765 74 -583 0 -669 -2 -695 -16z m1340 -584 l0 -445 -352 -5 -353 -5 -145 -145 -145 -145 0 122 c0 168 2 166 -167 173 l-128 5 -3 435 c-1 239 0 441 3 448 3 10 138 12 647 10 l643 -3 0 -445z" transform="translate(0.000000,160.000000) scale(0.100000,-0.100000)"/><path d="M468 1051 c-156 -157 -156 -145 0 -303 115 -115 120 -119 157 -116 49 4 81 42 71 84 -4 15 -41 63 -83 106 l-76 78 81 85 c63 65 82 91 82 113 0 41 -33 72 -78 72 -34 0 -46 -10 -154 -119z" transform="translate(0.000000,160.000000) scale(0.100000,-0.100000)"/><path d="M920 1148 c-38 -41 -27 -71 62 -163 l81 -85 -76 -78 c-42 -43 -79 -91 -83 -106 -10 -42 22 -80 71 -84 37 -3 42 1 157 116 156 158 156 146 0 303 -108 109 -120 119 -154 119 -25 0 -44 -7 -58 -22z" transform="translate(0.000000,160.000000) scale(0.100000,-0.100000)"/></g></svg>