<?xml version="1.0" standalone="no"?>
<!DOCTYPE svg PUBLIC "-//W3C//DTD SVG 20010904//EN"
 "http://www.w3.org/TR/2001/REC-SVG-20010904/DTD/svg10.dtd">
<svg version="1.0" xmlns="http://www.w3.org/2000/svg"
 width="160.000000pt" height="160.000000pt" viewBox="0 0 160.000000 160.000000"
 preserveAspectRatio="xMidYMid meet">
<metadata>
Created by potrace 1.14, written by Peter Selinger 2001-2017
</metadata>
<g transform="translate(0.000000,160.000000) scale(0.100000,-0.100000)"
fill="#000000" stroke="none">
<path d="M264 1069 c-218 -217 -234 -236 -234 -269 0 -33 16 -52 233 -268 201
-200 237 -232 263 -232 38 0 74 36 74 75 0 24 -32 61 -197 227 l-197 198 198
199 c193 194 199 201 192 233 -8 41 -23 56 -64 64 -33 7 -39 1 -268 -227z"/>
<path d="M1022 1277 c-47 -50 -38 -65 175 -279 l197 -198 -197 -198 c-169
-170 -197 -202 -197 -228 0 -38 36 -74 75 -74 24 0 66 37 262 232 217 216 233
235 233 268 0 33 -16 52 -233 268 -201 200 -237 232 -263 232 -19 0 -39 -9
-52 -23z"/>
</g>
</svg>
