<?xml version="1.0" standalone="no"?>
<!DOCTYPE svg PUBLIC "-//W3C//DTD SVG 20010904//EN"
 "http://www.w3.org/TR/2001/REC-SVG-20010904/DTD/svg10.dtd">
<svg version="1.0" xmlns="http://www.w3.org/2000/svg"
 width="160.000000pt" height="160.000000pt" viewBox="0 0 160.000000 160.000000"
 preserveAspectRatio="xMidYMid meet">
<metadata>
Created by potrace 1.14, written by Peter Selinger 2001-2017
</metadata>
<g transform="translate(0.000000,160.000000) scale(0.100000,-0.100000)"
fill="#000000" stroke="none">
<path d="M712 1205 c-145 -32 -260 -143 -297 -285 l-11 -45 -187 -5 c-159 -4
-189 -8 -204 -22 -13 -14 -15 -23 -7 -45 l9 -28 194 -5 194 -5 14 -55 c7 -30
24 -73 38 -95 34 -58 117 -132 183 -163 50 -24 69 -27 162 -27 93 0 112 3 162
27 108 50 194 151 222 260 l13 53 188 3 c118 1 193 7 202 13 7 7 13 22 13 34
0 44 -21 50 -218 55 l-184 5 -18 57 c-62 202 -264 319 -468 273z m214 -119
c61 -28 115 -82 146 -145 34 -69 32 -187 -4 -257 -54 -102 -154 -164 -268
-164 -114 0 -214 62 -268 164 -36 70 -38 188 -4 257 75 152 245 214 398 145z"/>
</g>
</svg>
