<?xml version="1.0" standalone="no"?>
<!DOCTYPE svg PUBLIC "-//W3C//DTD SVG 20010904//EN"
 "http://www.w3.org/TR/2001/REC-SVG-20010904/DTD/svg10.dtd">
<svg version="1.0" xmlns="http://www.w3.org/2000/svg"
 width="160.000000pt" height="160.000000pt" viewBox="0 0 160.000000 160.000000"
 preserveAspectRatio="xMidYMid meet">
<metadata>
Created by potrace 1.14, written by Peter Selinger 2001-2017
</metadata>
<g transform="translate(0.000000,160.000000) scale(0.100000,-0.100000)"
fill="#000000" stroke="none">
<path d="M105 1484 c-16 -8 -41 -25 -54 -37 -48 -45 -51 -64 -51 -399 0 -286
2 -316 19 -348 28 -52 82 -91 135 -97 l46 -6 0 -89 c0 -53 6 -102 14 -122 17
-41 58 -74 101 -82 70 -13 92 1 245 152 l145 143 192 3 191 3 38 30 c75 62 75
59 72 427 l-3 326 -30 38 c-63 77 -43 74 -565 74 -402 0 -469 -2 -495 -16z
m940 -434 l0 -295 -202 -5 -203 -5 -145 -145 -145 -145 0 122 c0 158 -5 166
-117 173 l-78 5 -3 285 c-1 157 0 290 3 297 3 11 96 13 447 11 l443 -3 0 -295z"/>
<path d="M1326 1277 c-31 -31 -33 -66 -7 -98 14 -17 32 -25 72 -29 l54 -5 0
-295 0 -295 -78 -5 c-112 -7 -117 -15 -117 -173 l0 -121 -123 122 c-136 134
-161 146 -205 99 -45 -48 -34 -69 115 -219 146 -147 177 -167 246 -154 45 8
86 41 103 82 8 20 14 69 14 122 l0 89 46 6 c53 6 107 45 135 97 17 32 19 62
19 350 0 354 0 355 -74 414 -31 26 -48 31 -106 34 -63 4 -71 2 -94 -21z"/>
</g>
</svg>
