<?xml version="1.0" standalone="no"?>
<!DOCTYPE svg PUBLIC "-//W3C//DTD SVG 20010904//EN"
 "http://www.w3.org/TR/2001/REC-SVG-20010904/DTD/svg10.dtd">
<svg version="1.0" xmlns="http://www.w3.org/2000/svg"
 width="160.000000pt" height="160.000000pt" viewBox="0 0 160.000000 160.000000"
 preserveAspectRatio="xMidYMid meet">
<metadata>
Created by potrace 1.14, written by Peter Selinger 2001-2017
</metadata>
<g transform="translate(0.000000,160.000000) scale(0.100000,-0.100000)"
fill="#000000" stroke="none">
<path d="M259 1383 c-58 -36 -59 -40 -59 -415 0 -368 1 -373 52 -411 30 -22
126 -35 173 -23 33 8 51 46 36 74 -10 18 -22 22 -84 24 l-72 3 0 330 0 330
330 0 330 0 3 -73 c3 -65 5 -74 26 -83 31 -14 64 3 72 37 12 46 -1 143 -23
172 -38 51 -43 52 -413 52 -301 -1 -348 -3 -371 -17z"/>
<path d="M600 1052 c-68 -33 -70 -47 -70 -415 0 -349 3 -370 50 -412 21 -19
38 -20 373 -23 249 -2 359 1 379 9 15 6 37 26 48 44 20 32 21 46 18 388 -3
339 -4 356 -23 377 -42 47 -63 50 -412 50 -292 0 -332 -2 -363 -18z m695 -417
l0 -330 -330 0 -330 0 -3 320 c-1 176 0 326 3 333 3 10 74 12 332 10 l328 -3
0 -330z"/>
</g>
</svg>
