<?xml version="1.0" standalone="no"?>
<!DOCTYPE svg PUBLIC "-//W3C//DTD SVG 20010904//EN"
 "http://www.w3.org/TR/2001/REC-SVG-20010904/DTD/svg10.dtd">
<svg version="1.0" xmlns="http://www.w3.org/2000/svg"
 width="160.000000pt" height="160.000000pt" viewBox="0 0 160.000000 160.000000"
 preserveAspectRatio="xMidYMid meet">
<metadata>
Created by potrace 1.14, written by Peter Selinger 2001-2017
</metadata>
<g transform="translate(0.000000,160.000000) scale(0.100000,-0.100000)"
fill="#000000" stroke="none">
<path d="M525 1575 c-22 -21 -25 -33 -25 -99 l0 -74 -94 -4 c-88 -3 -97 -5
-133 -34 -57 -46 -73 -85 -73 -181 l0 -83 -75 0 c-67 0 -79 -3 -100 -25 -32
-31 -32 -69 0 -100 21 -22 33 -25 100 -25 l75 0 0 -150 0 -150 -75 0 c-67 0
-79 -3 -100 -25 -32 -31 -32 -69 0 -100 21 -22 33 -25 99 -25 l74 0 4 -94 c3
-87 5 -97 33 -132 48 -58 86 -74 182 -74 l83 0 0 -75 c0 -67 3 -79 25 -100 13
-14 36 -25 50 -25 14 0 37 11 50 25 22 21 25 33 25 100 l0 75 150 0 150 0 0
-75 c0 -67 3 -79 25 -100 31 -32 69 -32 100 0 22 21 25 33 25 100 l0 75 83 0
c96 0 134 16 182 74 28 35 30 45 33 132 l4 94 74 0 c66 0 78 3 99 25 14 13 25
36 25 50 0 14 -11 37 -25 50 -21 22 -33 25 -100 25 l-75 0 0 150 0 150 75 0
c67 0 79 3 100 25 32 31 32 69 0 100 -21 22 -33 25 -100 25 l-75 0 0 83 c0 96
-16 134 -74 182 -35 28 -45 30 -132 33 l-94 4 0 74 c0 66 -3 78 -25 99 -13 14
-36 25 -50 25 -14 0 -37 -11 -50 -25 -22 -21 -25 -33 -25 -100 l0 -75 -150 0
-150 0 0 75 c0 67 -3 79 -25 100 -13 14 -36 25 -50 25 -14 0 -37 -11 -50 -25z
m720 -775 l0 -445 -445 0 -445 0 -3 435 c-1 239 0 441 3 448 3 10 98 12 447
10 l443 -3 0 -445z"/>
<path d="M525 1075 l-25 -24 0 -251 0 -251 25 -24 24 -25 251 0 251 0 24 25
25 24 0 251 0 251 -25 24 -24 25 -251 0 -251 0 -24 -25z m425 -275 l0 -150
-150 0 -150 0 0 150 0 150 150 0 150 0 0 -150z"/>
</g>
</svg>
