<svg xmlns="http://www.w3.org/2000/svg" width="213.333" height="213.333" preserveAspectRatio="xMidYMid meet" version="1.0" viewBox="0 0 160 160"><metadata>Created by potrace 1.14, written by Peter Selinger 2001-2017</metadata><g fill="#000" stroke="none"><path d="M105 1384 c-47 -24 -84 -65 -96 -104 -6 -22 -9 -201 -7 -502 l3 -466 30 -38 c64 -78 18 -74 765 -74 747 0 701 -4 765 74 l30 38 0 488 0 488 -30 38 c-64 78 -18 74 -765 74 -582 0 -669 -2 -695 -16z m1343 -211 l3 -73 -651 0 -650 0 0 68 c0 38 3 72 7 75 3 4 295 6 647 5 l641 -3 3 -72z m0 -520 l-3 -298 -645 0 -645 0 -3 298 -2 297 650 0 650 0 -2 -297z" transform="translate(0.000000,160.000000) scale(0.100000,-0.100000)"/><path d="M1025 675 c-14 -13 -25 -36 -25 -50 0 -14 11 -37 25 -50 22 -23 31 -25 125 -25 94 0 103 2 125 25 32 31 32 69 0 100 -22 23 -31 25 -125 25 -94 0 -103 -2 -125 -25z" transform="translate(0.000000,160.000000) scale(0.100000,-0.100000)"/></g></svg>