<?xml version="1.0" standalone="no"?>
<!DOCTYPE svg PUBLIC "-//W3C//DTD SVG 20010904//EN"
 "http://www.w3.org/TR/2001/REC-SVG-20010904/DTD/svg10.dtd">
<svg version="1.0" xmlns="http://www.w3.org/2000/svg"
 width="160.000000pt" height="160.000000pt" viewBox="0 0 160.000000 160.000000"
 preserveAspectRatio="xMidYMid meet">
<metadata>
Created by potrace 1.14, written by Peter Selinger 2001-2017
</metadata>
<g transform="translate(0.000000,160.000000) scale(0.100000,-0.100000)"
fill="#000000" stroke="none">
<path d="M1144 1485 c-6 -15 118 -165 137 -165 27 0 -9 -42 -186 -220 -167
-168 -195 -200 -195 -226 0 -38 36 -74 75 -74 24 0 61 32 225 195 107 107 200
195 206 195 6 0 43 -34 83 -76 108 -112 106 -114 106 156 l0 225 -223 3 c-192
2 -223 0 -228 -13z"/>
<path d="M205 1384 c-16 -8 -41 -25 -54 -37 -50 -46 -51 -57 -51 -499 0 -464
-2 -451 74 -513 35 -28 45 -30 132 -33 l94 -4 0 -89 c0 -54 6 -103 14 -123 17
-41 58 -74 103 -82 68 -13 99 7 248 156 l140 140 230 0 c259 0 272 3 330 74
l30 38 3 169 3 169 -25 25 c-30 30 -65 32 -97 6 -23 -18 -24 -26 -29 -173 l-5
-153 -252 -5 -253 -5 -145 -145 -145 -145 0 122 c0 168 2 166 -167 173 l-128
5 0 395 0 395 303 5 304 5 19 24 c26 32 24 67 -6 96 l-24 25 -308 0 c-260 0
-313 -3 -338 -16z"/>
</g>
</svg>
