<svg xmlns="http://www.w3.org/2000/svg" width="213.333" height="213.333" preserveAspectRatio="xMidYMid meet" version="1.0" viewBox="0 0 160 160"><metadata>Created by potrace 1.14, written by Peter Selinger 2001-2017</metadata><g fill="#000" stroke="none"><path d="M616 1589 c-195 -25 -363 -95 -446 -185 -27 -30 -54 -72 -60 -92 -14 -50 -14 -974 0 -1024 6 -20 33 -62 60 -92 238 -259 1021 -260 1258 -1 28 31 56 72 62 93 14 50 14 974 0 1024 -6 21 -34 62 -62 93 -134 147 -484 226 -812 184z m349 -149 c103 -15 182 -37 258 -72 70 -33 127 -85 127 -118 0 -56 -111 -125 -269 -168 -87 -23 -114 -25 -281 -25 -168 0 -194 2 -283 26 -153 41 -267 112 -267 167 0 53 120 130 256 165 133 34 323 44 459 25z m-643 -449 c263 -120 693 -120 956 0 36 16 66 29 68 29 2 0 4 -54 4 -119 0 -114 -1 -121 -26 -151 -36 -42 -128 -87 -243 -118 -87 -23 -114 -25 -281 -25 -168 0 -194 2 -283 26 -110 29 -207 77 -243 119 -22 28 -24 37 -24 149 0 65 2 119 4 119 2 0 32 -13 68 -29z m0 -450 c263 -120 693 -120 956 0 36 16 66 29 68 29 2 0 4 -54 4 -119 0 -114 -1 -121 -26 -151 -36 -42 -128 -87 -243 -118 -87 -23 -114 -25 -281 -25 -167 0 -194 2 -281 25 -115 31 -207 76 -243 118 -25 30 -26 37 -26 151 0 65 2 119 4 119 2 0 32 -13 68 -29z" transform="translate(0.000000,160.000000) scale(0.100000,-0.100000)"/></g></svg>