<svg xmlns="http://www.w3.org/2000/svg" width="213.333" height="213.333" preserveAspectRatio="xMidYMid meet" version="1.0" viewBox="0 0 160 160"><metadata>Created by potrace 1.14, written by Peter Selinger 2001-2017</metadata><g fill="#000" stroke="none"><path d="M757 1586 c-30 -23 -37 -74 -37 -283 l0 -203 -110 0 c-92 0 -112 -3 -117 -16 -4 -11 39 -61 151 -172 l156 -157 156 157 c112 111 155 161 151 172 -5 13 -25 16 -117 16 l-110 0 0 203 c0 209 -7 260 -37 283 -23 17 -63 17 -86 0z" transform="translate(0.000000,160.000000) scale(0.100000,-0.100000)"/><path d="M105 1484 c-16 -8 -41 -25 -54 -37 -50 -46 -51 -57 -51 -499 0 -464 -2 -451 74 -513 l38 -30 219 -3 218 -3 -6 -32 c-12 -66 -45 -138 -93 -204 -56 -76 -61 -103 -25 -138 l24 -25 351 0 351 0 24 25 c36 35 31 62 -25 138 -48 66 -81 138 -93 204 l-6 32 218 3 219 3 38 30 c76 62 74 49 74 515 0 466 2 453 -74 515 l-38 30 -194 3 -194 3 -25 -25 c-30 -30 -32 -65 -6 -97 19 -23 25 -24 198 -29 l178 -5 0 -395 0 -395 -645 0 -645 0 0 395 0 395 178 5 c173 5 179 6 198 29 26 32 24 67 -6 96 -24 25 -26 25 -207 25 -146 0 -189 -3 -213 -16z m800 -1121 c11 -62 33 -135 54 -175 l19 -38 -178 0 -178 0 25 52 c20 42 52 157 53 191 0 4 45 7 100 7 l99 0 6 -37z" transform="translate(0.000000,160.000000) scale(0.100000,-0.100000)"/></g></svg>