<?xml version="1.0" standalone="no"?>
<!DOCTYPE svg PUBLIC "-//W3C//DTD SVG 20010904//EN"
 "http://www.w3.org/TR/2001/REC-SVG-20010904/DTD/svg10.dtd">
<svg version="1.0" xmlns="http://www.w3.org/2000/svg"
 width="160.000000pt" height="160.000000pt" viewBox="0 0 160.000000 160.000000"
 preserveAspectRatio="xMidYMid meet">
<metadata>
Created by potrace 1.14, written by Peter Selinger 2001-2017
</metadata>
<g transform="translate(0.000000,160.000000) scale(0.100000,-0.100000)"
fill="#000000" stroke="none">
<path d="M148 1385 c-15 -8 -32 -30 -39 -49 -8 -23 -22 -37 -46 -45 -64 -23
-63 -19 -63 -540 0 -343 3 -477 12 -496 26 -56 5 -55 788 -55 783 0 762 -1
788 55 19 41 17 957 -2 994 -26 50 -36 51 -474 51 l-408 0 -13 35 c-22 61 -42
65 -293 65 -176 -1 -229 -4 -250 -15z m452 -235 l0 -50 -200 0 -200 0 0 50 0
50 200 0 200 0 0 -50z m604 -89 c75 -37 128 -91 165 -170 22 -47 26 -70 26
-141 0 -76 -4 -93 -33 -152 -38 -77 -92 -130 -171 -167 -47 -22 -70 -26 -141
-26 -71 0 -94 4 -141 26 -79 37 -133 90 -171 167 -29 59 -33 76 -33 152 0 71
4 94 26 140 87 186 293 260 473 171z"/>
<path d="M961 983 c-88 -31 -161 -136 -161 -233 0 -132 118 -250 250 -250 60
0 130 30 175 75 188 188 -12 497 -264 408z"/>
</g>
</svg>
