<?xml version="1.0" standalone="no"?>
<!DOCTYPE svg PUBLIC "-//W3C//DTD SVG 20010904//EN"
 "http://www.w3.org/TR/2001/REC-SVG-20010904/DTD/svg10.dtd">
<svg version="1.0" xmlns="http://www.w3.org/2000/svg"
 width="160.000000pt" height="160.000000pt" viewBox="0 0 160.000000 160.000000"
 preserveAspectRatio="xMidYMid meet">
<metadata>
Created by potrace 1.14, written by Peter Selinger 2001-2017
</metadata>
<g transform="translate(0.000000,160.000000) scale(0.100000,-0.100000)"
fill="#000000" stroke="none">
<path d="M105 1284 c-47 -24 -84 -65 -96 -104 -6 -22 -9 -169 -7 -402 l3 -366
30 -38 c62 -76 49 -74 515 -74 465 0 453 -2 514 73 23 30 31 50 35 102 l6 65
200 -120 c110 -66 210 -120 223 -120 13 0 34 11 47 25 l25 24 0 451 0 451 -25
24 c-13 14 -34 25 -47 25 -13 0 -113 -54 -223 -120 l-200 -120 -6 65 c-4 52
-12 72 -35 102 -61 75 -49 73 -514 73 -356 0 -419 -2 -445 -16z m840 -484 l0
-345 -395 0 -395 0 -3 335 c-1 184 0 341 3 348 3 10 87 12 397 10 l393 -3 0
-345z m503 -144 l-3 -144 -172 102 -172 101 0 85 0 85 172 101 172 102 3 -144
c1 -79 1 -209 0 -288z"/>
</g>
</svg>
