<svg xmlns="http://www.w3.org/2000/svg" width="213.333" height="213.333" preserveAspectRatio="xMidYMid meet" version="1.0" viewBox="0 0 160 160"><metadata>Created by potrace 1.14, written by Peter Selinger 2001-2017</metadata><g fill="#000" stroke="none"><path d="M105 1484 c-16 -8 -41 -25 -54 -37 -50 -46 -51 -57 -51 -499 0 -464 -2 -451 74 -513 l38 -30 219 -3 218 -3 -6 -32 c-12 -66 -45 -138 -93 -204 -56 -76 -61 -103 -25 -138 l24 -25 351 0 351 0 24 25 c36 35 31 62 -25 138 -48 66 -81 138 -93 204 l-6 32 218 3 219 3 38 30 c77 63 75 47 72 527 l-3 426 -30 38 c-64 78 -18 74 -765 74 -583 0 -669 -2 -695 -16z m1340 -534 l0 -395 -645 0 -645 0 -3 385 c-1 212 0 391 3 398 3 10 138 12 647 10 l643 -3 0 -395z m-540 -587 c11 -62 33 -135 54 -175 l19 -38 -178 0 -178 0 25 52 c20 42 52 157 53 191 0 4 45 7 100 7 l99 0 6 -37z" transform="translate(0.000000,160.000000) scale(0.100000,-0.100000)"/></g></svg>