<?xml version="1.0" standalone="no"?>
<!DOCTYPE svg PUBLIC "-//W3C//DTD SVG 20010904//EN"
 "http://www.w3.org/TR/2001/REC-SVG-20010904/DTD/svg10.dtd">
<svg version="1.0" xmlns="http://www.w3.org/2000/svg"
 width="160.000000pt" height="160.000000pt" viewBox="0 0 160.000000 160.000000"
 preserveAspectRatio="xMidYMid meet">
<metadata>
Created by potrace 1.14, written by Peter Selinger 2001-2017
</metadata>
<g transform="translate(0.000000,160.000000) scale(0.100000,-0.100000)"
fill="#000000" stroke="none">
<path d="M757 1486 c-29 -22 -37 -72 -37 -233 l0 -153 -173 0 c-161 0 -175 -1
-195 -20 -30 -28 -30 -82 0 -110 20 -19 34 -20 195 -20 l173 0 0 -153 c0 -202
14 -246 80 -246 66 0 80 44 80 246 l0 153 173 0 c161 0 175 1 195 20 30 28 30
82 0 110 -20 19 -34 20 -195 20 l-173 0 0 153 c0 161 -8 211 -37 233 -23 17
-63 17 -86 0z"/>
<path d="M352 280 c-14 -14 -22 -33 -22 -55 0 -22 8 -41 22 -55 21 -19 33 -20
448 -20 415 0 427 1 448 20 30 28 30 82 0 110 -21 19 -33 20 -448 20 -415 0
-427 -1 -448 -20z"/>
</g>
</svg>
