<?xml version="1.0" standalone="no"?>
<!DOCTYPE svg PUBLIC "-//W3C//DTD SVG 20010904//EN"
 "http://www.w3.org/TR/2001/REC-SVG-20010904/DTD/svg10.dtd">
<svg version="1.0" xmlns="http://www.w3.org/2000/svg"
 width="160.000000pt" height="160.000000pt" viewBox="0 0 160.000000 160.000000"
 preserveAspectRatio="xMidYMid meet">
<metadata>
Created by potrace 1.14, written by Peter Selinger 2001-2017
</metadata>
<g transform="translate(0.000000,160.000000) scale(0.100000,-0.100000)"
fill="#000000" stroke="none">
<path d="M205 1484 c-47 -24 -84 -65 -96 -104 -6 -23 -9 -233 -7 -602 l3 -566
30 -38 c64 -78 31 -74 665 -74 634 0 601 -4 665 74 l30 38 0 588 0 588 -30 38
c-64 78 -31 74 -665 74 -492 0 -569 -2 -595 -16z m1140 -684 l0 -545 -545 0
-545 0 -3 535 c-1 294 0 541 3 548 3 10 118 12 547 10 l543 -3 0 -545z"/>
<path d="M757 1186 c-28 -21 -37 -71 -37 -198 l0 -118 -140 0 c-130 0 -141 -1
-160 -22 -23 -25 -26 -65 -6 -90 22 -30 64 -38 187 -38 l119 0 0 -113 c0 -160
18 -206 80 -206 62 0 80 46 80 206 l0 113 119 0 c123 0 165 8 187 38 20 25 17
65 -6 90 -19 21 -30 22 -160 22 l-140 0 0 118 c0 127 -9 177 -37 198 -23 17
-63 17 -86 0z"/>
</g>
</svg>
