<svg xmlns="http://www.w3.org/2000/svg" width="213.333" height="213.333" preserveAspectRatio="xMidYMid meet" version="1.0" viewBox="0 0 160 160"><metadata>Created by potrace 1.14, written by Peter Selinger 2001-2017</metadata><g fill="#000" stroke="none"><path d="M205 1484 c-47 -24 -84 -65 -96 -104 -6 -23 -9 -233 -7 -602 l3 -566 30 -38 c64 -78 31 -74 665 -74 634 0 601 -4 665 74 l30 38 0 588 0 588 -30 38 c-64 78 -31 74 -665 74 -492 0 -569 -2 -595 -16z m1140 -684 l0 -545 -545 0 -545 0 -3 535 c-1 294 0 541 3 548 3 10 118 12 547 10 l543 -3 0 -545z" transform="translate(0.000000,160.000000) scale(0.100000,-0.100000)"/><path d="M756 1179 c-19 -15 -26 -29 -26 -56 0 -32 11 -47 107 -144 l107 -109 -252 0 c-246 0 -252 0 -272 -22 -37 -40 -21 -97 34 -118 16 -6 121 -10 254 -10 l227 0 -97 -97 c-53 -54 -101 -108 -107 -120 -25 -48 14 -103 73 -103 25 0 58 28 213 183 164 164 183 187 183 216 0 30 -18 52 -167 203 -204 207 -224 219 -277 177z" transform="translate(0.000000,160.000000) scale(0.100000,-0.100000)"/></g></svg>