<svg xmlns="http://www.w3.org/2000/svg" width="213.333" height="213.333" preserveAspectRatio="xMidYMid meet" version="1.0" viewBox="0 0 160 160"><metadata>Created by potrace 1.14, written by Peter Selinger 2001-2017</metadata><g fill="#000" stroke="none"><path d="M757 1486 c-10 -8 -22 -29 -27 -47 -6 -19 -10 -178 -10 -353 l0 -320 -129 128 c-124 122 -131 127 -167 124 -48 -4 -80 -43 -70 -85 5 -18 76 -97 210 -230 183 -183 206 -203 236 -203 30 0 53 20 236 203 134 133 205 212 210 230 10 42 -22 81 -70 85 -36 3 -43 -2 -167 -124 l-129 -128 0 320 c0 175 -4 334 -10 353 -16 56 -71 79 -113 47z" transform="translate(0.000000,160.000000) scale(0.100000,-0.100000)"/><path d="M325 275 c-14 -13 -25 -36 -25 -50 0 -14 11 -37 25 -50 l24 -25 451 0 451 0 24 25 c32 31 32 69 0 100 l-24 25 -451 0 -451 0 -24 -25z" transform="translate(0.000000,160.000000) scale(0.100000,-0.100000)"/></g></svg>