<svg xmlns="http://www.w3.org/2000/svg" width="213.333" height="213.333" preserveAspectRatio="xMidYMid meet" version="1.0" viewBox="0 0 160 160"><metadata>Created by potrace 1.14, written by Peter Selinger 2001-2017</metadata><g fill="#000" stroke="none"><path d="M105 1184 c-47 -24 -84 -65 -96 -104 -6 -22 -9 -136 -7 -302 l3 -266 30 -38 c64 -78 18 -74 765 -74 747 0 701 -4 765 74 l30 38 0 288 0 288 -30 38 c-64 78 -18 74 -765 74 -582 0 -669 -2 -695 -16z m344 -298 c67 -35 65 -143 -4 -174 -51 -23 -107 -7 -131 39 -47 91 44 182 135 135z m400 0 c67 -35 65 -143 -4 -174 -91 -41 -179 51 -131 137 26 47 84 63 135 37z m400 0 c67 -35 65 -143 -4 -174 -91 -41 -179 51 -131 137 26 47 84 63 135 37z" transform="translate(0.000000,160.000000) scale(0.100000,-0.100000)"/></g></svg>