<svg xmlns="http://www.w3.org/2000/svg" width="213.333" height="213.333" preserveAspectRatio="xMidYMid meet" version="1.0" viewBox="0 0 160 160"><metadata>Created by potrace 1.14, written by Peter Selinger 2001-2017</metadata><g fill="#000" stroke="none"><path d="M725 1364 c-61 -9 -170 -37 -212 -55 -36 -15 -43 -23 -43 -47 0 -55 32 -64 116 -33 173 66 392 40 568 -66 104 -64 273 -240 325 -340 14 -27 4 -50 -58 -132 -56 -75 -53 -121 9 -121 21 0 36 13 71 63 102 140 108 168 58 251 -112 181 -285 340 -451 415 -109 49 -284 79 -383 65z" transform="translate(0.000000,160.000000) scale(0.100000,-0.100000)"/><path d="M82 1318 c-13 -13 -16 -47 -4 -64 4 -5 42 -34 85 -64 42 -29 77 -57 77 -61 0 -5 -6 -12 -14 -16 -25 -15 -118 -127 -167 -202 -65 -98 -65 -123 -1 -220 98 -148 228 -275 361 -352 248 -143 531 -139 781 11 l81 49 91 -65 c95 -67 130 -77 151 -43 24 39 0 62 -256 241 -138 97 -449 317 -691 488 -252 178 -448 310 -460 310 -12 0 -27 -5 -34 -12z m373 -335 l124 -87 -6 -66 c-4 -42 -1 -81 7 -105 16 -50 75 -114 125 -136 70 -32 185 -20 235 26 14 13 30 5 134 -70 l118 -84 -44 -27 c-68 -43 -176 -81 -266 -94 -217 -29 -428 55 -608 242 -71 74 -164 198 -164 218 0 27 195 270 217 270 2 0 60 -39 128 -87z" transform="translate(0.000000,160.000000) scale(0.100000,-0.100000)"/></g></svg>