<?xml version="1.0" standalone="no"?>
<!DOCTYPE svg PUBLIC "-//W3C//DTD SVG 20010904//EN"
 "http://www.w3.org/TR/2001/REC-SVG-20010904/DTD/svg10.dtd">
<svg version="1.0" xmlns="http://www.w3.org/2000/svg"
 width="160.000000pt" height="160.000000pt" viewBox="0 0 160.000000 160.000000"
 preserveAspectRatio="xMidYMid meet">
<metadata>
Created by potrace 1.14, written by Peter Selinger 2001-2017
</metadata>
<g transform="translate(0.000000,160.000000) scale(0.100000,-0.100000)"
fill="#000000" stroke="none">
<path d="M25 1375 c-26 -25 -31 -54 -15 -85 5 -10 55 -50 110 -90 55 -39 100
-76 100 -82 0 -6 -23 -35 -50 -65 -28 -31 -72 -85 -98 -121 -45 -63 -47 -70
-47 -132 0 -62 2 -69 47 -130 202 -282 452 -451 689 -467 138 -10 283 32 418
121 l78 52 123 -88 c132 -95 161 -105 198 -65 28 30 28 69 0 100 -13 14 -156
120 -318 238 -325 234 -501 361 -720 521 -369 268 -443 318 -466 318 -14 0
-36 -11 -49 -25z m468 -445 l104 -75 6 -64 c4 -48 12 -73 33 -104 51 -72 148
-103 232 -74 l42 15 103 -74 c56 -41 102 -80 102 -86 0 -19 -136 -86 -207
-103 -85 -19 -145 -19 -221 1 -115 30 -209 87 -329 202 -82 78 -188 209 -188
232 0 17 70 110 134 178 43 46 51 51 67 40 10 -7 65 -47 122 -88z"/>
<path d="M671 1385 c-76 -17 -109 -37 -117 -71 -16 -63 38 -105 108 -85 200
60 408 -17 609 -225 82 -86 159 -184 159 -203 0 -7 -11 -29 -25 -49 -32 -46
-32 -76 0 -107 34 -35 71 -32 110 9 82 88 87 174 13 277 -249 348 -571 519
-857 454z"/>
</g>
</svg>
