<svg xmlns="http://www.w3.org/2000/svg" width="213.333" height="213.333" preserveAspectRatio="xMidYMid meet" version="1.0" viewBox="0 0 160 160"><metadata>Created by potrace 1.14, written by Peter Selinger 2001-2017</metadata><g fill="#000" stroke="none"><path d="M651 1380 c-197 -53 -389 -197 -552 -413 -74 -98 -82 -117 -77 -183 4 -40 13 -64 46 -110 152 -214 355 -380 540 -440 75 -25 102 -29 197 -28 91 0 124 5 190 27 181 60 382 225 534 437 43 61 46 68 46 130 0 62 -3 69 -46 130 -154 215 -354 378 -534 436 -111 36 -243 41 -344 14z m262 -146 c122 -31 238 -106 358 -230 84 -88 159 -184 159 -204 0 -39 -196 -254 -295 -325 -154 -110 -305 -147 -442 -111 -121 32 -215 90 -335 204 -82 79 -188 209 -188 232 0 41 209 267 313 339 143 98 292 131 430 95z" transform="translate(0.000000,160.000000) scale(0.100000,-0.100000)"/><path d="M732 989 c-48 -14 -109 -80 -123 -131 -23 -89 12 -182 88 -229 57 -36 154 -34 210 3 62 41 88 90 88 168 0 77 -26 127 -85 166 -43 29 -125 39 -178 23z" transform="translate(0.000000,160.000000) scale(0.100000,-0.100000)"/></g></svg>