<svg xmlns="http://www.w3.org/2000/svg" width="213.333" height="213.333" preserveAspectRatio="xMidYMid meet" version="1.0" viewBox="0 0 160 160"><metadata>Created by potrace 1.14, written by Peter Selinger 2001-2017</metadata><g fill="#000" stroke="none"><path d="M505 1584 c-89 -46 -105 -86 -105 -254 0 -126 1 -132 25 -155 29 -30 64 -32 96 -6 22 18 24 28 29 148 l5 128 222 3 222 2 3 -169 3 -169 30 -38 c55 -67 79 -74 257 -74 l158 0 -2 -372 -3 -373 -478 -5 -479 -5 -19 -24 c-26 -32 -24 -67 6 -96 l24 -25 483 0 c542 0 520 -3 583 74 l30 38 3 466 c2 331 0 479 -8 507 -9 31 -47 76 -178 209 -103 103 -182 176 -207 187 -36 17 -69 19 -355 19 -266 0 -320 -3 -345 -16z m803 -432 c-73 -1 -138 0 -145 2 -10 4 -13 40 -13 148 l0 143 145 -145 145 -145 -132 -3z" transform="translate(0.000000,160.000000) scale(0.100000,-0.100000)"/><path d="M105 985 c-93 -50 -105 -83 -105 -287 0 -184 7 -208 74 -263 l38 -30 138 0 138 0 38 30 c68 55 74 78 74 265 0 187 -6 210 -74 265 -37 29 -40 30 -164 33 -101 2 -133 -1 -157 -13z m240 -285 l0 -145 -95 0 -95 0 -3 134 c-1 74 0 141 3 148 3 11 27 13 97 11 l93 -3 0 -145z" transform="translate(0.000000,160.000000) scale(0.100000,-0.100000)"/><path d="M625 975 c-14 -13 -25 -36 -25 -50 0 -14 11 -37 25 -50 19 -20 34 -25 75 -25 l50 0 0 -150 0 -150 -50 0 c-41 0 -56 -5 -75 -25 -32 -31 -32 -69 0 -100 24 -25 27 -25 200 -25 173 0 176 0 200 25 14 13 25 36 25 50 0 14 -11 37 -25 50 -19 20 -34 25 -75 25 l-50 0 0 200 c0 200 0 201 -25 225 -22 23 -31 25 -125 25 -94 0 -103 -2 -125 -25z" transform="translate(0.000000,160.000000) scale(0.100000,-0.100000)"/></g></svg>