<svg xmlns="http://www.w3.org/2000/svg" width="213.333" height="213.333" preserveAspectRatio="xMidYMid meet" version="1.0" viewBox="0 0 160 160"><metadata>Created by potrace 1.14, written by Peter Selinger 2001-2017</metadata><g fill="#000" stroke="none"><path d="M201 1388 c-13 -7 -34 -26 -45 -41 -21 -28 -21 -36 -21 -547 0 -511 0 -519 21 -547 40 -54 26 -53 644 -53 618 0 604 -1 644 53 21 28 21 38 21 446 0 348 -2 423 -15 445 -28 54 -43 56 -369 56 l-300 0 -54 78 c-89 125 -68 117 -301 120 -147 2 -207 -1 -225 -10z" transform="translate(0.000000,160.000000) scale(0.100000,-0.100000)"/></g></svg>