<?xml version="1.0" standalone="no"?>
<!DOCTYPE svg PUBLIC "-//W3C//DTD SVG 20010904//EN"
 "http://www.w3.org/TR/2001/REC-SVG-20010904/DTD/svg10.dtd">
<svg version="1.0" xmlns="http://www.w3.org/2000/svg"
 width="160.000000pt" height="160.000000pt" viewBox="0 0 160.000000 160.000000"
 preserveAspectRatio="xMidYMid meet">
<metadata>
Created by potrace 1.14, written by Peter Selinger 2001-2017
</metadata>
<g transform="translate(0.000000,160.000000) scale(0.100000,-0.100000)"
fill="#000000" stroke="none">
<path d="M105 1485 c-47 -25 -85 -66 -96 -105 -6 -23 -9 -233 -7 -602 l3 -566
30 -38 c64 -78 18 -74 765 -74 747 0 701 -4 765 74 l30 38 3 476 c3 536 5 514
-72 577 l-38 30 -363 3 -364 3 -52 70 c-28 38 -68 82 -87 97 l-35 27 -226 3
c-191 2 -231 0 -256 -13z"/>
</g>
</svg>
