<svg xmlns="http://www.w3.org/2000/svg" width="213.333" height="213.333" preserveAspectRatio="xMidYMid meet" version="1.0" viewBox="0 0 160 160"><metadata>Created by potrace 1.14, written by Peter Selinger 2001-2017</metadata><g fill="#000" stroke="none"><path d="M105 1484 c-47 -24 -84 -65 -96 -104 -6 -23 -9 -233 -7 -602 l3 -566 30 -38 c64 -78 18 -74 765 -74 747 0 701 -4 765 74 l30 38 3 476 c3 536 5 514 -72 577 l-38 30 -376 5 -376 5 -62 80 c-87 113 -92 114 -339 115 -162 0 -206 -3 -230 -16z m984 -659 c83 -77 151 -144 151 -150 0 -16 -301 -290 -319 -290 -13 0 -16 17 -19 108 l-3 107 -225 0 -225 0 -24 25 c-32 31 -32 69 0 100 l24 25 226 0 225 0 0 103 c0 103 4 120 26 115 6 -2 79 -66 163 -143z" transform="translate(0.000000,160.000000) scale(0.100000,-0.100000)"/></g></svg>