<?xml version="1.0" standalone="no"?>
<!DOCTYPE svg PUBLIC "-//W3C//DTD SVG 20010904//EN"
 "http://www.w3.org/TR/2001/REC-SVG-20010904/DTD/svg10.dtd">
<svg version="1.0" xmlns="http://www.w3.org/2000/svg"
 width="160.000000pt" height="160.000000pt" viewBox="0 0 160.000000 160.000000"
 preserveAspectRatio="xMidYMid meet">
<metadata>
Created by potrace 1.14, written by Peter Selinger 2001-2017
</metadata>
<g transform="translate(0.000000,160.000000) scale(0.100000,-0.100000)"
fill="#000000" stroke="none">
<path d="M305 1584 c-47 -24 -84 -65 -96 -104 -6 -23 -9 -249 -7 -651 l3 -616
28 -36 c40 -53 81 -72 118 -56 54 22 64 70 24 117 l-25 30 2 589 3 588 147 3
148 3 -25 -25 c-32 -32 -32 -70 0 -101 19 -20 34 -25 75 -25 41 0 56 5 75 25
32 31 32 69 0 100 l-24 25 97 0 97 0 153 -153 152 -152 -2 -445 -3 -445 -54
-5 c-40 -4 -58 -12 -72 -29 -26 -32 -24 -67 7 -98 23 -23 31 -25 94 -21 58 3
75 8 106 34 76 62 74 43 74 562 0 393 -2 468 -15 500 -21 50 -326 358 -380
383 -36 17 -68 19 -355 19 -266 0 -320 -3 -345 -16z"/>
<path d="M825 1275 c-14 -13 -25 -36 -25 -50 0 -14 11 -37 25 -50 35 -36 115
-36 150 0 32 31 32 69 0 100 -19 20 -34 25 -75 25 -41 0 -56 -5 -75 -25z"/>
<path d="M625 1125 c-14 -13 -25 -36 -25 -50 0 -14 11 -37 25 -50 35 -36 115
-36 150 0 32 31 32 69 0 100 -19 20 -34 25 -75 25 -41 0 -56 -5 -75 -25z"/>
<path d="M825 975 c-14 -13 -25 -36 -25 -50 0 -14 11 -37 25 -50 35 -36 115
-36 150 0 32 31 32 69 0 100 -19 20 -34 25 -75 25 -41 0 -56 -5 -75 -25z"/>
<path d="M625 825 c-14 -13 -25 -36 -25 -50 0 -14 11 -37 25 -50 35 -36 115
-36 150 0 32 31 32 69 0 100 -19 20 -34 25 -75 25 -41 0 -56 -5 -75 -25z"/>
<path d="M825 675 c-14 -13 -25 -36 -25 -50 0 -14 11 -37 25 -50 35 -36 115
-36 150 0 32 31 32 69 0 100 -19 20 -34 25 -75 25 -41 0 -56 -5 -75 -25z"/>
<path d="M655 535 c-95 -51 -105 -81 -105 -305 0 -179 0 -181 25 -205 23 -24
28 -25 175 -25 147 0 152 1 175 25 25 24 25 26 25 207 0 207 -5 227 -74 283
-34 27 -46 30 -114 33 -56 2 -85 -1 -107 -13z m143 -262 l3 -123 -51 0 -50 0
0 118 c0 65 3 122 7 126 4 4 25 6 48 4 l40 -3 3 -122z"/>
</g>
</svg>
