<svg xmlns="http://www.w3.org/2000/svg" width="213.333" height="213.333" preserveAspectRatio="xMidYMid meet" version="1.0" viewBox="0 0 160 160"><metadata>Created by potrace 1.14, written by Peter Selinger 2001-2017</metadata><g fill="#000" stroke="none"><path d="M505 1584 c-92 -47 -105 -83 -105 -279 0 -152 1 -156 25 -180 29 -30 64 -32 96 -6 23 18 24 26 29 173 l5 153 222 3 222 2 3 -169 3 -169 30 -38 c55 -67 79 -74 257 -74 l158 0 -2 -372 -3 -373 -478 -5 -479 -5 -19 -24 c-26 -32 -24 -67 6 -96 l24 -25 483 0 c542 0 520 -3 583 74 l30 38 3 466 c2 331 0 479 -8 507 -9 31 -47 76 -178 209 -103 103 -182 176 -207 187 -36 17 -69 19 -355 19 -266 0 -320 -3 -345 -16z m803 -432 c-73 -1 -138 0 -145 2 -10 4 -13 40 -13 148 l0 143 145 -145 145 -145 -132 -3z" transform="translate(0.000000,160.000000) scale(0.100000,-0.100000)"/><path d="M124 828 c-101 -101 -124 -129 -124 -153 0 -23 22 -51 117 -147 64 -65 125 -121 136 -124 47 -15 108 46 93 93 -3 10 -42 54 -86 98 l-80 79 86 88 c81 82 86 90 80 120 -8 41 -23 56 -64 64 -32 7 -38 2 -158 -118z" transform="translate(0.000000,160.000000) scale(0.100000,-0.100000)"/><path d="M575 925 c-44 -43 -34 -68 59 -164 l85 -86 -85 -86 c-93 -96 -105 -126 -61 -167 47 -44 70 -33 204 101 101 101 123 128 123 152 0 24 -22 51 -123 152 -135 135 -156 145 -202 98z" transform="translate(0.000000,160.000000) scale(0.100000,-0.100000)"/></g></svg>