<?xml version="1.0" standalone="no"?>
<!DOCTYPE svg PUBLIC "-//W3C//DTD SVG 20010904//EN"
 "http://www.w3.org/TR/2001/REC-SVG-20010904/DTD/svg10.dtd">
<svg version="1.0" xmlns="http://www.w3.org/2000/svg"
 width="160.000000pt" height="160.000000pt" viewBox="0 0 160.000000 160.000000"
 preserveAspectRatio="xMidYMid meet">
<metadata>
Created by potrace 1.14, written by Peter Selinger 2001-2017
</metadata>
<g transform="translate(0.000000,160.000000) scale(0.100000,-0.100000)"
fill="#000000" stroke="none">
<path d="M262 1510 c-57 -35 -62 -62 -62 -319 l0 -231 25 -16 c23 -15 27 -15
50 0 l25 16 2 233 3 232 298 3 297 2 0 -147 c0 -129 3 -152 20 -180 37 -61 58
-68 227 -71 l153 -4 -2 -426 -3 -427 -500 -5 c-275 -3 -506 -9 -512 -13 -16
-10 -17 -59 -1 -75 9 -9 138 -12 517 -12 490 0 507 1 539 20 62 38 62 38 62
580 0 407 -2 496 -14 518 -8 15 -85 97 -170 182 l-156 155 -383 3 c-369 2
-383 2 -415 -18z m895 -222 c79 -79 143 -146 143 -150 0 -12 -259 -9 -281 2
-17 10 -19 23 -19 150 0 77 3 140 7 140 4 0 72 -64 150 -142z"/>
<path d="M488 859 c-36 -21 -21 -60 52 -141 39 -42 70 -79 70 -82 0 -3 -87 -6
-192 -6 -106 0 -210 -5 -230 -10 -56 -16 -117 -68 -152 -130 -30 -54 -31 -58
-34 -206 -3 -130 -1 -153 13 -167 21 -21 49 -22 69 -1 13 12 16 41 16 148 0
120 2 137 23 177 15 28 38 52 64 67 39 21 49 22 233 20 l193 -3 -72 -76 c-71
-77 -86 -110 -59 -137 30 -30 56 -12 175 114 65 69 122 132 126 140 4 8 1 25
-7 41 -23 41 -240 263 -257 263 -7 0 -22 -5 -31 -11z"/>
</g>
</svg>
