<?xml version="1.0" standalone="no"?>
<!DOCTYPE svg PUBLIC "-//W3C//DTD SVG 20010904//EN"
 "http://www.w3.org/TR/2001/REC-SVG-20010904/DTD/svg10.dtd">
<svg version="1.0" xmlns="http://www.w3.org/2000/svg"
 width="160.000000pt" height="160.000000pt" viewBox="0 0 160.000000 160.000000"
 preserveAspectRatio="xMidYMid meet">
<metadata>
Created by potrace 1.14, written by Peter Selinger 2001-2017
</metadata>
<g transform="translate(0.000000,160.000000) scale(0.100000,-0.100000)"
fill="#000000" stroke="none">
<path d="M205 1584 c-16 -8 -41 -25 -54 -37 -52 -48 -51 -37 -51 -749 0 -744
-4 -699 74 -763 l38 -30 588 0 588 0 38 30 c77 63 74 37 74 615 0 482 -2 518
-19 555 -25 54 -333 359 -383 380 -56 23 -848 22 -893 -1z m993 -287 l152
-152 -2 -495 -3 -495 -545 0 -545 0 -3 635 c-1 349 0 641 3 648 3 9 92 12 397
12 l393 0 153 -153z"/>
<path d="M745 1250 c-15 -16 -20 -42 -23 -110 l-4 -90 -85 0 c-76 0 -86 -2
-108 -25 -14 -13 -25 -36 -25 -50 0 -14 11 -37 25 -50 22 -23 32 -25 108 -25
l85 0 4 -90 c5 -106 19 -130 78 -130 59 0 73 24 78 130 l4 90 85 0 c76 0 86 2
108 25 32 31 32 69 0 100 -22 23 -32 25 -108 25 l-85 0 -4 90 c-3 68 -8 94
-23 110 -25 27 -85 27 -110 0z"/>
<path d="M525 525 c-14 -13 -25 -36 -25 -50 0 -14 11 -37 25 -50 l24 -25 251
0 251 0 24 25 c14 13 25 36 25 50 0 14 -11 37 -25 50 l-24 25 -251 0 -251 0
-24 -25z"/>
</g>
</svg>
