<?xml version="1.0" standalone="no"?>
<!DOCTYPE svg PUBLIC "-//W3C//DTD SVG 20010904//EN"
 "http://www.w3.org/TR/2001/REC-SVG-20010904/DTD/svg10.dtd">
<svg version="1.0" xmlns="http://www.w3.org/2000/svg"
 width="160.000000pt" height="160.000000pt" viewBox="0 0 160.000000 160.000000"
 preserveAspectRatio="xMidYMid meet">
<metadata>
Created by potrace 1.14, written by Peter Selinger 2001-2017
</metadata>
<g transform="translate(0.000000,160.000000) scale(0.100000,-0.100000)"
fill="#000000" stroke="none">
<path d="M90 1415 c-56 -30 -55 -22 -55 -615 0 -596 -1 -586 57 -616 40 -21
1376 -21 1416 0 58 30 57 20 57 616 0 596 1 586 -57 616 -40 21 -1380 20
-1418 -1z m1378 -500 l2 -410 -182 181 c-101 100 -194 189 -208 198 -24 16
-84 21 -113 10 -8 -3 -147 -145 -308 -315 l-294 -310 -115 3 -115 3 -3 515
c-1 283 0 521 3 528 3 10 142 12 667 10 l663 -3 3 -410z m-221 -337 c212 -212
223 -225 223 -261 0 -21 -6 -40 -12 -42 -7 -3 -224 -4 -481 -3 l-469 3 249
262 c136 145 252 263 258 263 5 0 110 -100 232 -222z"/>
<path d="M415 1189 c-45 -13 -105 -67 -126 -113 -65 -143 39 -306 193 -306
124 1 218 95 218 220 0 40 -38 127 -66 152 -55 48 -148 68 -219 47z m125 -105
c55 -33 74 -97 45 -154 -21 -42 -53 -60 -103 -60 -37 0 -50 6 -78 34 -28 28
-34 42 -34 76 0 52 13 76 53 100 39 24 80 25 117 4z"/>
</g>
</svg>
