<?xml version="1.0" standalone="no"?>
<!DOCTYPE svg PUBLIC "-//W3C//DTD SVG 20010904//EN"
 "http://www.w3.org/TR/2001/REC-SVG-20010904/DTD/svg10.dtd">
<svg version="1.0" xmlns="http://www.w3.org/2000/svg"
 width="160.000000pt" height="160.000000pt" viewBox="0 0 160.000000 160.000000"
 preserveAspectRatio="xMidYMid meet">
<metadata>
Created by potrace 1.14, written by Peter Selinger 2001-2017
</metadata>
<g transform="translate(0.000000,160.000000) scale(0.100000,-0.100000)"
fill="#000000" stroke="none">
<path d="M305 1584 c-16 -8 -41 -25 -54 -37 -51 -48 -51 -41 -51 -699 0 -688
-4 -649 74 -713 l38 -30 488 0 488 0 38 30 c76 62 74 46 74 538 0 371 -2 443
-15 475 -21 50 -376 407 -430 433 -36 17 -68 19 -330 19 -243 0 -295 -3 -320
-16z m495 -292 c0 -178 7 -202 74 -257 l38 -30 169 -3 169 -3 -2 -372 -3 -372
-445 0 -445 0 -3 585 c-1 322 0 591 3 598 3 9 58 12 225 12 l220 0 0 -158z
m283 -140 c-59 -1 -113 0 -120 2 -10 4 -13 35 -13 123 l0 118 120 -120 120
-120 -107 -3z"/>
</g>
</svg>
