<?xml version="1.0" standalone="no"?>
<!DOCTYPE svg PUBLIC "-//W3C//DTD SVG 20010904//EN"
 "http://www.w3.org/TR/2001/REC-SVG-20010904/DTD/svg10.dtd">
<svg version="1.0" xmlns="http://www.w3.org/2000/svg"
 width="160.000000pt" height="160.000000pt" viewBox="0 0 160.000000 160.000000"
 preserveAspectRatio="xMidYMid meet">
<metadata>
Created by potrace 1.14, written by Peter Selinger 2001-2017
</metadata>
<g transform="translate(0.000000,160.000000) scale(0.100000,-0.100000)"
fill="#000000" stroke="none">
<path d="M305 1584 c-93 -48 -105 -82 -105 -292 0 -155 2 -170 20 -190 27 -29
84 -30 108 -2 14 17 18 48 22 183 l5 162 222 3 222 2 3 -169 3 -169 30 -38
c55 -67 79 -74 257 -74 l158 0 -2 -372 -3 -373 -378 -5 -379 -5 -19 -24 c-26
-32 -24 -67 6 -97 l25 -25 394 3 394 3 38 30 c77 63 74 43 74 563 0 393 -2
468 -15 500 -21 50 -326 358 -380 383 -36 17 -68 19 -355 19 -266 0 -320 -3
-345 -16z m803 -432 c-73 -1 -138 0 -145 2 -10 4 -13 40 -13 148 l0 143 145
-145 145 -145 -132 -3z"/>
<path d="M407 964 c-4 -4 -7 -53 -7 -109 l0 -102 -60 -6 c-78 -7 -176 -53
-231 -109 -23 -23 -56 -72 -72 -107 -27 -56 -31 -79 -35 -172 -4 -105 -4 -108
21 -133 33 -33 71 -33 102 -1 22 21 25 33 25 102 0 102 13 145 58 195 43 48
102 77 154 78 l37 0 3 -107 c3 -92 5 -108 19 -108 18 0 319 274 319 290 0 12
-297 289 -314 293 -7 1 -15 0 -19 -4z"/>
</g>
</svg>
