<?xml version="1.0" standalone="no"?>
<!DOCTYPE svg PUBLIC "-//W3C//DTD SVG 20010904//EN"
 "http://www.w3.org/TR/2001/REC-SVG-20010904/DTD/svg10.dtd">
<svg version="1.0" xmlns="http://www.w3.org/2000/svg"
 width="160.000000pt" height="160.000000pt" viewBox="0 0 160.000000 160.000000"
 preserveAspectRatio="xMidYMid meet">
<metadata>
Created by potrace 1.14, written by Peter Selinger 2001-2017
</metadata>
<g transform="translate(0.000000,160.000000) scale(0.100000,-0.100000)"
fill="#000000" stroke="none">
<path d="M842 1500 c-112 -53 -214 -168 -246 -279 -27 -91 -17 -169 33 -284
26 -61 27 -97 0 -131 -45 -58 -125 -22 -174 79 -15 29 -34 56 -42 60 -23 8
-87 -38 -122 -88 -46 -67 -71 -154 -71 -244 0 -148 48 -260 156 -369 180 -182
474 -228 713 -111 86 41 188 141 230 225 87 172 82 378 -12 517 -19 28 -78 97
-131 155 -159 172 -208 262 -222 410 -7 66 -17 90 -38 90 -6 0 -39 -13 -74
-30z m65 -259 c37 -89 86 -159 202 -285 131 -143 163 -203 169 -314 14 -272
-182 -472 -463 -472 -205 0 -374 99 -456 265 -32 66 -34 75 -34 175 0 90 3
111 23 148 12 23 25 42 28 42 4 0 24 -20 45 -44 70 -80 163 -99 245 -51 88 52
105 153 48 286 -59 135 -31 255 86 361 l55 51 13 -49 c7 -27 25 -78 39 -113z"/>
</g>
</svg>
