<?xml version="1.0" standalone="no"?>
<!DOCTYPE svg PUBLIC "-//W3C//DTD SVG 20010904//EN"
 "http://www.w3.org/TR/2001/REC-SVG-20010904/DTD/svg10.dtd">
<svg version="1.0" xmlns="http://www.w3.org/2000/svg"
 width="160.000000pt" height="160.000000pt" viewBox="0 0 160.000000 160.000000"
 preserveAspectRatio="xMidYMid meet">
<metadata>
Created by potrace 1.14, written by Peter Selinger 2001-2017
</metadata>
<g transform="translate(0.000000,160.000000) scale(0.100000,-0.100000)"
fill="#000000" stroke="none">
<path d="M819 1558 c-88 -43 -186 -143 -230 -233 -32 -65 -34 -76 -34 -170 0
-90 3 -108 33 -178 39 -94 41 -145 10 -174 -32 -29 -63 -36 -103 -23 -35 12
-95 71 -95 94 0 23 -48 66 -73 66 -16 0 -39 -15 -65 -44 -103 -112 -136 -269
-92 -440 28 -110 63 -169 155 -262 131 -133 272 -188 475 -188 134 0 207 16
320 72 101 49 223 169 268 264 83 171 80 366 -8 512 -19 32 -94 120 -166 196
-180 190 -228 270 -254 429 -12 72 -34 111 -63 111 -8 0 -43 -14 -78 -32z m11
-189 c0 -25 56 -149 96 -211 24 -37 102 -130 174 -205 150 -159 189 -223 197
-325 23 -287 -260 -517 -579 -470 -210 30 -369 171 -409 360 -12 59 -7 168 8
183 6 6 24 -2 47 -20 50 -40 98 -55 172 -55 130 1 225 92 232 223 3 57 -1 78
-29 151 -27 68 -34 99 -34 155 0 79 15 119 71 184 35 41 54 51 54 30z"/>
</g>
</svg>
