<?xml version="1.0" standalone="no"?>
<!DOCTYPE svg PUBLIC "-//W3C//DTD SVG 20010904//EN"
 "http://www.w3.org/TR/2001/REC-SVG-20010904/DTD/svg10.dtd">
<svg version="1.0" xmlns="http://www.w3.org/2000/svg"
 width="160.000000pt" height="160.000000pt" viewBox="0 0 160.000000 160.000000"
 preserveAspectRatio="xMidYMid meet">
<metadata>
Created by potrace 1.14, written by Peter Selinger 2001-2017
</metadata>
<g transform="translate(0.000000,160.000000) scale(0.100000,-0.100000)"
fill="#000000" stroke="none">
<path d="M694 1589 c-52 -15 -92 -66 -115 -144 -27 -92 -28 -95 -82 -128 l-46
-28 -82 21 c-110 28 -151 22 -205 -35 -50 -52 -104 -156 -104 -202 0 -53 24
-97 84 -158 55 -55 56 -56 56 -115 0 -59 -1 -60 -56 -115 -60 -61 -84 -105
-84 -158 0 -46 54 -150 104 -202 54 -56 95 -63 205 -35 l81 21 44 -26 c57 -33
59 -37 81 -119 22 -82 68 -140 123 -156 47 -13 157 -13 204 0 55 16 101 74
123 156 22 82 24 86 81 119 l44 26 81 -21 c109 -28 148 -21 204 34 50 50 105
156 105 203 0 53 -24 97 -84 157 -56 55 -56 55 -56 116 0 61 0 61 56 116 92
92 104 150 53 254 -18 34 -50 82 -73 105 -54 56 -95 63 -205 35 l-81 -21 -44
26 c-57 33 -59 37 -81 119 -22 82 -68 140 -123 156 -45 12 -165 12 -208 -1z
m174 -156 c5 -10 17 -49 27 -87 22 -83 52 -116 154 -168 85 -44 100 -45 201
-17 84 23 81 25 121 -54 l20 -39 -56 -59 c-71 -75 -85 -108 -85 -209 0 -101
14 -134 85 -209 l56 -59 -20 -39 c-40 -79 -37 -77 -121 -54 -101 28 -116 27
-201 -17 -102 -52 -132 -85 -154 -168 -28 -105 -27 -104 -95 -104 -68 0 -67
-1 -95 104 -22 84 -55 119 -156 170 -83 42 -99 43 -199 15 -84 -23 -81 -25
-121 54 l-20 39 56 59 c71 75 85 108 85 209 0 101 -14 134 -85 209 l-56 59 20
39 c40 79 37 77 121 54 100 -28 116 -27 199 15 101 51 134 86 156 170 28 105
27 104 95 104 46 0 61 -4 68 -17z"/>
<path d="M703 1082 c-251 -90 -272 -432 -35 -549 81 -40 183 -40 264 0 107 53
163 144 163 267 0 85 -21 142 -74 203 -72 81 -213 117 -318 79z m167 -152 c45
-23 80 -80 80 -130 0 -50 -35 -107 -80 -130 -21 -11 -53 -20 -70 -20 -76 0
-150 74 -150 150 0 48 35 107 78 129 48 26 93 26 142 1z"/>
</g>
</svg>
