<?xml version="1.0" standalone="no"?>
<!DOCTYPE svg PUBLIC "-//W3C//DTD SVG 20010904//EN"
 "http://www.w3.org/TR/2001/REC-SVG-20010904/DTD/svg10.dtd">
<svg version="1.0" xmlns="http://www.w3.org/2000/svg"
 width="160.000000pt" height="160.000000pt" viewBox="0 0 160.000000 160.000000"
 preserveAspectRatio="xMidYMid meet">
<metadata>
Created by potrace 1.14, written by Peter Selinger 2001-2017
</metadata>
<g transform="translate(0.000000,160.000000) scale(0.100000,-0.100000)"
fill="#000000" stroke="none">
<path d="M376 1580 c-133 -53 -207 -209 -162 -338 l14 -40 -59 -4 c-46 -3 -67
-11 -96 -34 -63 -50 -73 -81 -73 -225 0 -165 4 -184 56 -236 l43 -43 3 -274 3
-274 30 -38 c64 -78 31 -74 665 -74 634 0 601 -4 665 74 l30 38 3 274 3 274
43 43 c52 52 56 71 56 236 0 143 -10 173 -74 225 -29 24 -49 31 -95 34 l-59 4
14 40 c63 181 -97 375 -293 355 -104 -11 -218 -88 -269 -182 -10 -19 -21 -35
-24 -35 -3 0 -14 15 -24 34 -29 54 -107 127 -165 154 -74 34 -169 39 -235 12z
m167 -144 c59 -25 131 -124 152 -208 l7 -28 -126 0 c-143 0 -174 9 -206 63
-66 107 52 225 173 173z m638 -1 c37 -20 69 -70 69 -110 0 -16 -9 -44 -20 -62
-32 -54 -63 -63 -206 -63 l-126 0 7 28 c11 46 55 125 88 161 56 59 128 77 188
46z m-461 -510 l0 -125 -282 2 -283 3 -3 109 c-1 61 0 116 2 123 4 10 63 13
286 13 l280 0 0 -125z m725 0 l0 -120 -282 -3 -283 -2 0 125 0 125 283 -2 282
-3 0 -120z m-725 -525 l0 -250 -232 2 -233 3 -3 248 -2 247 235 0 235 0 0
-250z m628 3 l-3 -248 -232 -3 -233 -2 0 250 0 250 235 0 235 0 -2 -247z"/>
</g>
</svg>
