<?xml version="1.0" standalone="no"?>
<!DOCTYPE svg PUBLIC "-//W3C//DTD SVG 20010904//EN"
 "http://www.w3.org/TR/2001/REC-SVG-20010904/DTD/svg10.dtd">
<svg version="1.0" xmlns="http://www.w3.org/2000/svg"
 width="160.000000pt" height="160.000000pt" viewBox="0 0 160.000000 160.000000"
 preserveAspectRatio="xMidYMid meet">
<metadata>
Created by potrace 1.14, written by Peter Selinger 2001-2017
</metadata>
<g transform="translate(0.000000,160.000000) scale(0.100000,-0.100000)"
fill="#000000" stroke="none">
<path d="M345 1485 c-22 -8 -59 -34 -82 -58 -102 -108 -78 -267 53 -347 l34
-22 0 -259 0 -258 -28 -15 c-68 -35 -122 -124 -122 -201 0 -119 106 -225 225
-225 119 0 225 106 225 225 0 77 -54 166 -122 201 -26 14 -28 18 -28 80 0 74
17 115 55 132 18 8 98 12 254 12 264 0 299 7 366 75 48 47 75 115 75 187 0 42
3 49 28 62 66 35 122 125 122 199 0 117 -109 227 -225 227 -86 0 -182 -67
-209 -147 -31 -92 -14 -165 56 -235 26 -27 54 -48 63 -48 11 0 15 -11 15 -45
0 -51 -20 -98 -47 -111 -10 -5 -130 -11 -268 -14 -137 -3 -258 -9 -267 -14
-16 -7 -18 0 -18 83 0 89 0 91 28 105 43 22 99 90 111 133 25 88 6 160 -58
224 -66 67 -148 85 -236 54z m130 -160 c14 -13 25 -36 25 -50 0 -33 -42 -75
-75 -75 -33 0 -75 42 -75 75 0 14 11 37 25 50 13 14 36 25 50 25 14 0 37 -11
50 -25z m750 0 c14 -13 25 -36 25 -50 0 -14 -11 -37 -25 -50 -13 -14 -36 -25
-50 -25 -33 0 -75 42 -75 75 0 14 11 37 25 50 13 14 36 25 50 25 14 0 37 -11
50 -25z m-750 -950 c14 -13 25 -36 25 -50 0 -14 -11 -37 -25 -50 -13 -14 -36
-25 -50 -25 -33 0 -75 42 -75 75 0 14 11 37 25 50 13 14 36 25 50 25 14 0 37
-11 50 -25z"/>
</g>
</svg>
