<svg xmlns="http://www.w3.org/2000/svg" width="213.333" height="213.333" preserveAspectRatio="xMidYMid meet" version="1.0" viewBox="0 0 160 160"><metadata>Created by potrace 1.14, written by Peter Selinger 2001-2017</metadata><g fill="#000" stroke="none"><path d="M315 1489 c-45 -13 -105 -67 -126 -113 -23 -51 -24 -136 -3 -179 23 -45 63 -86 105 -107 34 -18 36 -22 42 -79 8 -74 45 -151 90 -185 60 -46 98 -56 217 -56 l110 0 0 -119 0 -118 -47 -25 c-129 -65 -158 -241 -56 -340 93 -91 213 -91 306 0 102 99 73 275 -55 340 l-48 25 0 118 0 119 110 0 c117 0 157 10 215 54 45 35 84 113 92 185 6 59 8 63 42 81 76 39 121 111 121 192 -1 124 -95 218 -220 218 -40 0 -127 -38 -152 -66 -27 -31 -58 -106 -58 -144 0 -87 55 -174 131 -204 l42 -17 -6 -50 c-8 -63 -38 -112 -81 -133 -50 -24 -522 -24 -572 0 -43 21 -73 70 -81 133 l-6 50 42 17 c76 30 131 116 131 204 0 40 -38 127 -66 152 -55 48 -148 68 -219 47z m125 -105 c55 -33 74 -97 45 -154 -21 -42 -53 -60 -103 -60 -37 0 -50 6 -78 34 -28 28 -34 42 -34 76 0 52 13 76 53 100 39 24 80 25 117 4z m830 1 c42 -21 60 -53 60 -103 0 -37 -6 -50 -34 -78 -28 -28 -41 -34 -78 -34 -50 0 -82 18 -103 60 -52 101 54 207 155 155z m-412 -969 c47 -24 70 -88 49 -138 -23 -53 -52 -73 -107 -73 -55 0 -84 20 -107 73 -41 97 68 188 165 138z" transform="translate(0.000000,160.000000) scale(0.100000,-0.100000)"/></g></svg>