<?xml version="1.0" standalone="no"?>
<!DOCTYPE svg PUBLIC "-//W3C//DTD SVG 20010904//EN"
 "http://www.w3.org/TR/2001/REC-SVG-20010904/DTD/svg10.dtd">
<svg version="1.0" xmlns="http://www.w3.org/2000/svg"
 width="160.000000pt" height="160.000000pt" viewBox="0 0 160.000000 160.000000"
 preserveAspectRatio="xMidYMid meet">
<metadata>
Created by potrace 1.14, written by Peter Selinger 2001-2017
</metadata>
<g transform="translate(0.000000,160.000000) scale(0.100000,-0.100000)"
fill="#000000" stroke="none">
<path d="M679 1206 c-135 -52 -224 -142 -260 -263 l-12 -43 -179 0 c-177 0
-179 0 -203 -25 -14 -13 -25 -36 -25 -50 0 -14 11 -37 25 -50 24 -25 26 -25
203 -25 l179 0 12 -42 c30 -102 109 -193 211 -242 60 -29 73 -31 170 -31 97 0
110 2 170 31 101 48 181 140 211 242 l12 42 179 0 c177 0 179 0 203 25 14 13
25 36 25 50 0 14 -11 37 -25 50 -24 25 -26 25 -203 25 l-178 0 -18 54 c-18 59
-72 137 -123 180 -17 14 -58 39 -90 54 -48 22 -74 27 -153 29 -61 2 -108 -2
-131 -11z m219 -152 c47 -19 98 -68 125 -119 16 -30 21 -58 21 -110 0 -80 -20
-129 -76 -182 -45 -44 -96 -63 -168 -63 -100 0 -175 46 -223 135 -30 56 -30
164 0 220 27 50 78 99 123 119 46 20 151 20 198 0z"/>
</g>
</svg>
