<?xml version="1.0" standalone="no"?>
<!DOCTYPE svg PUBLIC "-//W3C//DTD SVG 20010904//EN"
 "http://www.w3.org/TR/2001/REC-SVG-20010904/DTD/svg10.dtd">
<svg version="1.0" xmlns="http://www.w3.org/2000/svg"
 width="160.000000pt" height="160.000000pt" viewBox="0 0 160.000000 160.000000"
 preserveAspectRatio="xMidYMid meet">
<metadata>
Created by potrace 1.14, written by Peter Selinger 2001-2017
</metadata>
<g transform="translate(0.000000,160.000000) scale(0.100000,-0.100000)"
fill="#000000" stroke="none">
<path d="M345 1485 c-79 -28 -145 -124 -145 -210 0 -77 54 -166 122 -201 l28
-15 0 -259 0 -259 -28 -15 c-68 -35 -122 -124 -122 -201 0 -92 75 -192 162
-216 169 -45 324 110 279 279 -13 47 -68 115 -113 138 l-28 15 0 169 0 170 55
-45 c114 -92 242 -135 406 -135 98 0 99 0 113 -28 35 -68 124 -122 201 -122
119 0 225 106 225 225 0 119 -106 225 -225 225 -78 0 -166 -54 -202 -123 l-15
-29 -117 4 c-109 4 -122 6 -192 39 -77 37 -157 106 -185 161 -15 29 -14 30 25
73 85 92 82 217 -8 306 -66 67 -148 85 -236 54z m130 -160 c14 -13 25 -36 25
-50 0 -33 -42 -75 -75 -75 -33 0 -75 42 -75 75 0 14 11 37 25 50 13 14 36 25
50 25 14 0 37 -11 50 -25z m850 -500 c14 -13 25 -36 25 -50 0 -33 -42 -75 -75
-75 -14 0 -37 11 -50 25 -14 13 -25 36 -25 50 0 14 11 37 25 50 13 14 36 25
50 25 14 0 37 -11 50 -25z m-850 -450 c14 -13 25 -36 25 -50 0 -14 -11 -37
-25 -50 -13 -14 -36 -25 -50 -25 -33 0 -75 42 -75 75 0 14 11 37 25 50 13 14
36 25 50 25 14 0 37 -11 50 -25z"/>
</g>
</svg>
