<?xml version="1.0" standalone="no"?>
<!DOCTYPE svg PUBLIC "-//W3C//DTD SVG 20010904//EN"
 "http://www.w3.org/TR/2001/REC-SVG-20010904/DTD/svg10.dtd">
<svg version="1.0" xmlns="http://www.w3.org/2000/svg"
 width="160.000000pt" height="160.000000pt" viewBox="0 0 160.000000 160.000000"
 preserveAspectRatio="xMidYMid meet">
<metadata>
Created by potrace 1.14, written by Peter Selinger 2001-2017
</metadata>
<g transform="translate(0.000000,160.000000) scale(0.100000,-0.100000)"
fill="#000000" stroke="none">
<path d="M838 1413 c-71 -71 -128 -133 -128 -138 0 -6 58 -68 129 -139 91 -91
134 -127 145 -123 13 5 16 23 16 97 l0 90 60 0 c70 0 111 -17 128 -55 8 -18
12 -112 12 -315 l0 -289 -28 -15 c-68 -35 -122 -124 -122 -201 0 -119 106
-225 225 -225 119 0 225 106 225 225 0 77 -54 166 -122 201 l-28 15 0 297 c0
342 -4 367 -75 437 -51 52 -116 75 -206 75 l-68 0 -3 92 c-2 73 -6 93 -18 96
-8 1 -72 -55 -142 -125z m487 -1038 c14 -13 25 -36 25 -50 0 -33 -42 -75 -75
-75 -33 0 -75 42 -75 75 0 33 42 75 75 75 14 0 37 -11 50 -25z"/>
<path d="M245 1485 c-22 -8 -59 -34 -82 -58 -102 -108 -78 -267 53 -347 l34
-22 0 -297 c0 -341 4 -366 75 -436 51 -52 116 -75 207 -75 l68 0 0 -90 c0 -74
3 -92 16 -97 11 -4 54 32 145 123 71 71 129 133 129 139 0 6 -58 68 -129 139
-91 91 -134 127 -145 123 -13 -5 -16 -23 -16 -97 l0 -90 -60 0 c-70 0 -111 17
-128 55 -8 18 -12 112 -12 315 l0 289 28 15 c43 22 99 90 111 133 25 88 6 160
-58 224 -66 67 -148 85 -236 54z m130 -160 c14 -13 25 -36 25 -50 0 -33 -42
-75 -75 -75 -33 0 -75 42 -75 75 0 33 42 75 75 75 14 0 37 -11 50 -25z"/>
</g>
</svg>
