<?xml version="1.0" standalone="no"?>
<!DOCTYPE svg PUBLIC "-//W3C//DTD SVG 20010904//EN"
 "http://www.w3.org/TR/2001/REC-SVG-20010904/DTD/svg10.dtd">
<svg version="1.0" xmlns="http://www.w3.org/2000/svg"
 width="160.000000pt" height="160.000000pt" viewBox="0 0 160.000000 160.000000"
 preserveAspectRatio="xMidYMid meet">
<metadata>
Created by potrace 1.14, written by Peter Selinger 2001-2017
</metadata>
<g transform="translate(0.000000,160.000000) scale(0.100000,-0.100000)"
fill="#000000" stroke="none">
<path d="M665 1589 c-349 -69 -597 -323 -656 -673 -40 -234 51 -505 226 -681
154 -154 340 -230 565 -230 225 0 411 76 565 230 154 154 230 340 230 565 0
174 -36 297 -125 433 -112 173 -271 287 -480 344 -68 18 -258 25 -325 12z
m-55 -175 c0 -4 -15 -32 -34 -63 -64 -106 -115 -252 -139 -396 l-13 -80 -132
-3 -132 -3 0 29 c0 16 7 53 16 83 48 163 180 322 333 397 82 41 101 48 101 36z
m495 -42 c95 -49 218 -172 267 -267 40 -77 68 -163 68 -207 l0 -29 -132 3
-132 3 -17 97 c-26 146 -71 274 -135 379 -19 31 -34 60 -34 63 0 11 39 -3 115
-42z m-265 -10 c83 -111 158 -299 176 -439 l7 -53 -223 0 -222 0 7 56 c11 89
43 193 90 289 39 81 112 195 125 194 3 0 21 -21 40 -47z m-407 -695 c16 -128
78 -312 144 -420 19 -32 32 -61 29 -64 -3 -4 -45 13 -93 37 -156 77 -288 233
-337 399 -31 105 -36 101 118 101 l133 0 6 -53z m583 6 c-23 -160 -97 -332
-201 -467 -14 -19 -15 -18 -37 9 -44 54 -109 170 -137 245 -27 68 -61 207 -61
245 0 13 29 15 221 15 l221 0 -6 -47z m424 24 c0 -13 -7 -48 -16 -78 -49 -166
-181 -322 -337 -399 -48 -24 -90 -41 -93 -37 -3 3 10 32 29 64 66 108 126 283
142 416 l7 57 134 0 c133 0 134 0 134 -23z"/>
</g>
</svg>
