<svg xmlns="http://www.w3.org/2000/svg" width="213.333" height="213.333" preserveAspectRatio="xMidYMid meet" version="1.0" viewBox="0 0 160 160"><metadata>Created by potrace 1.14, written by Peter Selinger 2001-2017</metadata><g fill="#000" stroke="none"><path d="M25 1475 l-25 -24 0 -651 0 -651 25 -24 24 -25 751 0 751 0 24 25 c32 31 32 69 0 100 l-24 25 -701 0 -700 0 0 600 0 601 -25 24 c-13 14 -36 25 -50 25 -14 0 -37 -11 -50 -25z" transform="translate(0.000000,160.000000) scale(0.100000,-0.100000)"/><path d="M1249 1054 l-249 -249 -133 133 c-180 180 -151 184 -386 -52 -178 -180 -184 -186 -177 -218 8 -41 23 -56 64 -64 32 -6 38 -1 183 142 l149 148 133 -132 c119 -119 136 -132 167 -132 33 0 55 20 319 284 279 279 284 285 277 318 -8 41 -23 56 -64 64 -33 7 -39 1 -283 -242z" transform="translate(0.000000,160.000000) scale(0.100000,-0.100000)"/></g></svg>