<?xml version="1.0" standalone="no"?>
<!DOCTYPE svg PUBLIC "-//W3C//DTD SVG 20010904//EN"
 "http://www.w3.org/TR/2001/REC-SVG-20010904/DTD/svg10.dtd">
<svg version="1.0" xmlns="http://www.w3.org/2000/svg"
 width="160.000000pt" height="160.000000pt" viewBox="0 0 160.000000 160.000000"
 preserveAspectRatio="xMidYMid meet">
<metadata>
Created by potrace 1.14, written by Peter Selinger 2001-2017
</metadata>
<g transform="translate(0.000000,160.000000) scale(0.100000,-0.100000)"
fill="#000000" stroke="none">
<path d="M325 1375 l-25 -24 0 -551 0 -551 25 -24 c31 -32 69 -32 100 0 l25
24 0 251 0 250 350 0 350 0 0 -250 0 -251 25 -24 c13 -14 36 -25 50 -25 14 0
37 11 50 25 l25 24 0 551 0 551 -25 24 c-13 14 -36 25 -50 25 -14 0 -37 -11
-50 -25 l-25 -24 0 -226 0 -225 -350 0 -350 0 0 225 0 226 -25 24 c-13 14 -36
25 -50 25 -14 0 -37 -11 -50 -25z"/>
</g>
</svg>
