<svg xmlns="http://www.w3.org/2000/svg" width="213.333" height="213.333" preserveAspectRatio="xMidYMid meet" version="1.0" viewBox="0 0 160 160"><metadata>Created by potrace 1.14, written by Peter Selinger 2001-2017</metadata><g fill="#000" stroke="none"><path d="M320 1484 c-200 -54 -332 -249 -317 -469 10 -142 66 -283 166 -415 61 -82 223 -238 321 -312 116 -87 282 -188 310 -188 28 0 131 61 272 160 139 96 349 311 416 425 154 262 146 523 -22 690 -169 169 -440 163 -609 -14 l-57 -60 -55 58 c-114 120 -271 166 -425 125z m236 -167 c65 -33 119 -94 156 -176 33 -72 51 -90 88 -90 37 0 55 18 88 90 54 120 147 195 256 206 138 14 268 -86 298 -231 24 -111 -20 -268 -114 -403 -82 -120 -258 -279 -441 -397 l-87 -57 -98 64 c-178 117 -349 272 -431 390 -93 135 -137 292 -113 403 39 188 232 285 398 201z" transform="translate(0.000000,160.000000) scale(0.100000,-0.100000)"/></g></svg>