<?xml version="1.0" standalone="no"?>
<!DOCTYPE svg PUBLIC "-//W3C//DTD SVG 20010904//EN"
 "http://www.w3.org/TR/2001/REC-SVG-20010904/DTD/svg10.dtd">
<svg version="1.0" xmlns="http://www.w3.org/2000/svg"
 width="160.000000pt" height="160.000000pt" viewBox="0 0 160.000000 160.000000"
 preserveAspectRatio="xMidYMid meet">
<metadata>
Created by potrace 1.14, written by Peter Selinger 2001-2017
</metadata>
<g transform="translate(0.000000,160.000000) scale(0.100000,-0.100000)"
fill="#000000" stroke="none">
<path d="M670 1589 c-176 -31 -366 -135 -467 -257 l-35 -43 -64 61 c-99 95
-99 94 -99 -145 l0 -200 200 0 c241 0 241 0 141 103 -36 38 -66 73 -66 79 0 6
33 42 74 81 203 192 483 235 736 111 169 -83 307 -260 345 -444 73 -349 -155
-697 -505 -771 -88 -19 -225 -14 -310 12 -165 49 -324 182 -399 334 -24 50
-48 118 -57 165 -18 86 -42 125 -80 125 -64 0 -88 -42 -73 -127 31 -174 103
-315 225 -437 311 -312 816 -312 1128 0 156 156 231 339 230 564 0 175 -35
298 -123 433 -114 174 -271 286 -481 343 -68 19 -246 26 -320 13z"/>
<path d="M725 1175 c-25 -24 -25 -25 -25 -222 0 -159 3 -203 15 -220 15 -21
278 -133 313 -133 29 0 60 28 67 60 11 52 -12 73 -134 121 l-111 44 0 163 c0
160 0 163 -25 187 -13 14 -36 25 -50 25 -14 0 -37 -11 -50 -25z"/>
</g>
</svg>
