<svg xmlns="http://www.w3.org/2000/svg" width="213.333" height="213.333" preserveAspectRatio="xMidYMid meet" version="1.0" viewBox="0 0 160 160"><metadata>Created by potrace 1.14, written by Peter Selinger 2001-2017</metadata><g fill="#000" stroke="none"><path d="M725 1553 c-31 -17 -504 -391 -564 -447 -61 -56 -61 -57 -61 -483 0 -435 -1 -426 74 -488 l38 -30 219 -3 219 -3 25 25 25 25 0 276 0 275 100 0 100 0 0 -275 0 -276 25 -25 25 -25 219 3 219 3 38 30 c75 62 74 53 74 487 0 249 -4 397 -11 415 -5 15 -22 41 -37 56 -40 43 -542 442 -579 461 -40 20 -109 20 -148 -1z m356 -348 l269 -216 -2 -367 -3 -367 -147 -3 -148 -3 0 276 0 276 -25 24 c-24 25 -25 25 -225 25 -200 0 -201 0 -225 -25 l-25 -24 0 -276 0 -276 -147 3 -148 3 -3 366 -2 367 267 215 c148 119 274 216 282 216 7 1 135 -96 282 -214z" transform="translate(0.000000,160.000000) scale(0.100000,-0.100000)"/></g></svg>