<svg xmlns="http://www.w3.org/2000/svg" width="213.333" height="213.333" preserveAspectRatio="xMidYMid meet" version="1.0" viewBox="0 0 160 160"><metadata>Created by potrace 1.14, written by Peter Selinger 2001-2017</metadata><g fill="#000" stroke="none"><path d="M755 1438 c-33 -19 -524 -438 -540 -461 -13 -18 -15 -74 -15 -359 0 -240 3 -345 12 -363 22 -49 51 -55 247 -55 175 0 180 1 195 22 13 19 16 59 16 235 l0 213 130 0 130 0 0 -213 c0 -176 3 -216 16 -235 15 -21 20 -22 195 -22 196 0 225 6 247 55 9 18 12 123 12 364 0 321 -1 340 -20 363 -22 29 -501 437 -533 455 -28 15 -66 16 -92 1z" transform="translate(0.000000,160.000000) scale(0.100000,-0.100000)"/></g></svg>