<?xml version="1.0" standalone="no"?>
<!DOCTYPE svg PUBLIC "-//W3C//DTD SVG 20010904//EN"
 "http://www.w3.org/TR/2001/REC-SVG-20010904/DTD/svg10.dtd">
<svg version="1.0" xmlns="http://www.w3.org/2000/svg"
 width="160.000000pt" height="160.000000pt" viewBox="0 0 160.000000 160.000000"
 preserveAspectRatio="xMidYMid meet">
<metadata>
Created by potrace 1.14, written by Peter Selinger 2001-2017
</metadata>
<g transform="translate(0.000000,160.000000) scale(0.100000,-0.100000)"
fill="#000000" stroke="none">
<path d="M225 1475 c-14 -13 -25 -36 -25 -50 0 -14 11 -37 25 -50 19 -20 34
-25 75 -25 l50 0 0 -85 c0 -105 14 -174 50 -246 35 -72 79 -127 135 -169 25
-19 45 -41 45 -50 0 -9 -20 -31 -45 -50 -56 -42 -100 -97 -135 -169 -36 -72
-50 -141 -50 -246 l0 -85 -50 0 c-41 0 -56 -5 -75 -25 -32 -31 -32 -69 0 -100
l24 -25 551 0 551 0 24 25 c14 13 25 36 25 50 0 14 -11 37 -25 50 -19 20 -34
25 -75 25 l-50 0 0 85 c0 105 -14 174 -50 246 -35 72 -79 127 -135 169 -25 19
-45 41 -45 50 0 9 20 31 45 50 56 42 100 97 135 169 36 72 50 141 50 246 l0
85 50 0 c41 0 56 5 75 25 32 31 32 69 0 100 l-24 25 -551 0 -551 0 -24 -25z
m873 -227 c-5 -140 -28 -190 -131 -282 -78 -71 -97 -102 -97 -166 0 -64 19
-95 97 -166 103 -92 126 -142 131 -282 l4 -102 -302 0 -302 0 4 102 c5 140 28
190 131 282 78 71 97 102 97 166 0 64 -19 95 -97 166 -103 92 -126 142 -131
282 l-4 102 302 0 302 0 -4 -102z"/>
</g>
</svg>
