<?xml version="1.0" standalone="no"?>
<!DOCTYPE svg PUBLIC "-//W3C//DTD SVG 20010904//EN"
 "http://www.w3.org/TR/2001/REC-SVG-20010904/DTD/svg10.dtd">
<svg version="1.0" xmlns="http://www.w3.org/2000/svg"
 width="160.000000pt" height="160.000000pt" viewBox="0 0 160.000000 160.000000"
 preserveAspectRatio="xMidYMid meet">
<metadata>
Created by potrace 1.14, written by Peter Selinger 2001-2017
</metadata>
<g transform="translate(0.000000,160.000000) scale(0.100000,-0.100000)"
fill="#000000" stroke="none">
<path d="M665 1589 c-66 -13 -170 -47 -220 -72 -203 -101 -358 -292 -420 -517
-16 -55 -19 -116 -22 -407 l-4 -343 25 -25 c32 -32 70 -32 101 0 l25 24 0 308
c0 354 7 401 71 533 58 118 170 230 290 289 191 94 387 94 579 0 119 -59 230
-170 289 -289 64 -132 71 -179 71 -533 l0 -308 25 -24 c31 -32 69 -32 101 0
l25 25 -3 343 c-5 361 -5 369 -58 509 -12 32 -43 91 -70 131 -112 173 -271
287 -480 344 -68 18 -258 25 -325 12z"/>
<path d="M405 1084 c-47 -24 -84 -65 -96 -104 -6 -20 -9 -87 -7 -152 3 -112 4
-118 33 -154 61 -75 55 -74 465 -74 410 0 404 -1 465 74 l30 38 0 138 0 138
-30 38 c-61 75 -55 74 -465 74 -311 0 -369 -2 -395 -16z m184 -140 l61 -56 61
56 c80 74 98 74 179 0 l60 -57 59 57 c44 41 67 56 88 56 61 0 96 -55 69 -108
-8 -15 -53 -65 -100 -110 -108 -103 -120 -105 -205 -26 l-61 56 -61 -56 c-87
-81 -98 -79 -215 37 -85 83 -94 96 -94 129 0 25 7 44 22 58 37 35 70 26 137
-36z"/>
<path d="M575 425 c-14 -13 -25 -36 -25 -50 0 -14 11 -37 25 -50 24 -25 25
-25 225 -25 200 0 201 0 225 25 32 31 32 69 0 100 -24 25 -25 25 -225 25 -200
0 -201 0 -225 -25z"/>
</g>
</svg>
