<svg xmlns="http://www.w3.org/2000/svg" width="213.333" height="213.333" preserveAspectRatio="xMidYMid meet" version="1.0" viewBox="0 0 160 160"><metadata>Created by potrace 1.14, written by Peter Selinger 2001-2017</metadata><g fill="#000" stroke="none"><path d="M105 1484 c-47 -24 -84 -65 -96 -104 -6 -23 -9 -233 -7 -602 l3 -566 30 -38 c64 -78 18 -74 765 -74 747 0 701 -4 765 74 l30 38 0 588 0 588 -30 38 c-64 78 -18 74 -765 74 -582 0 -669 -2 -695 -16z m1343 -527 l2 -388 -172 157 c-95 86 -187 162 -205 170 -43 19 -107 18 -146 -2 -18 -9 -174 -158 -348 -331 l-316 -314 -54 3 -54 3 -3 535 c-1 294 0 541 3 548 3 10 138 12 647 10 l643 -3 3 -388z m-212 -396 l215 -195 -3 -55 -3 -56 -480 -3 -480 -2 255 255 c140 141 261 254 268 253 7 -2 110 -90 228 -197z" transform="translate(0.000000,160.000000) scale(0.100000,-0.100000)"/><path d="M432 1189 c-48 -14 -109 -80 -123 -131 -23 -89 12 -182 88 -229 57 -36 154 -34 210 3 62 41 88 90 88 168 0 77 -26 127 -85 166 -43 29 -125 39 -178 23z m102 -155 c31 -30 9 -84 -34 -84 -24 0 -50 26 -50 50 0 24 26 50 50 50 10 0 26 -7 34 -16z" transform="translate(0.000000,160.000000) scale(0.100000,-0.100000)"/></g></svg>