<svg xmlns="http://www.w3.org/2000/svg" width="213.333" height="213.333" preserveAspectRatio="xMidYMid meet" version="1.0" viewBox="0 0 160 160"><metadata>Created by potrace 1.14, written by Peter Selinger 2001-2017</metadata><g fill="#000" stroke="none"><path d="M361 1478 c-24 -11 -52 -35 -62 -52 -10 -17 -82 -178 -159 -359 l-141 -328 3 -263 3 -264 30 -38 c64 -78 18 -74 765 -74 747 0 701 -4 765 74 l30 38 3 264 3 263 -136 318 c-75 175 -147 337 -160 360 -17 27 -39 48 -68 62 -42 20 -58 21 -438 21 -384 0 -395 -1 -438 -22z m816 -140 c4 -7 58 -130 120 -273 l112 -260 -142 -2 c-78 -2 -152 -5 -164 -8 -14 -3 -52 -44 -94 -100 l-71 -95 -138 0 -138 0 -71 95 c-42 56 -80 97 -94 100 -12 3 -86 6 -164 8 l-142 2 112 260 c62 143 116 266 120 273 6 9 93 12 377 12 284 0 371 -3 377 -12z m-672 -778 c37 -50 76 -95 86 -100 23 -13 395 -13 418 0 10 5 49 50 86 100 l67 90 144 0 144 0 -2 -197 -3 -198 -645 0 -645 0 -3 198 -2 197 144 0 144 0 67 -90z" transform="translate(0.000000,160.000000) scale(0.100000,-0.100000)"/></g></svg>