<?xml version="1.0" standalone="no"?>
<!DOCTYPE svg PUBLIC "-//W3C//DTD SVG 20010904//EN"
 "http://www.w3.org/TR/2001/REC-SVG-20010904/DTD/svg10.dtd">
<svg version="1.0" xmlns="http://www.w3.org/2000/svg"
 width="160.000000pt" height="160.000000pt" viewBox="0 0 160.000000 160.000000"
 preserveAspectRatio="xMidYMid meet">
<metadata>
Created by potrace 1.14, written by Peter Selinger 2001-2017
</metadata>
<g transform="translate(0.000000,160.000000) scale(0.100000,-0.100000)"
fill="#000000" stroke="none">
<path d="M243 1132 c-100 -36 -171 -101 -216 -199 -33 -73 -31 -198 5 -275 34
-73 103 -142 176 -176 48 -23 70 -27 142 -26 61 0 100 6 137 21 65 26 170 96
245 162 31 28 63 51 70 51 8 0 25 -12 39 -26 41 -44 161 -131 225 -163 159
-80 315 -60 429 54 71 71 100 141 100 245 0 104 -29 174 -100 245 -114 114
-270 134 -429 54 -64 -32 -184 -119 -225 -163 -14 -14 -31 -26 -39 -26 -7 0
-39 23 -70 51 -76 67 -181 137 -245 161 -76 29 -180 33 -244 10z m240 -176
c67 -37 197 -140 197 -156 0 -15 -130 -118 -197 -156 -86 -49 -146 -55 -216
-21 -128 63 -156 217 -57 315 74 72 166 79 273 18z m828 32 c55 -19 88 -49
116 -105 31 -65 28 -120 -11 -187 -20 -34 -40 -51 -81 -72 -72 -35 -131 -29
-218 20 -67 38 -197 141 -197 156 0 14 127 117 188 152 85 49 139 58 203 36z"/>
</g>
</svg>
