<svg xmlns="http://www.w3.org/2000/svg" width="213.333" height="213.333" preserveAspectRatio="xMidYMid meet" version="1.0" viewBox="0 0 160 160"><metadata>Created by potrace 1.14, written by Peter Selinger 2001-2017</metadata><g fill="#000" stroke="none"><path d="M665 1589 c-349 -69 -597 -323 -656 -673 -40 -234 51 -505 226 -681 154 -154 340 -230 565 -230 225 0 411 76 565 230 154 154 230 340 230 565 0 174 -36 297 -125 433 -112 173 -271 287 -480 344 -68 18 -258 25 -325 12z m270 -154 c184 -38 361 -176 444 -345 94 -193 94 -387 0 -580 -59 -119 -170 -230 -289 -289 -140 -68 -279 -87 -425 -56 -184 38 -361 176 -444 345 -94 192 -94 387 0 580 33 67 59 102 124 166 162 161 372 225 590 179z" transform="translate(0.000000,160.000000) scale(0.100000,-0.100000)"/><path d="M751 1186 c-87 -48 -50 -186 49 -186 51 0 100 49 100 99 0 75 -83 124 -149 87z" transform="translate(0.000000,160.000000) scale(0.100000,-0.100000)"/><path d="M675 875 c-14 -13 -25 -36 -25 -50 0 -33 42 -75 75 -75 l25 0 0 -100 0 -100 -25 0 c-33 0 -75 -42 -75 -75 0 -14 11 -37 25 -50 23 -24 30 -25 150 -25 120 0 127 1 150 25 14 13 25 36 25 50 0 33 -42 75 -75 75 l-25 0 0 150 c0 147 -1 152 -25 175 -21 22 -33 25 -100 25 -67 0 -79 -3 -100 -25z" transform="translate(0.000000,160.000000) scale(0.100000,-0.100000)"/></g></svg>