<?xml version="1.0" standalone="no"?>
<!DOCTYPE svg PUBLIC "-//W3C//DTD SVG 20010904//EN"
 "http://www.w3.org/TR/2001/REC-SVG-20010904/DTD/svg10.dtd">
<svg version="1.0" xmlns="http://www.w3.org/2000/svg"
 width="160.000000pt" height="160.000000pt" viewBox="0 0 160.000000 160.000000"
 preserveAspectRatio="xMidYMid meet">
<metadata>
Created by potrace 1.14, written by Peter Selinger 2001-2017
</metadata>
<g transform="translate(0.000000,160.000000) scale(0.100000,-0.100000)"
fill="#000000" stroke="none">
<path d="M750 1350 c-19 -19 -20 -33 -20 -550 0 -517 1 -531 20 -550 23 -23
33 -24 61 -10 18 10 19 27 19 555 0 481 -2 545 -16 559 -21 21 -40 20 -64 -4z"/>
<path d="M1182 1108 c-9 -9 -12 -119 -12 -435 0 -407 1 -423 19 -433 28 -14
38 -13 61 10 19 19 20 33 20 426 0 260 -4 412 -10 425 -12 22 -59 26 -78 7z"/>
<path d="M322 854 c-22 -15 -22 -17 -22 -304 l0 -290 25 -16 c23 -15 27 -15
50 0 l25 16 0 290 c0 287 0 289 -22 304 -12 9 -25 16 -28 16 -3 0 -16 -7 -28
-16z"/>
</g>
</svg>
