<?xml version="1.0" standalone="no"?>
<!DOCTYPE svg PUBLIC "-//W3C//DTD SVG 20010904//EN"
 "http://www.w3.org/TR/2001/REC-SVG-20010904/DTD/svg10.dtd">
<svg version="1.0" xmlns="http://www.w3.org/2000/svg"
 width="160.000000pt" height="160.000000pt" viewBox="0 0 160.000000 160.000000"
 preserveAspectRatio="xMidYMid meet">
<metadata>
Created by potrace 1.14, written by Peter Selinger 2001-2017
</metadata>
<g transform="translate(0.000000,160.000000) scale(0.100000,-0.100000)"
fill="#000000" stroke="none">
<path d="M650 1585 c-425 -86 -705 -483 -639 -908 53 -340 326 -613 669 -667
364 -57 728 151 860 492 38 97 38 130 4 157 -31 24 -43 26 -78 10 -18 -9 -33
-31 -51 -78 -102 -267 -344 -441 -615 -441 -239 0 -474 146 -579 360 -94 193
-94 387 0 580 83 169 260 307 444 345 180 38 367 -3 519 -112 63 -45 100 -47
133 -8 44 50 12 100 -111 174 -156 94 -378 132 -556 96z"/>
<path d="M757 1186 c-29 -22 -37 -72 -37 -236 0 -205 14 -249 80 -249 66 0 80
44 80 249 0 164 -8 214 -37 236 -23 17 -63 17 -86 0z"/>
<path d="M1362 1067 l-137 -136 -62 59 c-69 68 -99 75 -138 35 -45 -44 -35
-69 73 -177 79 -79 104 -98 127 -98 25 0 58 28 204 174 169 170 174 175 167
208 -8 41 -23 56 -64 64 -31 6 -38 1 -170 -129z"/>
<path d="M751 586 c-87 -48 -50 -186 49 -186 51 0 100 49 100 99 0 75 -83 124
-149 87z"/>
</g>
</svg>
