<?xml version="1.0" standalone="no"?>
<!DOCTYPE svg PUBLIC "-//W3C//DTD SVG 20010904//EN"
 "http://www.w3.org/TR/2001/REC-SVG-20010904/DTD/svg10.dtd">
<svg version="1.0" xmlns="http://www.w3.org/2000/svg"
 width="160.000000pt" height="160.000000pt" viewBox="0 0 160.000000 160.000000"
 preserveAspectRatio="xMidYMid meet">
<metadata>
Created by potrace 1.14, written by Peter Selinger 2001-2017
</metadata>
<g transform="translate(0.000000,160.000000) scale(0.100000,-0.100000)"
fill="#000000" stroke="none">
<path d="M665 1589 c-176 -33 -363 -137 -462 -257 l-35 -43 -64 61 c-99 95
-99 94 -99 -145 l0 -200 200 0 c241 0 241 0 141 103 -36 38 -66 73 -66 79 0 6
33 42 74 81 122 116 284 182 446 182 303 0 577 -226 636 -525 18 -86 42 -125
80 -125 64 0 88 42 73 127 -43 244 -190 454 -400 572 -150 84 -360 120 -524
90z"/>
<path d="M757 1186 c-29 -22 -37 -72 -37 -236 0 -205 14 -249 80 -249 66 0 80
44 80 249 0 164 -8 214 -37 236 -23 17 -63 17 -86 0z"/>
<path d="M42 793 c-30 -12 -42 -59 -31 -120 52 -295 257 -538 528 -627 305
-100 615 -26 834 199 l63 65 62 -61 c96 -94 97 -93 97 146 l0 200 -200 0
c-175 0 -200 -2 -203 -16 -2 -9 26 -47 63 -85 36 -37 65 -74 65 -80 0 -6 -33
-43 -74 -82 -122 -116 -284 -182 -446 -182 -303 0 -578 227 -636 525 -20 104
-60 143 -122 118z"/>
<path d="M751 586 c-87 -48 -50 -186 49 -186 51 0 100 49 100 99 0 75 -83 124
-149 87z"/>
</g>
</svg>
