<svg xmlns="http://www.w3.org/2000/svg" width="213.333" height="213.333" preserveAspectRatio="xMidYMid meet" version="1.0" viewBox="0 0 160 160"><metadata>Created by potrace 1.14, written by Peter Selinger 2001-2017</metadata><g fill="#000" stroke="none"><path d="M625 1375 c-30 -29 -32 -64 -6 -96 18 -23 27 -24 154 -29 l136 -5 -192 -447 -192 -448 -138 0 c-133 0 -139 -1 -162 -25 -32 -31 -32 -69 0 -100 l24 -25 351 0 351 0 24 25 c30 29 32 64 6 96 -18 23 -27 24 -154 29 l-136 5 192 448 192 447 138 0 c133 0 139 1 162 25 14 13 25 36 25 50 0 14 -11 37 -25 50 l-24 25 -351 0 -351 0 -24 -25z" transform="translate(0.000000,160.000000) scale(0.100000,-0.100000)"/></g></svg>