<?xml version="1.0" standalone="no"?>
<!DOCTYPE svg PUBLIC "-//W3C//DTD SVG 20010904//EN"
 "http://www.w3.org/TR/2001/REC-SVG-20010904/DTD/svg10.dtd">
<svg version="1.0" xmlns="http://www.w3.org/2000/svg"
 width="160.000000pt" height="160.000000pt" viewBox="0 0 160.000000 160.000000"
 preserveAspectRatio="xMidYMid meet">
<metadata>
Created by potrace 1.14, written by Peter Selinger 2001-2017
</metadata>
<g transform="translate(0.000000,160.000000) scale(0.100000,-0.100000)"
fill="#000000" stroke="none">
<path d="M78 979 c-43 -22 -78 -81 -78 -129 0 -76 74 -150 150 -150 76 0 150
74 150 150 0 50 -35 107 -80 130 -49 25 -94 25 -142 -1z"/>
<path d="M728 979 c-43 -22 -78 -81 -78 -129 0 -76 74 -150 150 -150 50 0 107
35 130 80 11 21 20 53 20 70 0 50 -35 107 -80 130 -49 25 -94 25 -142 -1z"/>
<path d="M1378 979 c-43 -22 -78 -81 -78 -129 0 -50 35 -107 80 -130 21 -11
53 -20 70 -20 76 0 150 74 150 150 0 50 -35 107 -80 130 -49 25 -94 25 -142
-1z"/>
</g>
</svg>
