<?xml version="1.0" standalone="no"?>
<!DOCTYPE svg PUBLIC "-//W3C//DTD SVG 20010904//EN"
 "http://www.w3.org/TR/2001/REC-SVG-20010904/DTD/svg10.dtd">
<svg version="1.0" xmlns="http://www.w3.org/2000/svg"
 width="160.000000pt" height="160.000000pt" viewBox="0 0 160.000000 160.000000"
 preserveAspectRatio="xMidYMid meet">
<metadata>
Created by potrace 1.14, written by Peter Selinger 2001-2017
</metadata>
<g transform="translate(0.000000,160.000000) scale(0.100000,-0.100000)"
fill="#000000" stroke="none">
<path d="M960 1594 c-201 -39 -360 -175 -432 -370 -18 -48 -22 -82 -22 -186
l-1 -127 -253 -254 -254 -254 4 -146 c3 -145 3 -145 33 -183 53 -65 82 -74
234 -74 l134 0 48 49 c46 45 49 51 49 100 l0 51 51 0 c49 0 55 3 100 49 46 45
49 51 49 100 l0 51 51 0 c47 0 54 3 106 53 l55 52 122 0 c140 0 214 20 313 84
382 249 314 822 -115 978 -66 24 -211 39 -272 27z m254 -182 c91 -42 149 -100
194 -190 35 -72 37 -81 37 -172 0 -91 -2 -100 -37 -172 -45 -91 -104 -148
-196 -191 -57 -26 -78 -31 -147 -31 -44 0 -107 3 -140 8 l-60 8 -60 -61 -59
-61 -74 0 c-64 0 -76 -3 -97 -25 -22 -21 -25 -33 -25 -100 l0 -75 -75 0 c-67
0 -79 -3 -100 -25 -22 -21 -25 -33 -25 -100 l0 -76 -97 3 -98 3 -3 95 -3 94
262 262 262 262 -9 59 c-5 32 -9 94 -8 138 0 69 5 91 31 147 40 84 97 147 172
186 78 42 122 52 213 48 61 -3 92 -11 142 -34z"/>
<path d="M1051 1186 c-87 -48 -50 -186 49 -186 51 0 100 49 100 99 0 75 -83
124 -149 87z"/>
</g>
</svg>
