<svg xmlns="http://www.w3.org/2000/svg" width="213.333" height="213.333" preserveAspectRatio="xMidYMid meet" version="1.0" viewBox="0 0 160 160"><metadata>Created by potrace 1.14, written by Peter Selinger 2001-2017</metadata><g fill="#000" stroke="none"><path d="M757 1586 c-23 -18 -37 -68 -37 -133 l0 -53 -65 0 c-58 0 -74 -5 -160 -50 l-95 -50 -126 0 c-119 0 -126 -1 -149 -25 -48 -47 -20 -113 52 -124 l39 -6 -108 -239 c-59 -131 -108 -249 -108 -261 0 -67 162 -145 300 -145 138 0 300 78 300 145 0 12 -49 129 -108 261 l-108 239 39 7 c21 4 74 28 117 53 65 37 88 45 130 45 l50 0 0 -475 0 -475 -135 0 c-131 0 -137 -1 -160 -25 -32 -31 -32 -69 0 -100 l24 -25 351 0 351 0 24 25 c14 13 25 36 25 50 0 14 -11 37 -25 50 -23 24 -29 25 -160 25 l-135 0 0 475 0 475 50 0 c42 0 65 -8 130 -45 43 -25 96 -49 117 -53 l39 -7 -108 -239 c-59 -131 -108 -249 -108 -261 0 -67 162 -145 300 -145 138 0 300 78 300 145 0 12 -49 131 -109 264 l-109 241 35 0 c41 0 83 37 83 75 0 14 -11 37 -25 50 -23 24 -30 25 -149 25 l-126 0 -95 50 c-86 45 -102 50 -160 50 l-65 0 0 53 c0 65 -14 115 -37 133 -23 17 -63 17 -86 0z m-394 -759 c33 -72 59 -136 59 -142 0 -16 -63 -34 -122 -34 -52 0 -120 17 -123 30 -3 9 117 279 123 279 3 0 31 -60 63 -133z m1000 0 c33 -72 59 -136 59 -142 0 -16 -63 -34 -122 -34 -52 0 -120 17 -123 30 -3 9 117 279 123 279 3 0 31 -60 63 -133z" transform="translate(0.000000,160.000000) scale(0.100000,-0.100000)"/></g></svg>