<?xml version="1.0" standalone="no"?>
<!DOCTYPE svg PUBLIC "-//W3C//DTD SVG 20010904//EN"
 "http://www.w3.org/TR/2001/REC-SVG-20010904/DTD/svg10.dtd">
<svg version="1.0" xmlns="http://www.w3.org/2000/svg"
 width="160.000000pt" height="160.000000pt" viewBox="0 0 160.000000 160.000000"
 preserveAspectRatio="xMidYMid meet">
<metadata>
Created by potrace 1.14, written by Peter Selinger 2001-2017
</metadata>
<g transform="translate(0.000000,160.000000) scale(0.100000,-0.100000)"
fill="#000000" stroke="none">
<path d="M672 1585 c-221 -48 -383 -217 -414 -434 -23 -155 15 -266 145 -427
40 -49 79 -106 86 -125 7 -19 17 -44 22 -57 18 -45 95 -51 124 -9 35 50 1 141
-101 267 -112 140 -129 176 -129 280 1 106 33 184 103 253 200 196 545 138
660 -111 22 -47 26 -71 27 -142 0 -104 -16 -139 -129 -280 -74 -92 -116 -173
-116 -226 0 -32 42 -74 75 -74 29 0 75 40 75 65 0 28 37 88 105 170 121 147
160 263 137 416 -44 306 -349 503 -670 434z"/>
<path d="M525 375 c-14 -13 -25 -36 -25 -50 0 -14 11 -37 25 -50 l24 -25 251
0 251 0 24 25 c14 13 25 36 25 50 0 14 -11 37 -25 50 l-24 25 -251 0 -251 0
-24 -25z"/>
<path d="M625 125 c-14 -13 -25 -36 -25 -50 0 -14 11 -37 25 -50 23 -24 28
-25 175 -25 147 0 152 1 175 25 14 13 25 36 25 50 0 14 -11 37 -25 50 -23 24
-28 25 -175 25 -147 0 -152 -1 -175 -25z"/>
</g>
</svg>
