<?xml version="1.0" standalone="no"?>
<!DOCTYPE svg PUBLIC "-//W3C//DTD SVG 20010904//EN"
 "http://www.w3.org/TR/2001/REC-SVG-20010904/DTD/svg10.dtd">
<svg version="1.0" xmlns="http://www.w3.org/2000/svg"
 width="160.000000pt" height="160.000000pt" viewBox="0 0 160.000000 160.000000"
 preserveAspectRatio="xMidYMid meet">
<metadata>
Created by potrace 1.14, written by Peter Selinger 2001-2017
</metadata>
<g transform="translate(0.000000,160.000000) scale(0.100000,-0.100000)"
fill="#000000" stroke="none">
<path d="M1044 1485 c-6 -15 118 -165 137 -165 27 0 -9 -42 -187 -222 -191
-192 -197 -198 -190 -230 8 -41 23 -56 64 -64 32 -7 38 -1 230 190 109 108
202 196 208 196 6 0 43 -34 83 -76 108 -112 106 -114 106 156 l0 225 -223 3
c-192 2 -223 0 -228 -13z"/>
<path d="M305 1384 c-47 -24 -84 -65 -96 -104 -6 -22 -9 -201 -7 -502 l3 -466
30 -38 c63 -77 43 -74 565 -74 522 0 502 -3 565 74 l30 38 3 219 3 219 -25 25
c-30 30 -65 32 -97 6 -23 -19 -24 -24 -29 -223 l-5 -203 -445 0 -445 0 0 445
0 445 203 5 c199 5 204 6 223 29 26 32 24 67 -6 96 -24 25 -25 25 -232 25
-169 0 -214 -3 -238 -16z"/>
</g>
</svg>
