<svg xmlns="http://www.w3.org/2000/svg" width="213.333" height="213.333" preserveAspectRatio="xMidYMid meet" version="1.0" viewBox="0 0 160 160"><metadata>Created by potrace 1.14, written by Peter Selinger 2001-2017</metadata><g fill="#000" stroke="none"><path d="M1053 1486 c-72 -23 -125 -61 -210 -149 -68 -69 -83 -90 -83 -116 0 -40 31 -71 72 -71 26 0 47 15 123 89 71 69 103 92 136 101 158 43 291 -92 249 -250 -10 -39 -35 -68 -173 -207 -139 -138 -168 -163 -207 -173 -65 -18 -126 -6 -187 36 -65 45 -105 41 -130 -11 -21 -44 -4 -79 61 -123 107 -71 234 -80 349 -24 49 25 95 65 224 194 197 198 218 234 218 368 0 71 -4 94 -26 141 -58 124 -169 199 -302 205 -43 3 -89 -2 -114 -10z" transform="translate(0.000000,160.000000) scale(0.100000,-0.100000)"/><path d="M603 1035 c-77 -24 -127 -62 -285 -222 -191 -193 -213 -230 -213 -363 0 -76 4 -93 33 -152 38 -77 92 -130 171 -167 47 -22 70 -26 141 -26 120 0 185 33 303 153 72 74 87 95 87 121 0 40 -31 71 -72 71 -26 0 -47 -15 -123 -89 -71 -69 -103 -92 -136 -101 -158 -43 -291 92 -249 250 10 39 35 68 173 207 139 138 168 163 207 173 65 18 126 6 187 -36 65 -45 105 -41 130 11 21 44 4 79 -61 122 -88 59 -200 78 -293 48z" transform="translate(0.000000,160.000000) scale(0.100000,-0.100000)"/></g></svg>