<?xml version="1.0" standalone="no"?>
<!DOCTYPE svg PUBLIC "-//W3C//DTD SVG 20010904//EN"
 "http://www.w3.org/TR/2001/REC-SVG-20010904/DTD/svg10.dtd">
<svg version="1.0" xmlns="http://www.w3.org/2000/svg"
 width="160.000000pt" height="160.000000pt" viewBox="0 0 160.000000 160.000000"
 preserveAspectRatio="xMidYMid meet">
<metadata>
Created by potrace 1.14, written by Peter Selinger 2001-2017
</metadata>
<g transform="translate(0.000000,160.000000) scale(0.100000,-0.100000)"
fill="#000000" stroke="none">
<path d="M72 1367 c-34 -17 -65 -39 -68 -49 -14 -47 31 -82 75 -58 21 11 21
10 21 -125 l0 -135 -34 0 c-57 0 -86 -49 -50 -84 23 -23 245 -23 268 0 36 35
7 84 -50 84 l-34 0 0 184 c0 238 -5 245 -128 183z"/>
<path d="M525 1325 c-14 -13 -25 -36 -25 -50 0 -14 11 -37 25 -50 l24 -25 451
0 451 0 24 25 c32 31 32 69 0 100 l-24 25 -451 0 -451 0 -24 -25z"/>
<path d="M525 825 c-14 -13 -25 -36 -25 -50 0 -14 11 -37 25 -50 l24 -25 451
0 451 0 24 25 c32 31 32 69 0 100 l-24 25 -451 0 -451 0 -24 -25z"/>
<path d="M90 689 c-38 -15 -90 -70 -90 -95 0 -20 32 -54 51 -54 3 0 23 14 44
30 42 34 66 37 89 14 34 -34 20 -64 -69 -149 -83 -79 -115 -128 -115 -179 0
-48 21 -56 150 -56 124 0 150 8 150 48 -1 38 -18 47 -102 52 l-83 5 65 54 c96
79 115 110 115 185 0 48 -5 68 -24 95 -39 54 -117 75 -181 50z"/>
<path d="M525 325 c-14 -13 -25 -36 -25 -50 0 -14 11 -37 25 -50 l24 -25 451
0 451 0 24 25 c32 31 32 69 0 100 l-24 25 -451 0 -451 0 -24 -25z"/>
</g>
</svg>
