<?xml version="1.0" standalone="no"?>
<!DOCTYPE svg PUBLIC "-//W3C//DTD SVG 20010904//EN"
 "http://www.w3.org/TR/2001/REC-SVG-20010904/DTD/svg10.dtd">
<svg version="1.0" xmlns="http://www.w3.org/2000/svg"
 width="160.000000pt" height="160.000000pt" viewBox="0 0 160.000000 160.000000"
 preserveAspectRatio="xMidYMid meet">
<metadata>
Created by potrace 1.14, written by Peter Selinger 2001-2017
</metadata>
<g transform="translate(0.000000,160.000000) scale(0.100000,-0.100000)"
fill="#000000" stroke="none">
<path d="M660 1534 c-180 -38 -357 -177 -439 -344 -94 -192 -94 -387 0 -580
39 -80 56 -99 273 -318 185 -187 238 -234 268 -243 78 -21 94 -9 344 243 217
219 234 238 273 318 94 193 94 388 0 580 -59 119 -170 230 -289 289 -139 68
-284 87 -430 55z m242 -145 c92 -19 177 -66 249 -138 137 -138 183 -334 120
-515 -34 -95 -69 -140 -276 -346 l-195 -195 -195 195 c-108 107 -209 216 -226
242 -126 195 -97 452 70 619 123 123 287 173 453 138z"/>
<path d="M732 1089 c-48 -14 -109 -80 -123 -131 -23 -89 12 -182 88 -229 57
-36 154 -34 210 3 62 41 88 90 88 168 0 77 -26 127 -85 166 -43 29 -125 39
-178 23z"/>
</g>
</svg>
