<svg xmlns="http://www.w3.org/2000/svg" width="213.333" height="213.333" preserveAspectRatio="xMidYMid meet" version="1.0" viewBox="0 0 160 160"><metadata>Created by potrace 1.14, written by Peter Selinger 2001-2017</metadata><g fill="#000" stroke="none"><path d="M706 1590 c-63 -16 -153 -70 -197 -117 -22 -24 -55 -74 -72 -111 -30 -64 -32 -74 -35 -213 l-4 -147 -45 -5 c-52 -6 -109 -47 -136 -98 -16 -31 -17 -65 -15 -361 l3 -326 30 -38 c63 -77 43 -74 565 -74 522 0 502 -3 565 74 l30 38 3 326 c2 304 1 329 -16 362 -29 52 -83 91 -135 97 l-45 5 -3 147 c-4 147 -4 147 -41 223 -68 136 -188 217 -336 224 -42 2 -94 -1 -116 -6z m179 -157 c63 -21 127 -85 148 -148 12 -34 17 -83 17 -167 l0 -118 -250 0 -250 0 0 118 c0 145 16 198 75 257 69 70 164 91 260 58z m360 -883 l0 -295 -445 0 -445 0 -3 285 c-1 157 0 290 3 297 3 11 96 13 447 11 l443 -3 0 -295z" transform="translate(0.000000,160.000000) scale(0.100000,-0.100000)"/></g></svg>