<?xml version="1.0" standalone="no"?>
<!DOCTYPE svg PUBLIC "-//W3C//DTD SVG 20010904//EN"
 "http://www.w3.org/TR/2001/REC-SVG-20010904/DTD/svg10.dtd">
<svg version="1.0" xmlns="http://www.w3.org/2000/svg"
 width="160.000000pt" height="102.000000pt" viewBox="0 0 160.000000 102.000000"
 preserveAspectRatio="xMidYMid meet">
<metadata>
Created by potrace 1.14, written by Peter Selinger 2001-2017
</metadata>
<g transform="translate(0.000000,102.000000) scale(0.100000,-0.100000)"
fill="#000000" stroke="none">
<path d="M181 873 c-84 -30 -148 -120 -170 -238 -23 -123 -6 -286 38 -373 27
-53 91 -107 149 -123 64 -19 204 -15 272 8 l55 18 0 180 0 180 -112 3 -113 3
0 -36 0 -35 80 0 80 0 0 -125 c0 -125 0 -125 -26 -135 -38 -15 -189 -12 -227
4 -39 16 -82 64 -103 115 -42 101 -36 300 12 399 58 118 155 138 372 76 22 -6
23 -4 20 27 -3 31 -7 35 -58 51 -70 21 -209 22 -269 1z"/>
<path d="M642 818 c-20 -20 -14 -66 9 -79 27 -14 64 1 72 30 11 44 -49 81 -81
49z"/>
<path d="M1360 781 c-23 -6 -25 -13 -30 -76 l-5 -69 -47 -14 c-66 -18 -65 -42
2 -42 l50 0 0 -185 0 -184 31 -35 c23 -26 43 -37 83 -46 62 -13 86 -6 86 25 0
19 -6 23 -47 28 -79 9 -83 19 -83 223 l0 174 75 0 c73 0 75 1 75 25 0 24 -2
25 -75 25 l-75 0 0 80 c0 44 -3 80 -7 79 -5 -1 -19 -4 -33 -8z"/>
<path d="M925 629 c-70 -20 -115 -107 -92 -177 17 -50 52 -71 147 -88 105 -18
130 -33 130 -78 0 -48 -8 -65 -41 -81 -32 -17 -156 -20 -207 -6 -33 10 -33 10
-30 -21 4 -39 30 -48 143 -50 62 -2 90 3 120 18 53 26 85 75 85 131 0 89 -43
125 -173 142 -89 13 -117 31 -117 76 0 43 26 72 76 81 36 7 127 0 172 -12 21
-6 23 -4 20 22 -2 23 -10 32 -38 41 -41 14 -151 15 -195 2z"/>
<path d="M642 405 l3 -225 25 -24 c14 -13 37 -26 53 -30 24 -6 27 -4 27 21 0
17 -8 33 -20 41 -19 12 -20 23 -20 227 l0 215 -36 0 -35 0 3 -225z"/>
</g>
</svg>
