<?xml version="1.0" standalone="no"?>
<!DOCTYPE svg PUBLIC "-//W3C//DTD SVG 20010904//EN"
 "http://www.w3.org/TR/2001/REC-SVG-20010904/DTD/svg10.dtd">
<svg version="1.0" xmlns="http://www.w3.org/2000/svg"
 width="160.000000pt" height="57.000000pt" viewBox="0 0 160.000000 57.000000"
 preserveAspectRatio="xMidYMid meet">
<metadata>
Created by potrace 1.14, written by Peter Selinger 2001-2017
</metadata>
<g transform="translate(0.000000,57.000000) scale(0.100000,-0.100000)"
fill="#000000" stroke="none">
<path d="M115 489 c-76 -22 -110 -84 -110 -204 0 -109 21 -158 81 -192 46 -27
136 -31 189 -9 l35 15 0 105 0 106 -70 0 -70 0 0 -34 c0 -30 3 -35 28 -38 24
-3 27 -7 27 -43 0 -38 -2 -40 -33 -43 -69 -7 -108 53 -100 154 7 88 55 121
149 104 33 -6 39 -4 44 11 3 11 7 28 10 38 5 16 -1 22 -32 30 -45 13 -106 13
-148 0z"/>
<path d="M700 280 l0 -200 45 0 45 0 0 85 0 85 55 0 55 0 0 -85 0 -85 45 0 45
0 0 200 0 200 -45 0 -45 0 0 -75 0 -75 -55 0 -55 0 0 75 0 75 -45 0 -45 0 0
-200z"/>
<path d="M1320 279 l0 -200 48 0 c26 1 71 -2 99 -5 49 -5 55 -4 82 23 54 54
53 192 -2 244 -19 18 -31 20 -79 16 l-58 -5 0 64 0 64 -45 0 -45 0 0 -201z
m170 -8 c15 -29 12 -107 -4 -120 -8 -7 -27 -11 -43 -9 -27 3 -28 5 -31 67 -3
68 4 81 45 81 12 0 27 -9 33 -19z"/>
<path d="M360 456 c-15 -19 -9 -56 11 -69 41 -26 91 22 68 65 -12 22 -61 24
-79 4z"/>
<path d="M510 391 c0 -31 -4 -41 -20 -46 -28 -9 -29 -65 -1 -65 16 0 19 -10
23 -82 4 -73 8 -84 32 -105 20 -17 39 -23 72 -23 44 0 44 0 44 34 0 30 -3 35
-27 38 -27 3 -28 5 -31 71 l-3 67 31 0 c28 0 30 3 30 35 0 32 -2 35 -30 35
-28 0 -30 2 -30 40 l0 40 -45 0 -45 0 0 -39z"/>
<path d="M350 215 l0 -135 45 0 45 0 0 135 0 135 -45 0 -45 0 0 -135z"/>
<path d="M1030 235 c0 -111 1 -117 25 -141 24 -23 31 -25 83 -20 31 3 76 6
100 6 l42 -1 0 136 0 135 -40 0 -40 0 0 -100 c0 -98 0 -100 -25 -106 -50 -12
-55 -3 -55 106 l0 100 -45 0 -45 0 0 -115z"/>
</g>
</svg>
