<svg xmlns="http://www.w3.org/2000/svg" width="213.333" height="213.333" preserveAspectRatio="xMidYMid meet" version="1.0" viewBox="0 0 160 160"><metadata>Created by potrace 1.14, written by Peter Selinger 2001-2017</metadata><g fill="#000" stroke="none"><path d="M58 1284 c-57 -31 -58 -35 -58 -484 0 -451 0 -454 60 -485 43 -22 1436 -23 1479 0 59 30 61 43 61 484 0 442 -2 456 -59 485 -26 14 -115 16 -743 16 -611 -1 -717 -3 -740 -16z m413 -279 c39 -52 75 -95 79 -95 4 0 40 43 79 95 l71 95 100 0 100 0 0 -300 0 -300 -100 0 -99 0 -3 148 -3 147 -70 -92 c-38 -51 -72 -92 -75 -92 -3 0 -36 41 -75 92 l-70 92 -3 -147 -3 -148 -99 0 -100 0 0 300 0 300 100 0 100 0 71 -95z m829 -55 l0 -150 75 0 75 0 -120 -167 c-66 -93 -125 -168 -131 -168 -6 0 -64 74 -128 165 l-118 165 73 3 74 3 0 149 0 150 100 0 100 0 0 -150z" transform="translate(0.000000,160.000000) scale(0.100000,-0.100000)"/></g></svg>