<?xml version="1.0" standalone="no"?>
<!DOCTYPE svg PUBLIC "-//W3C//DTD SVG 20010904//EN"
 "http://www.w3.org/TR/2001/REC-SVG-20010904/DTD/svg10.dtd">
<svg version="1.0" xmlns="http://www.w3.org/2000/svg"
 width="160.000000pt" height="160.000000pt" viewBox="0 0 160.000000 160.000000"
 preserveAspectRatio="xMidYMid meet">
<metadata>
Created by potrace 1.14, written by Peter Selinger 2001-2017
</metadata>
<g transform="translate(0.000000,160.000000) scale(0.100000,-0.100000)"
fill="#000000" stroke="none">
<path d="M650 1585 c-258 -55 -461 -211 -569 -439 -59 -122 -75 -199 -75 -346
-1 -229 74 -410 235 -569 73 -72 200 -154 276 -178 74 -23 83 -13 83 91 l0 82
-65 -4 c-112 -7 -167 24 -215 122 -11 24 -41 62 -66 86 -39 37 -44 44 -30 52
40 23 106 -14 156 -86 33 -48 81 -76 133 -76 49 0 97 19 97 39 0 9 9 32 19 52
l19 35 -61 13 c-170 35 -258 126 -288 295 -18 106 -2 193 50 270 16 24 19 40
14 95 -3 38 0 85 7 110 l11 43 42 -5 c22 -3 73 -22 112 -42 67 -34 73 -35 124
-25 69 13 233 13 291 -1 42 -10 50 -8 116 26 73 38 147 55 158 37 16 -26 25
-115 17 -159 -7 -36 -6 -52 4 -63 59 -69 81 -211 51 -330 -36 -140 -130 -223
-283 -252 l-59 -11 23 -45 c21 -41 23 -59 23 -192 0 -153 4 -170 45 -170 35 0
189 83 257 138 317 257 390 716 168 1055 -112 173 -271 287 -480 344 -78 21
-260 26 -340 8z"/>
</g>
</svg>
