<svg xmlns="http://www.w3.org/2000/svg" width="213.333" height="213.333" preserveAspectRatio="xMidYMid meet" version="1.0" viewBox="0 0 160 160"><metadata>Created by potrace 1.14, written by Peter Selinger 2001-2017</metadata><g fill="#000" stroke="none"><path d="M1475 1529 c-103 -70 -279 -137 -447 -171 -89 -17 -142 -21 -248 -20 -74 2 -211 4 -305 5 l-170 2 -67 -32 c-93 -44 -151 -100 -196 -191 -35 -72 -37 -81 -37 -171 0 -87 3 -102 31 -162 39 -82 93 -142 160 -180 l51 -29 6 -99 c8 -121 30 -239 62 -333 41 -121 82 -148 225 -148 129 0 188 28 231 112 23 45 24 108 4 203 -8 38 -17 111 -21 162 l-7 93 48 0 c74 0 251 -28 349 -56 113 -31 217 -75 299 -125 77 -45 99 -48 132 -14 l25 24 0 551 0 551 -25 24 c-29 30 -60 32 -100 4z m-25 -578 l0 -389 -93 39 c-157 64 -412 119 -557 119 l-50 0 0 230 0 230 50 0 c75 0 261 28 367 56 75 19 174 56 281 103 1 1 2 -174 2 -388z m-850 -1 l0 -250 -118 0 c-145 0 -198 16 -257 75 -98 98 -98 252 0 350 59 60 106 73 253 74 l122 1 0 -250z m3 -477 c4 -43 14 -124 24 -181 22 -133 20 -136 -80 -140 l-76 -3 -20 65 c-24 78 -38 155 -47 259 l-7 77 100 0 100 0 6 -77z" transform="translate(0.000000,160.000000) scale(0.100000,-0.100000)"/></g></svg>