<?xml version="1.0" standalone="no"?>
<!DOCTYPE svg PUBLIC "-//W3C//DTD SVG 20010904//EN"
 "http://www.w3.org/TR/2001/REC-SVG-20010904/DTD/svg10.dtd">
<svg version="1.0" xmlns="http://www.w3.org/2000/svg"
 width="160.000000pt" height="160.000000pt" viewBox="0 0 160.000000 160.000000"
 preserveAspectRatio="xMidYMid meet">
<metadata>
Created by potrace 1.14, written by Peter Selinger 2001-2017
</metadata>
<g transform="translate(0.000000,160.000000) scale(0.100000,-0.100000)"
fill="#000000" stroke="none">
<path d="M665 1589 c-228 -45 -412 -167 -534 -354 -204 -312 -162 -729 100
-994 107 -108 213 -169 367 -213 60 -17 104 -22 202 -22 129 -1 183 9 302 54
92 34 122 59 126 104 4 41 -10 63 -46 77 -19 7 -41 2 -103 -26 -111 -50 -203
-68 -314 -61 -173 11 -296 66 -421 191 -93 92 -154 201 -179 320 -31 146 -12
285 56 425 83 169 260 307 444 345 146 31 285 12 425 -56 119 -59 230 -170
289 -289 52 -106 71 -195 71 -335 0 -92 -3 -115 -20 -142 -37 -61 -108 -79
-167 -43 -50 30 -60 61 -65 201 -4 122 -5 129 -41 201 -44 91 -103 147 -195
191 -61 29 -76 32 -163 32 -90 0 -99 -2 -171 -37 -91 -45 -147 -103 -191 -196
-29 -61 -32 -76 -32 -163 0 -90 2 -99 37 -171 45 -91 103 -147 196 -191 61
-29 76 -32 162 -32 107 1 167 21 248 83 l44 34 42 -41 c108 -106 275 -105 383
1 65 64 83 122 83 267 0 66 -6 152 -14 193 -61 315 -281 550 -596 634 -69 19
-259 26 -325 13z m220 -556 c92 -31 165 -134 165 -233 0 -132 -118 -250 -250
-250 -60 0 -130 30 -175 75 -98 98 -98 252 0 350 69 70 164 91 260 58z"/>
</g>
</svg>
