<?xml version="1.0" standalone="no"?>
<!DOCTYPE svg PUBLIC "-//W3C//DTD SVG 20010904//EN"
 "http://www.w3.org/TR/2001/REC-SVG-20010904/DTD/svg10.dtd">
<svg version="1.0" xmlns="http://www.w3.org/2000/svg"
 width="160.000000pt" height="160.000000pt" viewBox="0 0 160.000000 160.000000"
 preserveAspectRatio="xMidYMid meet">
<metadata>
Created by potrace 1.14, written by Peter Selinger 2001-2017
</metadata>
<g transform="translate(0.000000,160.000000) scale(0.100000,-0.100000)"
fill="#000000" stroke="none">
<path d="M665 1589 c-347 -69 -601 -328 -655 -669 -58 -370 161 -741 513 -868
242 -88 501 -59 711 78 311 203 445 601 316 943 -22 59 -41 77 -83 77 -30 0
-67 -39 -67 -71 0 -13 10 -53 21 -89 29 -91 35 -226 15 -320 -40 -189 -175
-365 -346 -449 -193 -94 -387 -94 -580 0 -169 83 -307 260 -345 444 -73 349
155 697 505 771 94 20 229 14 320 -15 84 -27 112 -26 138 2 37 39 28 88 -21
114 -95 49 -322 76 -442 52z"/>
<path d="M1131 1236 l-216 -214 -35 13 c-145 55 -311 -51 -327 -208 -15 -145
102 -277 247 -277 166 0 293 177 235 330 l-13 35 214 216 c232 234 239 244
189 294 -50 50 -60 43 -294 -189z m-282 -350 c67 -35 65 -143 -4 -174 -91 -41
-179 51 -131 137 26 47 84 63 135 37z"/>
</g>
</svg>
