<?xml version="1.0" standalone="no"?>
<!DOCTYPE svg PUBLIC "-//W3C//DTD SVG 20010904//EN"
 "http://www.w3.org/TR/2001/REC-SVG-20010904/DTD/svg10.dtd">
<svg version="1.0" xmlns="http://www.w3.org/2000/svg"
 width="160.000000pt" height="160.000000pt" viewBox="0 0 160.000000 160.000000"
 preserveAspectRatio="xMidYMid meet">
<metadata>
Created by potrace 1.14, written by Peter Selinger 2001-2017
</metadata>
<g transform="translate(0.000000,160.000000) scale(0.100000,-0.100000)"
fill="#000000" stroke="none">
<path d="M725 1575 c-24 -23 -25 -30 -25 -149 l0 -125 -244 -3 -244 -3 -39
-31 c-71 -57 -74 -70 -71 -326 l3 -226 30 -38 c58 -71 71 -74 332 -74 l233 0
0 -275 0 -276 25 -24 c31 -32 69 -32 100 0 l25 24 0 276 0 275 198 0 c172 0
202 3 237 19 55 26 270 213 291 253 21 40 21 116 0 156 -21 40 -236 227 -291
253 -35 16 -65 19 -237 19 l-198 0 0 125 c0 120 -1 127 -25 150 -13 14 -36 25
-50 25 -14 0 -37 -11 -50 -25z m606 -517 c60 -50 109 -99 109 -108 0 -9 -49
-58 -109 -108 l-109 -92 -484 2 -483 3 -3 185 c-1 101 0 190 2 197 4 10 104
13 487 13 l481 0 109 -92z"/>
</g>
</svg>
