<?xml version="1.0" standalone="no"?>
<!DOCTYPE svg PUBLIC "-//W3C//DTD SVG 20010904//EN"
 "http://www.w3.org/TR/2001/REC-SVG-20010904/DTD/svg10.dtd">
<svg version="1.0" xmlns="http://www.w3.org/2000/svg"
 width="160.000000pt" height="160.000000pt" viewBox="0 0 160.000000 160.000000"
 preserveAspectRatio="xMidYMid meet">
<metadata>
Created by potrace 1.14, written by Peter Selinger 2001-2017
</metadata>
<g transform="translate(0.000000,160.000000) scale(0.100000,-0.100000)"
fill="#000000" stroke="none">
<path d="M753 1481 c-26 -24 -36 -76 -23 -120 23 -82 117 -82 140 0 20 70 -15
139 -70 139 -14 0 -36 -9 -47 -19z"/>
<path d="M25 1275 l-25 -24 0 -451 0 -451 25 -24 c36 -36 68 -32 123 17 75 69
426 401 439 418 7 8 12 26 12 40 0 14 -5 32 -12 40 -13 17 -364 349 -439 418
-55 49 -87 53 -123 17z m385 -475 c0 -3 -58 -61 -130 -129 l-130 -123 0 252 0
252 130 -123 c72 -68 130 -126 130 -129z"/>
<path d="M1447 1253 c-97 -90 -422 -398 -434 -413 -7 -8 -12 -26 -12 -40 0
-14 5 -32 12 -40 12 -15 337 -323 434 -412 60 -55 91 -61 128 -23 l25 24 0
451 0 451 -25 24 c-37 38 -68 32 -128 -22z m1 -577 l-3 -123 -130 123 -130
124 130 124 130 123 3 -123 c1 -68 1 -180 0 -248z"/>
<path d="M753 1181 c-26 -24 -36 -76 -23 -120 23 -82 117 -82 140 0 20 70 -15
139 -70 139 -14 0 -36 -9 -47 -19z"/>
<path d="M753 881 c-26 -24 -36 -76 -23 -120 23 -82 117 -82 140 0 20 70 -15
139 -70 139 -14 0 -36 -9 -47 -19z"/>
<path d="M753 581 c-26 -24 -36 -76 -23 -120 23 -82 117 -82 140 0 20 70 -15
139 -70 139 -14 0 -36 -9 -47 -19z"/>
<path d="M753 281 c-26 -24 -36 -76 -23 -120 23 -82 117 -82 140 0 28 97 -53
179 -117 120z"/>
</g>
</svg>
