<svg xmlns="http://www.w3.org/2000/svg" width="213.333" height="213.333" preserveAspectRatio="xMidYMid meet" version="1.0" viewBox="0 0 160 160"><metadata>Created by potrace 1.14, written by Peter Selinger 2001-2017</metadata><g fill="#000" stroke="none"><path d="M960 1440 c-24 -24 -25 -58 -4 -125 20 -68 20 -209 -1 -281 -56 -193 -196 -334 -388 -389 -73 -21 -214 -21 -282 -1 -67 21 -101 20 -125 -4 -28 -28 -25 -71 9 -140 73 -146 181 -255 323 -324 206 -101 407 -101 618 1 80 38 109 59 181 132 73 72 94 101 132 181 102 211 102 412 1 618 -69 142 -178 250 -324 323 -69 34 -112 37 -140 9z m232 -257 c95 -101 144 -209 155 -344 7 -93 -15 -201 -59 -291 -42 -84 -152 -194 -236 -236 -171 -84 -371 -79 -531 15 -48 28 -161 130 -161 145 0 4 37 8 83 8 106 0 191 21 297 72 69 33 101 57 176 132 75 75 99 107 132 176 51 106 72 191 72 298 0 45 4 82 8 82 5 0 34 -26 64 -57z" transform="translate(0.000000,160.000000) scale(0.100000,-0.100000)"/></g></svg>