<svg xmlns="http://www.w3.org/2000/svg" width="213.333" height="213.333" preserveAspectRatio="xMidYMid meet" version="1.0" viewBox="0 0 160 160"><metadata>Created by potrace 1.14, written by Peter Selinger 2001-2017</metadata><g fill="#000" stroke="none"><path d="M401 1329 c-205 -92 -379 -176 -387 -186 -17 -23 -17 -63 0 -86 8 -10 63 -39 122 -66 l109 -49 3 -120 c2 -114 1 -121 -18 -127 -33 -11 -79 -55 -103 -99 -20 -38 -22 -57 -25 -243 l-3 -202 25 -26 c25 -25 26 -25 201 -25 175 0 176 0 201 25 l25 26 -3 202 c-3 186 -5 205 -25 243 -23 44 -70 88 -103 99 -18 6 -20 15 -20 91 0 46 2 84 3 84 2 0 88 -38 192 -85 103 -47 196 -85 205 -85 10 0 93 34 185 75 91 41 167 75 168 75 1 0 0 -53 -3 -118 -3 -79 -10 -125 -19 -135 -43 -52 -203 -97 -348 -97 -87 0 -93 -1 -112 -26 -38 -49 -17 -105 45 -120 41 -10 222 3 289 21 145 39 262 122 284 201 6 22 11 107 11 190 l0 151 131 58 c72 32 140 68 150 79 22 23 24 63 4 89 -16 23 -759 357 -789 356 -11 0 -189 -77 -395 -170z m667 -106 c144 -65 262 -120 262 -123 0 -3 -119 -59 -265 -124 l-264 -118 -266 118 c-146 65 -265 121 -265 124 0 6 508 237 525 239 6 1 128 -52 273 -116z m-697 -672 c23 -18 24 -26 27 -160 l4 -141 -77 0 -77 0 4 141 c3 134 4 142 27 160 13 10 33 19 46 19 13 0 33 -9 46 -19z" transform="translate(0.000000,160.000000) scale(0.100000,-0.100000)"/></g></svg>