<svg xmlns="http://www.w3.org/2000/svg" width="213.333" height="213.333" preserveAspectRatio="xMidYMid meet" version="1.0" viewBox="0 0 160 160"><metadata>Created by potrace 1.14, written by Peter Selinger 2001-2017</metadata><g fill="#000" stroke="none"><path d="M683 1385 c-12 -8 -92 -76 -178 -149 l-156 -134 -119 -4 c-114 -3 -119 -4 -156 -33 -68 -55 -74 -78 -74 -265 0 -187 6 -210 74 -265 37 -29 42 -30 156 -33 l119 -4 156 -134 c86 -73 166 -141 178 -149 31 -22 64 -18 92 10 l25 24 0 551 0 551 -25 24 c-28 28 -61 32 -92 10z m-33 -586 l0 -360 -91 78 c-162 140 -137 127 -279 133 l-125 5 0 145 0 145 126 5 126 5 44 36 c24 21 78 66 119 102 41 37 76 66 78 67 1 0 2 -162 2 -361z" transform="translate(0.000000,160.000000) scale(0.100000,-0.100000)"/><path d="M1022 1077 c-42 -45 -31 -71 75 -178 l97 -99 -97 -99 c-107 -108 -119 -137 -74 -179 45 -42 71 -31 178 75 l99 97 99 -97 c108 -107 137 -119 179 -74 42 45 31 71 -75 178 l-97 99 98 100 c93 94 98 102 92 132 -8 41 -23 56 -64 64 -30 6 -38 1 -132 -92 l-100 -98 -99 97 c-108 107 -137 119 -179 74z" transform="translate(0.000000,160.000000) scale(0.100000,-0.100000)"/></g></svg>