<?xml version="1.0" standalone="no"?>
<!DOCTYPE svg PUBLIC "-//W3C//DTD SVG 20010904//EN"
 "http://www.w3.org/TR/2001/REC-SVG-20010904/DTD/svg10.dtd">
<svg version="1.0" xmlns="http://www.w3.org/2000/svg"
 width="160.000000pt" height="160.000000pt" viewBox="0 0 160.000000 160.000000"
 preserveAspectRatio="xMidYMid meet">
<metadata>
Created by potrace 1.14, written by Peter Selinger 2001-2017
</metadata>
<g transform="translate(0.000000,160.000000) scale(0.100000,-0.100000)"
fill="#000000" stroke="none">
<path d="M655 1484 c-109 -21 -243 -92 -331 -176 -181 -172 -256 -400 -210
-641 62 -322 359 -567 686 -567 262 0 508 155 624 392 113 231 99 474 -40 688
-156 242 -441 361 -729 304z m319 -163 c165 -58 291 -185 348 -349 32 -95 32
-249 0 -344 -57 -165 -185 -293 -351 -350 -94 -32 -248 -32 -342 0 -165 57
-294 186 -351 350 -32 95 -32 249 0 344 66 191 231 333 432 372 54 10 206 -3
264 -23z"/>
<path d="M420 848 c-37 -40 -21 -97 34 -118 37 -14 655 -14 692 0 55 21 71 78
34 118 -21 22 -23 22 -380 22 -357 0 -359 0 -380 -22z"/>
</g>
</svg>
