<svg xmlns="http://www.w3.org/2000/svg" width="213.333" height="213.333" preserveAspectRatio="xMidYMid meet" version="1.0" viewBox="0 0 160 160"><metadata>Created by potrace 1.14, written by Peter Selinger 2001-2017</metadata><g fill="#000" stroke="none"><path d="M725 1575 l-25 -24 0 -273 0 -272 -143 142 c-157 155 -175 165 -222 117 -48 -47 -38 -65 117 -222 l142 -143 -272 0 -273 0 -24 -25 c-32 -31 -32 -69 0 -100 l24 -25 273 0 272 0 -142 -143 c-155 -157 -165 -175 -117 -222 47 -48 65 -38 222 117 l143 142 0 -272 0 -273 25 -24 c31 -32 69 -32 100 0 l25 24 0 273 0 272 143 -142 c157 -155 175 -165 222 -117 48 47 38 65 -117 222 l-142 143 272 0 273 0 24 25 c32 31 32 69 0 100 l-24 25 -273 0 -272 0 142 143 c78 79 142 151 142 160 0 45 -42 87 -87 87 -9 0 -81 -64 -160 -142 l-143 -142 0 272 0 273 -25 24 c-13 14 -36 25 -50 25 -14 0 -37 -11 -50 -25z" transform="translate(0.000000,160.000000) scale(0.100000,-0.100000)"/></g></svg>