<?xml version="1.0" standalone="no"?>
<!DOCTYPE svg PUBLIC "-//W3C//DTD SVG 20010904//EN"
 "http://www.w3.org/TR/2001/REC-SVG-20010904/DTD/svg10.dtd">
<svg version="1.0" xmlns="http://www.w3.org/2000/svg"
 width="160.000000pt" height="160.000000pt" viewBox="0 0 160.000000 160.000000"
 preserveAspectRatio="xMidYMid meet">
<metadata>
Created by potrace 1.14, written by Peter Selinger 2001-2017
</metadata>
<g transform="translate(0.000000,160.000000) scale(0.100000,-0.100000)"
fill="#000000" stroke="none">
<path d="M105 1384 c-47 -24 -84 -65 -96 -104 -6 -22 -9 -201 -7 -502 l3 -466
30 -38 c64 -78 18 -74 765 -74 747 0 701 -4 765 74 l30 38 0 488 0 488 -30 38
c-64 78 -18 74 -765 74 -582 0 -669 -2 -695 -16z m1340 -584 l0 -445 -645 0
-645 0 -3 435 c-1 239 0 441 3 448 3 10 138 12 647 10 l643 -3 0 -445z"/>
<path d="M375 1025 c-14 -13 -25 -36 -25 -50 0 -14 11 -37 25 -50 l24 -25 376
0 376 0 24 25 c32 31 32 69 0 100 l-24 25 -376 0 -376 0 -24 -25z"/>
<path d="M375 725 c-14 -13 -25 -36 -25 -50 0 -14 11 -37 25 -50 l24 -25 226
0 226 0 24 25 c14 13 25 36 25 50 0 14 -11 37 -25 50 l-24 25 -226 0 -226 0
-24 -25z"/>
</g>
</svg>
