<svg xmlns="http://www.w3.org/2000/svg" width="213.333" height="213.333" preserveAspectRatio="xMidYMid meet" version="1.0" viewBox="0 0 160 160"><metadata>Created by potrace 1.14, written by Peter Selinger 2001-2017</metadata><g fill="#000" stroke="none"><path d="M105 1384 c-47 -24 -84 -65 -96 -104 -6 -22 -9 -201 -7 -502 l3 -466 30 -38 c64 -78 18 -74 765 -74 747 0 701 -4 765 74 l30 38 0 488 0 488 -30 38 c-64 78 -18 74 -765 74 -582 0 -669 -2 -695 -16z m1340 -584 l0 -445 -645 0 -645 0 -3 435 c-1 239 0 441 3 448 3 10 138 12 647 10 l643 -3 0 -445z" transform="translate(0.000000,160.000000) scale(0.100000,-0.100000)"/><path d="M375 1025 c-14 -13 -25 -36 -25 -50 0 -14 11 -37 25 -50 l24 -25 376 0 376 0 24 25 c32 31 32 69 0 100 l-24 25 -376 0 -376 0 -24 -25z" transform="translate(0.000000,160.000000) scale(0.100000,-0.100000)"/><path d="M375 725 c-14 -13 -25 -36 -25 -50 0 -14 11 -37 25 -50 l24 -25 226 0 226 0 24 25 c14 13 25 36 25 50 0 14 -11 37 -25 50 l-24 25 -226 0 -226 0 -24 -25z" transform="translate(0.000000,160.000000) scale(0.100000,-0.100000)"/></g></svg>