<?xml version="1.0" standalone="no"?>
<!DOCTYPE svg PUBLIC "-//W3C//DTD SVG 20010904//EN"
 "http://www.w3.org/TR/2001/REC-SVG-20010904/DTD/svg10.dtd">
<svg version="1.0" xmlns="http://www.w3.org/2000/svg"
 width="160.000000pt" height="160.000000pt" viewBox="0 0 160.000000 160.000000"
 preserveAspectRatio="xMidYMid meet">
<metadata>
Created by potrace 1.14, written by Peter Selinger 2001-2017
</metadata>
<g transform="translate(0.000000,160.000000) scale(0.100000,-0.100000)"
fill="#000000" stroke="none">
<path d="M129 1363 c-16 -55 -23 -212 -10 -257 9 -36 8 -42 -18 -75 -75 -95
-106 -208 -98 -356 11 -180 55 -295 151 -390 73 -72 133 -105 246 -138 206
-60 558 -62 777 -7 229 59 369 205 408 427 34 190 5 348 -86 464 -25 32 -27
40 -19 70 15 52 12 176 -7 242 l-16 59 -54 -6 c-64 -7 -155 -44 -232 -93 l-54
-35 -66 14 c-88 17 -414 17 -502 0 l-65 -14 -67 42 c-77 48 -186 89 -239 90
-34 0 -38 -3 -49 -37z m1106 -587 c53 -23 101 -70 133 -131 23 -43 27 -62 26
-132 -1 -182 -100 -273 -329 -303 -96 -13 -447 -12 -541 1 -219 30 -317 123
-318 303 -1 71 2 87 28 133 38 69 85 112 143 132 43 14 101 17 434 16 339 -1
389 -4 424 -19z"/>
<path d="M486 668 c-117 -117 -31 -383 102 -314 120 62 97 323 -30 343 -33 5
-42 1 -72 -29z"/>
<path d="M1014 690 c-57 -23 -95 -135 -76 -220 14 -62 36 -97 74 -116 132 -68
219 197 103 313 -33 33 -61 40 -101 23z"/>
</g>
</svg>
