<?xml version="1.0" standalone="no"?>
<!DOCTYPE svg PUBLIC "-//W3C//DTD SVG 20010904//EN"
 "http://www.w3.org/TR/2001/REC-SVG-20010904/DTD/svg10.dtd">
<svg version="1.0" xmlns="http://www.w3.org/2000/svg"
 width="160.000000pt" height="160.000000pt" viewBox="0 0 160.000000 160.000000"
 preserveAspectRatio="xMidYMid meet">
<metadata>
Created by potrace 1.14, written by Peter Selinger 2001-2017
</metadata>
<g transform="translate(0.000000,160.000000) scale(0.100000,-0.100000)"
fill="#000000" stroke="none">
<path d="M105 1584 c-16 -8 -41 -25 -54 -37 -52 -48 -51 -37 -51 -749 0 -744
-4 -699 74 -763 l38 -30 194 -3 194 -3 25 25 c22 22 25 33 25 101 l0 75 50 0
50 0 0 -75 c0 -67 3 -79 25 -100 l24 -25 383 0 c430 0 421 -1 483 74 l30 38 3
346 c3 418 7 403 -121 489 -87 59 -116 64 -152 28 -48 -47 -29 -91 65 -151
l60 -39 -2 -315 -3 -315 -122 -3 -123 -3 0 658 c0 739 4 694 -74 758 l-38 30
-476 3 c-418 2 -481 0 -507 -14z m940 -784 l0 -645 -122 -3 -123 -3 0 76 c0
67 -3 79 -25 100 -23 24 -28 25 -175 25 -147 0 -152 -1 -175 -25 -22 -21 -25
-33 -25 -100 l0 -76 -122 3 -123 3 -3 635 c-1 349 0 641 3 648 3 10 98 12 447
10 l443 -3 0 -645z"/>
<path d="M325 1275 c-14 -13 -25 -36 -25 -50 0 -14 11 -37 25 -50 35 -36 115
-36 150 0 32 31 32 69 0 100 -19 20 -34 25 -75 25 -41 0 -56 -5 -75 -25z"/>
<path d="M725 1275 c-14 -13 -25 -36 -25 -50 0 -14 11 -37 25 -50 35 -36 115
-36 150 0 32 31 32 69 0 100 -19 20 -34 25 -75 25 -41 0 -56 -5 -75 -25z"/>
<path d="M325 975 c-14 -13 -25 -36 -25 -50 0 -14 11 -37 25 -50 35 -36 115
-36 150 0 32 31 32 69 0 100 -19 20 -34 25 -75 25 -41 0 -56 -5 -75 -25z"/>
<path d="M725 975 c-14 -13 -25 -36 -25 -50 0 -14 11 -37 25 -50 35 -36 115
-36 150 0 32 31 32 69 0 100 -19 20 -34 25 -75 25 -41 0 -56 -5 -75 -25z"/>
<path d="M325 675 c-14 -13 -25 -36 -25 -50 0 -14 11 -37 25 -50 35 -36 115
-36 150 0 32 31 32 69 0 100 -19 20 -34 25 -75 25 -41 0 -56 -5 -75 -25z"/>
<path d="M725 675 c-14 -13 -25 -36 -25 -50 0 -14 11 -37 25 -50 35 -36 115
-36 150 0 32 31 32 69 0 100 -19 20 -34 25 -75 25 -41 0 -56 -5 -75 -25z"/>
</g>
</svg>
