<?xml version="1.0" standalone="no"?>
<!DOCTYPE svg PUBLIC "-//W3C//DTD SVG 20010904//EN"
 "http://www.w3.org/TR/2001/REC-SVG-20010904/DTD/svg10.dtd">
<svg version="1.0" xmlns="http://www.w3.org/2000/svg"
 width="160.000000pt" height="160.000000pt" viewBox="0 0 160.000000 160.000000"
 preserveAspectRatio="xMidYMid meet">
<metadata>
Created by potrace 1.14, written by Peter Selinger 2001-2017
</metadata>
<g transform="translate(0.000000,160.000000) scale(0.100000,-0.100000)"
fill="#000000" stroke="none">
<path d="M456 1412 c-212 -123 -298 -178 -320 -206 l-31 -38 0 -368 0 -368 31
-38 c22 -28 108 -83 320 -206 278 -162 291 -168 344 -168 53 0 66 6 330 158
286 165 352 214 363 271 4 19 7 182 7 363 0 365 -1 374 -65 425 -17 14 -155
97 -306 184 -263 153 -276 159 -329 159 -53 0 -66 -6 -344 -168z m586 -114
c174 -101 225 -135 215 -144 -14 -12 -424 -250 -447 -259 -12 -4 -446 237
-472 263 -9 9 439 271 461 272 8 0 117 -59 243 -132z m-502 -434 l175 -102 3
-277 c1 -152 -1 -274 -5 -272 -5 2 -110 64 -235 137 l-228 132 0 275 0 274 58
-32 c31 -18 136 -79 232 -135z m803 -385 c-5 -4 -91 -55 -193 -114 -102 -59
-204 -119 -228 -132 l-42 -25 2 277 3 277 230 134 230 133 3 -271 c1 -150 -1
-275 -5 -279z"/>
</g>
</svg>
