<svg xmlns="http://www.w3.org/2000/svg" width="213.333" height="213.333" preserveAspectRatio="xMidYMid meet" version="1.0" viewBox="0 0 160 160"><metadata>Created by potrace 1.14, written by Peter Selinger 2001-2017</metadata><g fill="#000" stroke="none"><path d="M356 1412 c-212 -123 -298 -178 -320 -206 l-31 -38 0 -368 0 -368 31 -38 c22 -27 109 -84 319 -206 300 -174 326 -185 373 -152 45 31 47 42 52 392 l5 334 230 134 230 133 5 -95 c4 -85 8 -98 29 -115 32 -26 67 -24 96 6 24 23 25 28 25 171 0 163 -9 196 -65 241 -17 14 -155 97 -306 184 -263 153 -276 159 -329 159 -53 0 -66 -6 -344 -168z m586 -114 c174 -101 225 -135 215 -144 -14 -12 -424 -250 -447 -259 -12 -4 -446 237 -472 263 -9 9 439 271 461 272 8 0 117 -59 243 -132z m-502 -434 l175 -102 3 -277 c1 -152 -1 -274 -5 -272 -5 2 -110 64 -235 136 l-228 133 0 275 0 274 58 -32 c31 -18 136 -79 232 -135z" transform="translate(0.000000,160.000000) scale(0.100000,-0.100000)"/><path d="M1239 631 c-16 -13 -23 -29 -23 -55 0 -32 9 -45 69 -106 l69 -70 -177 0 c-176 0 -178 0 -202 -25 -14 -13 -25 -36 -25 -50 0 -14 11 -37 25 -50 24 -25 26 -25 202 -25 l177 0 -69 -70 c-60 -61 -69 -74 -69 -106 0 -26 7 -42 23 -55 49 -40 66 -30 214 123 136 140 155 168 143 205 -3 11 -68 83 -144 161 -147 153 -164 163 -213 123z" transform="translate(0.000000,160.000000) scale(0.100000,-0.100000)"/></g></svg>