<?xml version="1.0" standalone="no"?>
<!DOCTYPE svg PUBLIC "-//W3C//DTD SVG 20010904//EN"
 "http://www.w3.org/TR/2001/REC-SVG-20010904/DTD/svg10.dtd">
<svg version="1.0" xmlns="http://www.w3.org/2000/svg"
 width="160.000000pt" height="160.000000pt" viewBox="0 0 160.000000 160.000000"
 preserveAspectRatio="xMidYMid meet">
<metadata>
Created by potrace 1.14, written by Peter Selinger 2001-2017
</metadata>
<g transform="translate(0.000000,160.000000) scale(0.100000,-0.100000)"
fill="#000000" stroke="none">
<path d="M1347 1569 c-48 -11 -126 -51 -202 -102 -207 -138 -598 -527 -668
-663 -16 -31 -18 -32 -100 -36 -135 -7 -237 -70 -293 -180 -45 -88 -84 -310
-84 -473 0 -57 3 -69 25 -90 21 -22 33 -25 90 -25 163 0 385 39 473 84 109 55
173 159 180 290 l4 81 87 55 c63 40 134 103 267 235 283 282 416 464 445 608
20 100 -29 192 -116 216 -45 12 -55 12 -108 0z m78 -150 c13 -20 -18 -101 -68
-178 -59 -91 -159 -212 -278 -335 l-88 -91 -85 85 -86 84 43 44 c60 62 251
230 322 283 77 58 123 86 171 103 48 18 61 19 69 5z m-556 -715 c-6 -7 -42
-34 -80 -60 l-69 -47 -21 26 c-26 34 -42 50 -75 76 l-26 20 23 33 c12 18 38
54 58 81 l35 47 83 -82 c61 -61 80 -85 72 -94z m-371 -103 c80 -41 122 -111
122 -201 0 -66 -21 -119 -62 -157 -44 -41 -162 -72 -341 -88 l-68 -7 6 74 c27
300 86 397 243 398 43 0 75 -6 100 -19z"/>
</g>
</svg>
