<?xml version="1.0" standalone="no"?>
<!DOCTYPE svg PUBLIC "-//W3C//DTD SVG 20010904//EN"
 "http://www.w3.org/TR/2001/REC-SVG-20010904/DTD/svg10.dtd">
<svg version="1.0" xmlns="http://www.w3.org/2000/svg"
 width="160.000000pt" height="160.000000pt" viewBox="0 0 160.000000 160.000000"
 preserveAspectRatio="xMidYMid meet">
<metadata>
Created by potrace 1.14, written by Peter Selinger 2001-2017
</metadata>
<g transform="translate(0.000000,160.000000) scale(0.100000,-0.100000)"
fill="#000000" stroke="none">
<path d="M81 1472 c-50 -25 -74 -63 -73 -114 0 -24 21 -159 46 -300 l45 -258
-49 -280 c-52 -299 -53 -320 -9 -366 27 -29 82 -48 117 -41 58 12 1388 589
1412 613 20 19 25 34 25 74 0 40 -5 55 -25 74 -29 29 -1392 616 -1430 616 -14
0 -40 -8 -59 -18z m742 -427 c306 -132 557 -242 557 -245 0 -6 -1213 -530
-1217 -526 -1 1 14 101 35 222 l38 219 260 6 c142 3 260 6 261 7 27 25 43 51
43 72 0 14 -9 36 -20 48 -20 22 -26 22 -280 22 l-260 0 -5 23 c-2 12 -18 103
-35 202 -17 99 -33 192 -36 208 l-6 27 54 -23 c29 -13 304 -131 611 -262z"/>
</g>
</svg>
