<?xml version="1.0" standalone="no"?>
<!DOCTYPE svg PUBLIC "-//W3C//DTD SVG 20010904//EN"
 "http://www.w3.org/TR/2001/REC-SVG-20010904/DTD/svg10.dtd">
<svg version="1.0" xmlns="http://www.w3.org/2000/svg"
 width="160.000000pt" height="160.000000pt" viewBox="0 0 160.000000 160.000000"
 preserveAspectRatio="xMidYMid meet">
<metadata>
Created by potrace 1.14, written by Peter Selinger 2001-2017
</metadata>
<g transform="translate(0.000000,160.000000) scale(0.100000,-0.100000)"
fill="#000000" stroke="none">
<path d="M453 1386 c-103 -34 -176 -98 -222 -196 -22 -46 -26 -69 -26 -140 0
-76 4 -93 32 -151 18 -36 41 -74 52 -83 20 -18 19 -19 -37 -56 -132 -86 -242
-258 -242 -380 0 -58 51 -94 105 -74 19 8 45 55 45 82 0 38 70 159 116 202 25
23 75 56 112 73 61 29 76 32 162 32 86 0 101 -3 162 -32 37 -17 87 -50 112
-73 46 -43 116 -164 116 -202 0 -27 26 -74 45 -82 54 -20 105 16 105 76 0 44
-32 137 -67 197 -38 65 -109 138 -175 181 -56 37 -57 38 -37 56 11 9 34 47 52
83 28 58 32 75 32 151 0 71 -4 94 -26 141 -58 124 -169 199 -302 205 -43 3
-89 -2 -114 -10z m207 -170 c59 -39 85 -89 85 -166 0 -78 -26 -127 -88 -168
-56 -37 -153 -39 -210 -3 -76 47 -111 140 -88 229 14 51 75 117 123 131 53 16
135 6 178 -23z"/>
<path d="M1053 1181 c-48 -46 -16 -131 49 -131 74 0 148 -75 148 -150 0 -46
-34 -103 -78 -133 -29 -19 -41 -34 -44 -59 -8 -51 9 -97 40 -110 149 -60 204
-107 253 -214 40 -88 86 -108 134 -59 33 32 31 64 -5 140 -35 73 -103 153
-169 197 -25 17 -47 32 -49 33 -1 1 12 30 30 65 29 55 33 73 33 139 0 86 -21
143 -74 204 -41 46 -124 87 -192 94 -46 4 -57 2 -76 -16z"/>
</g>
</svg>
