<svg xmlns="http://www.w3.org/2000/svg" width="213.333" height="213.333" preserveAspectRatio="xMidYMid meet" version="1.0" viewBox="0 0 160 160"><metadata>Created by potrace 1.14, written by Peter Selinger 2001-2017</metadata><g fill="#000" stroke="none"><path d="M706 1490 c-63 -16 -153 -70 -197 -117 -22 -24 -55 -74 -72 -111 -29 -61 -32 -76 -32 -162 0 -86 3 -101 31 -161 18 -37 48 -84 68 -106 l36 -40 -59 -36 c-75 -47 -167 -145 -209 -224 -35 -66 -72 -195 -72 -250 0 -41 37 -83 73 -83 46 0 67 29 82 111 18 106 57 183 129 254 180 180 454 180 631 1 79 -80 134 -198 135 -287 0 -40 36 -79 71 -79 42 0 79 39 79 83 0 55 -37 184 -72 250 -42 79 -134 177 -209 224 l-59 36 36 40 c20 22 50 69 68 106 28 60 31 75 31 162 0 90 -2 99 -37 171 -68 136 -188 217 -336 224 -42 2 -94 -1 -116 -6z m179 -157 c92 -31 165 -134 165 -233 0 -60 -30 -130 -75 -175 -98 -98 -252 -98 -350 0 -98 98 -98 252 0 350 69 70 164 91 260 58z" transform="translate(0.000000,160.000000) scale(0.100000,-0.100000)"/></g></svg>