<svg xmlns="http://www.w3.org/2000/svg" width="213.333" height="213.333" preserveAspectRatio="xMidYMid meet" version="1.0" viewBox="0 0 160 160"><metadata>Created by potrace 1.14, written by Peter Selinger 2001-2017</metadata><g fill="#000" stroke="none"><path d="M510 1568 c-26 -7 -90 -65 -252 -226 -190 -190 -218 -223 -228 -262 -16 -57 0 -123 38 -164 15 -16 70 -49 122 -74 179 -84 210 -127 265 -358 20 -83 45 -165 55 -182 38 -62 127 -94 197 -72 27 9 76 50 166 138 l127 126 198 -197 c215 -214 228 -222 277 -172 50 49 42 62 -172 277 l-197 198 126 127 c88 90 129 139 138 166 22 71 -10 159 -72 197 -18 10 -99 35 -182 55 -231 55 -275 87 -359 265 -47 101 -81 140 -136 159 -40 13 -63 13 -111 -1z m132 -260 c95 -190 168 -243 426 -306 100 -24 153 -41 157 -51 8 -21 -555 -584 -576 -576 -10 4 -27 57 -51 157 -21 83 -49 176 -64 207 -45 91 -126 164 -248 222 -58 28 -109 55 -112 61 -8 12 386 410 401 405 5 -2 36 -56 67 -119z" transform="translate(0.000000,160.000000) scale(0.100000,-0.100000)"/></g></svg>