<svg xmlns="http://www.w3.org/2000/svg" width="213.333" height="213.333" preserveAspectRatio="xMidYMid meet" version="1.0" viewBox="0 0 160 160"><metadata>Created by potrace 1.14, written by Peter Selinger 2001-2017</metadata><g fill="#000" stroke="none"><path d="M665 1589 c-349 -69 -597 -323 -656 -673 -40 -234 51 -505 226 -681 154 -154 340 -230 565 -230 225 0 411 76 565 230 154 154 230 340 230 565 0 174 -36 297 -125 433 -112 173 -271 287 -480 344 -68 18 -258 25 -325 12z m270 -154 c184 -38 361 -176 444 -345 94 -193 94 -387 0 -580 -59 -119 -170 -230 -289 -289 -140 -68 -279 -87 -425 -56 -184 38 -361 176 -444 345 -94 192 -94 387 0 580 33 67 59 102 124 166 162 161 372 225 590 179z" transform="translate(0.000000,160.000000) scale(0.100000,-0.100000)"/><path d="M607 1073 c-4 -3 -7 -127 -7 -275 0 -234 2 -269 16 -275 20 -7 459 257 459 277 0 14 -427 280 -450 280 -7 0 -15 -3 -18 -7z" transform="translate(0.000000,160.000000) scale(0.100000,-0.100000)"/></g></svg>