<?xml version="1.0" standalone="no"?>
<!DOCTYPE svg PUBLIC "-//W3C//DTD SVG 20010904//EN"
 "http://www.w3.org/TR/2001/REC-SVG-20010904/DTD/svg10.dtd">
<svg version="1.0" xmlns="http://www.w3.org/2000/svg"
 width="160.000000pt" height="160.000000pt" viewBox="0 0 160.000000 160.000000"
 preserveAspectRatio="xMidYMid meet">
<metadata>
Created by potrace 1.14, written by Peter Selinger 2001-2017
</metadata>
<g transform="translate(0.000000,160.000000) scale(0.100000,-0.100000)"
fill="#000000" stroke="none">
<path d="M975 1431 c-22 -10 -63 -45 -91 -77 l-52 -60 -147 -17 c-164 -20
-188 -27 -229 -65 -43 -41 -56 -81 -56 -177 l0 -85 -93 0 c-118 0 -176 -19
-232 -75 -71 -70 -75 -95 -75 -432 l0 -294 25 -24 c13 -14 36 -25 50 -25 14 0
37 11 50 25 l25 24 0 286 c0 310 3 329 55 353 14 7 64 12 110 12 l85 0 0 -109
c0 -120 8 -152 48 -195 40 -43 74 -53 236 -72 l148 -18 54 -62 c66 -75 108
-94 207 -94 85 0 126 18 171 74 26 32 31 48 34 107 l4 69 125 0 c118 0 125 1
148 25 32 31 32 69 0 100 -23 24 -30 25 -150 25 l-125 0 0 200 0 200 125 0
c120 0 127 1 150 25 14 13 25 36 25 50 0 14 -11 37 -25 50 -23 24 -30 25 -148
25 l-125 0 -4 69 c-3 59 -8 75 -34 107 -46 57 -86 74 -174 74 -51 0 -88 -6
-115 -19z m170 -581 l0 -445 -55 -3 -55 -3 -58 70 c-31 38 -65 72 -75 75 -9 3
-88 14 -175 25 -87 11 -162 23 -167 26 -13 8 -13 502 0 510 5 3 80 15 167 26
87 11 166 22 175 25 10 3 44 37 75 75 l58 70 55 -3 55 -3 0 -445z"/>
</g>
</svg>
