<?xml version="1.0" standalone="no"?>
<!DOCTYPE svg PUBLIC "-//W3C//DTD SVG 20010904//EN"
 "http://www.w3.org/TR/2001/REC-SVG-20010904/DTD/svg10.dtd">
<svg version="1.0" xmlns="http://www.w3.org/2000/svg"
 width="160.000000pt" height="160.000000pt" viewBox="0 0 160.000000 160.000000"
 preserveAspectRatio="xMidYMid meet">
<metadata>
Created by potrace 1.14, written by Peter Selinger 2001-2017
</metadata>
<g transform="translate(0.000000,160.000000) scale(0.100000,-0.100000)"
fill="#000000" stroke="none">
<path d="M665 1589 c-221 -43 -405 -163 -525 -340 -97 -141 -134 -268 -134
-449 -1 -225 75 -410 229 -565 154 -154 340 -230 565 -230 225 0 411 76 565
230 154 154 230 340 230 565 0 174 -36 297 -125 433 -112 173 -271 287 -480
344 -68 18 -258 25 -325 12z m270 -154 c184 -38 361 -176 444 -345 94 -193 94
-387 0 -580 -59 -119 -170 -230 -289 -289 -140 -68 -279 -87 -425 -56 -184 38
-361 176 -444 345 -94 192 -94 387 0 580 33 67 59 102 124 166 162 161 372
225 590 179z"/>
<path d="M757 1186 c-28 -21 -37 -71 -37 -198 l0 -118 -140 0 c-130 0 -141 -1
-160 -22 -23 -25 -26 -65 -6 -90 22 -30 64 -38 187 -38 l119 0 0 -113 c0 -160
18 -206 80 -206 62 0 80 46 80 206 l0 113 119 0 c123 0 165 8 187 38 20 25 17
65 -6 90 -19 21 -30 22 -160 22 l-140 0 0 118 c0 127 -9 177 -37 198 -23 17
-63 17 -86 0z"/>
</g>
</svg>
