<svg xmlns="http://www.w3.org/2000/svg" width="213.333" height="213.333" preserveAspectRatio="xMidYMid meet" version="1.0" viewBox="0 0 160 160"><metadata>Created by potrace 1.14, written by Peter Selinger 2001-2017</metadata><g fill="#000" stroke="none"><path d="M757 1386 c-31 -24 -37 -74 -37 -298 l0 -218 -240 0 c-233 0 -240 -1 -260 -22 -37 -40 -21 -97 34 -118 16 -6 119 -10 247 -10 l219 0 0 -213 c0 -116 4 -227 10 -246 23 -82 117 -82 140 0 6 19 10 130 10 246 l0 213 219 0 c128 0 231 4 247 10 55 21 71 78 34 118 -20 21 -27 22 -260 22 l-240 0 0 218 c0 224 -6 274 -37 298 -23 17 -63 17 -86 0z" transform="translate(0.000000,160.000000) scale(0.100000,-0.100000)"/></g></svg>