<?xml version="1.0" standalone="no"?>
<!DOCTYPE svg PUBLIC "-//W3C//DTD SVG 20010904//EN"
 "http://www.w3.org/TR/2001/REC-SVG-20010904/DTD/svg10.dtd">
<svg version="1.0" xmlns="http://www.w3.org/2000/svg"
 width="160.000000pt" height="160.000000pt" viewBox="0 0 160.000000 160.000000"
 preserveAspectRatio="xMidYMid meet">
<metadata>
Created by potrace 1.14, written by Peter Selinger 2001-2017
</metadata>
<g transform="translate(0.000000,160.000000) scale(0.100000,-0.100000)"
fill="#000000" stroke="none">
<path d="M105 1584 c-47 -24 -84 -65 -96 -104 -6 -23 -9 -265 -7 -702 l3 -666
30 -38 c64 -78 18 -74 765 -74 747 0 701 -4 765 74 l30 38 0 688 0 688 -30 38
c-64 78 -18 74 -765 74 -582 0 -669 -2 -695 -16z m1340 -784 l0 -645 -645 0
-645 0 -3 635 c-1 349 0 641 3 648 3 10 138 12 647 10 l643 -3 0 -645z"/>
<path d="M375 1275 l-25 -24 0 -301 0 -301 25 -24 c31 -32 69 -32 100 0 l25
24 0 301 0 301 -25 24 c-13 14 -36 25 -50 25 -14 0 -37 -11 -50 -25z"/>
<path d="M757 1286 c-29 -22 -37 -72 -37 -236 0 -205 14 -249 80 -249 66 0 80
44 80 249 0 164 -8 214 -37 236 -23 17 -63 17 -86 0z"/>
<path d="M1125 1275 l-25 -24 0 -401 0 -401 25 -24 c13 -14 36 -25 50 -25 14
0 37 11 50 25 l25 24 0 401 0 401 -25 24 c-13 14 -36 25 -50 25 -14 0 -37 -11
-50 -25z"/>
</g>
</svg>
