<?xml version="1.0" standalone="no"?>
<!DOCTYPE svg PUBLIC "-//W3C//DTD SVG 20010904//EN"
 "http://www.w3.org/TR/2001/REC-SVG-20010904/DTD/svg10.dtd">
<svg version="1.0" xmlns="http://www.w3.org/2000/svg"
 width="160.000000pt" height="160.000000pt" viewBox="0 0 160.000000 160.000000"
 preserveAspectRatio="xMidYMid meet">
<metadata>
Created by potrace 1.14, written by Peter Selinger 2001-2017
</metadata>
<g transform="translate(0.000000,160.000000) scale(0.100000,-0.100000)"
fill="#000000" stroke="none">
<path d="M557 1386 c-10 -8 -60 -119 -112 -247 l-93 -234 -157 -5 c-150 -5
-158 -6 -176 -29 -26 -32 -24 -67 6 -96 24 -25 26 -25 213 -25 168 0 190 2
208 18 10 10 48 91 83 180 36 89 67 162 71 162 3 0 81 -188 173 -418 112 -280
174 -421 187 -430 26 -16 60 -15 83 2 10 8 60 119 112 247 l93 234 157 5 c150
5 158 6 176 29 26 32 24 67 -6 96 -24 25 -26 25 -213 25 -168 0 -190 -2 -208
-18 -10 -10 -48 -91 -83 -180 -36 -89 -67 -162 -71 -162 -3 0 -81 188 -173
418 -112 280 -174 421 -187 430 -26 16 -60 15 -83 -2z"/>
</g>
</svg>
