<svg xmlns="http://www.w3.org/2000/svg" width="213.333" height="213.333" preserveAspectRatio="xMidYMid meet" version="1.0" viewBox="0 0 160 160"><metadata>Created by potrace 1.14, written by Peter Selinger 2001-2017</metadata><g fill="#000" stroke="none"><path d="M557 1386 c-10 -8 -60 -119 -112 -247 l-93 -234 -157 -5 c-150 -5 -158 -6 -176 -29 -26 -32 -24 -67 6 -96 24 -25 26 -25 213 -25 168 0 190 2 208 18 10 10 48 91 83 180 36 89 67 162 71 162 3 0 81 -188 173 -418 112 -280 174 -421 187 -430 26 -16 60 -15 83 2 10 8 60 119 112 247 l93 234 157 5 c150 5 158 6 176 29 26 32 24 67 -6 96 -24 25 -26 25 -213 25 -168 0 -190 -2 -208 -18 -10 -10 -48 -91 -83 -180 -36 -89 -67 -162 -71 -162 -3 0 -81 188 -173 418 -112 280 -174 421 -187 430 -26 16 -60 15 -83 -2z" transform="translate(0.000000,160.000000) scale(0.100000,-0.100000)"/></g></svg>