<?xml version="1.0" standalone="no"?>
<!DOCTYPE svg PUBLIC "-//W3C//DTD SVG 20010904//EN"
 "http://www.w3.org/TR/2001/REC-SVG-20010904/DTD/svg10.dtd">
<svg version="1.0" xmlns="http://www.w3.org/2000/svg"
 width="160.000000pt" height="160.000000pt" viewBox="0 0 160.000000 160.000000"
 preserveAspectRatio="xMidYMid meet">
<metadata>
Created by potrace 1.14, written by Peter Selinger 2001-2017
</metadata>
<g transform="translate(0.000000,160.000000) scale(0.100000,-0.100000)"
fill="#000000" stroke="none">
<path d="M665 1589 c-221 -43 -405 -163 -525 -340 -97 -141 -134 -268 -134
-449 -1 -225 75 -410 229 -565 154 -154 340 -230 565 -230 225 0 411 76 565
230 154 154 230 340 230 565 0 174 -36 297 -125 433 -112 173 -271 287 -480
344 -68 18 -258 25 -325 12z m270 -154 c184 -38 361 -176 444 -345 94 -193 94
-387 0 -580 -59 -119 -170 -230 -289 -289 -140 -68 -279 -87 -425 -56 -184 38
-361 176 -444 345 -94 192 -94 387 0 580 33 67 59 102 124 166 162 161 372
225 590 179z"/>
<path d="M720 1191 c-45 -14 -84 -39 -116 -73 -60 -64 -69 -104 -29 -143 38
-38 70 -33 119 21 36 39 50 47 88 51 55 6 105 -17 114 -52 9 -36 0 -51 -53
-87 -26 -18 -63 -47 -81 -65 -28 -27 -33 -38 -30 -69 6 -68 76 -94 124 -46 10
9 47 37 83 62 69 48 99 92 108 160 14 100 -56 204 -158 234 -55 17 -127 19
-169 7z"/>
<path d="M751 586 c-87 -48 -50 -186 49 -186 51 0 100 49 100 99 0 75 -83 124
-149 87z"/>
</g>
</svg>
