<?xml version="1.0" standalone="no"?>
<!DOCTYPE svg PUBLIC "-//W3C//DTD SVG 20010904//EN"
 "http://www.w3.org/TR/2001/REC-SVG-20010904/DTD/svg10.dtd">
<svg version="1.0" xmlns="http://www.w3.org/2000/svg"
 width="160.000000pt" height="160.000000pt" viewBox="0 0 160.000000 160.000000"
 preserveAspectRatio="xMidYMid meet">
<metadata>
Created by potrace 1.14, written by Peter Selinger 2001-2017
</metadata>
<g transform="translate(0.000000,160.000000) scale(0.100000,-0.100000)"
fill="#000000" stroke="none">
<path d="M358 1192 c-220 -219 -228 -229 -228 -267 0 -37 8 -47 218 -258 119
-120 229 -225 244 -233 53 -28 108 8 108 69 0 24 -27 57 -157 189 l-158 159
360 -3 c351 -3 361 -4 411 -26 64 -29 136 -102 166 -167 20 -44 23 -70 28
-233 5 -178 6 -184 29 -203 32 -26 67 -24 96 6 24 24 25 28 25 184 0 88 -5
184 -11 213 -37 178 -189 330 -367 367 -33 7 -184 11 -394 11 l-342 0 157 159
c131 132 157 163 157 188 0 42 -33 73 -78 73 -34 0 -50 -13 -264 -228z"/>
</g>
</svg>
