<?xml version="1.0" standalone="no"?>
<!DOCTYPE svg PUBLIC "-//W3C//DTD SVG 20010904//EN"
 "http://www.w3.org/TR/2001/REC-SVG-20010904/DTD/svg10.dtd">
<svg version="1.0" xmlns="http://www.w3.org/2000/svg"
 width="160.000000pt" height="160.000000pt" viewBox="0 0 160.000000 160.000000"
 preserveAspectRatio="xMidYMid meet">
<metadata>
Created by potrace 1.14, written by Peter Selinger 2001-2017
</metadata>
<g transform="translate(0.000000,160.000000) scale(0.100000,-0.100000)"
fill="#000000" stroke="none">
<path d="M105 1584 c-16 -8 -41 -25 -54 -37 -51 -47 -51 -49 -51 -599 0 -576
-3 -550 74 -613 35 -28 45 -30 132 -33 l94 -4 0 -89 c0 -54 6 -103 14 -123 26
-62 92 -95 164 -81 30 5 64 33 182 150 l145 144 342 3 341 3 38 30 c78 64 75
35 72 627 l-3 526 -30 38 c-64 78 -18 74 -765 74 -583 0 -669 -2 -695 -16z
m1340 -634 l0 -495 -352 -5 -353 -5 -145 -145 -145 -145 0 122 c0 168 2 166
-167 173 l-128 5 -3 485 c-1 267 0 491 3 498 3 10 138 12 647 10 l643 -3 0
-495z"/>
<path d="M757 1286 c-27 -21 -37 -70 -37 -186 0 -153 19 -199 80 -199 61 0 80
46 80 199 0 116 -10 165 -37 186 -23 17 -63 17 -86 0z"/>
<path d="M751 786 c-87 -48 -50 -186 49 -186 51 0 100 49 100 99 0 75 -83 124
-149 87z"/>
</g>
</svg>
