<?xml version="1.0" standalone="no"?>
<!DOCTYPE svg PUBLIC "-//W3C//DTD SVG 20010904//EN"
 "http://www.w3.org/TR/2001/REC-SVG-20010904/DTD/svg10.dtd">
<svg version="1.0" xmlns="http://www.w3.org/2000/svg"
 width="160.000000pt" height="160.000000pt" viewBox="0 0 160.000000 160.000000"
 preserveAspectRatio="xMidYMid meet">
<metadata>
Created by potrace 1.14, written by Peter Selinger 2001-2017
</metadata>
<g transform="translate(0.000000,160.000000) scale(0.100000,-0.100000)"
fill="#000000" stroke="none">
<path d="M51 1586 c-51 -28 -50 -17 -51 -683 0 -462 3 -629 12 -648 20 -44 55
-55 178 -55 l110 0 0 -99 0 -98 75 76 75 76 75 -76 75 -76 0 98 0 99 260 0
c179 0 267 4 285 12 53 24 55 41 55 378 l0 310 -50 0 -50 0 0 -150 0 -150
-450 0 -450 0 0 450 0 450 450 0 450 0 0 -100 0 -100 50 0 50 0 0 110 c0 123
-11 158 -55 178 -40 18 -1061 16 -1094 -2z m1049 -1186 l0 -100 -250 0 -250 0
0 50 0 50 -150 0 -150 0 0 -50 0 -50 -100 0 -100 0 0 100 0 100 500 0 500 0 0
-100z"/>
<path d="M300 1350 l0 -50 50 0 50 0 0 50 0 50 -50 0 -50 0 0 -50z"/>
<path d="M1300 1302 l0 -102 -300 0 -300 0 0 -100 0 -100 300 0 299 0 3 -97 3
-98 147 150 148 150 -150 150 -150 150 0 -103z"/>
<path d="M300 1150 l0 -50 50 0 50 0 0 50 0 50 -50 0 -50 0 0 -50z"/>
<path d="M300 950 l0 -50 50 0 50 0 0 50 0 50 -50 0 -50 0 0 -50z"/>
<path d="M300 750 l0 -50 50 0 50 0 0 50 0 50 -50 0 -50 0 0 -50z"/>
</g>
</svg>
