<?xml version="1.0" standalone="no"?>
<!DOCTYPE svg PUBLIC "-//W3C//DTD SVG 20010904//EN"
 "http://www.w3.org/TR/2001/REC-SVG-20010904/DTD/svg10.dtd">
<svg version="1.0" xmlns="http://www.w3.org/2000/svg"
 width="160.000000pt" height="160.000000pt" viewBox="0 0 160.000000 160.000000"
 preserveAspectRatio="xMidYMid meet">
<metadata>
Created by potrace 1.14, written by Peter Selinger 2001-2017
</metadata>
<g transform="translate(0.000000,160.000000) scale(0.100000,-0.100000)"
fill="#000000" stroke="none">
<path d="M367 1586 c-83 -30 -149 -108 -163 -193 -5 -36 -3 -45 19 -67 15 -14
37 -26 50 -26 34 0 73 34 80 69 8 39 39 70 78 78 35 7 69 46 69 80 0 31 -42
73 -72 73 -13 -1 -40 -7 -61 -14z"/>
<path d="M625 1575 c-14 -13 -25 -36 -25 -50 0 -14 11 -37 25 -50 23 -24 28
-25 175 -25 147 0 152 1 175 25 14 13 25 36 25 50 0 14 -11 37 -25 50 -23 24
-28 25 -175 25 -147 0 -152 -1 -175 -25z"/>
<path d="M1125 1575 c-14 -13 -25 -36 -25 -50 0 -14 11 -37 25 -50 19 -20 34
-25 75 -25 l50 0 0 -50 c0 -41 5 -56 25 -75 13 -14 36 -25 50 -25 14 0 37 11
50 25 23 22 25 31 25 125 0 94 -2 103 -25 125 -22 23 -31 25 -125 25 -94 0
-103 -2 -125 -25z"/>
<path d="M225 1175 c-23 -22 -25 -31 -25 -125 0 -94 2 -103 25 -125 13 -14 36
-25 50 -25 14 0 37 11 50 25 23 22 25 31 25 125 0 94 -2 103 -25 125 -13 14
-36 25 -50 25 -14 0 -37 -11 -50 -25z"/>
<path d="M1275 1175 c-23 -22 -25 -31 -25 -125 0 -94 2 -103 25 -125 13 -14
36 -25 50 -25 14 0 37 11 50 25 23 22 25 31 25 125 0 94 -2 103 -25 125 -13
14 -36 25 -50 25 -14 0 -37 -11 -50 -25z"/>
<path d="M225 775 c-25 -24 -25 -27 -25 -193 0 -191 11 -240 65 -297 38 -41
70 -45 109 -14 34 26 34 66 1 116 -22 31 -25 46 -23 98 l3 60 54 5 c40 4 58
12 72 29 26 32 24 67 -6 96 -19 20 -34 25 -75 25 -47 0 -50 2 -50 25 0 33 -42
75 -75 75 -14 0 -37 -11 -50 -25z"/>
<path d="M1275 775 c-14 -13 -25 -36 -25 -50 0 -23 -3 -25 -50 -25 -41 0 -56
-5 -75 -25 -14 -13 -25 -36 -25 -50 0 -14 11 -37 25 -50 19 -20 34 -25 75 -25
l50 0 0 -100 0 -100 -100 0 c-94 0 -103 -2 -125 -25 -14 -13 -25 -36 -25 -50
0 -14 11 -37 25 -50 23 -24 28 -25 175 -25 147 0 152 1 175 25 l25 24 0 251 0
251 -25 24 c-13 14 -36 25 -50 25 -14 0 -37 -11 -50 -25z"/>
<path d="M625 675 c-14 -13 -25 -36 -25 -50 0 -14 11 -37 25 -50 23 -24 28
-25 175 -25 147 0 152 1 175 25 14 13 25 36 25 50 0 14 -11 37 -25 50 -23 24
-28 25 -175 25 -147 0 -152 -1 -175 -25z"/>
<path d="M505 387 c-3 -7 -4 -89 -3 -182 3 -150 5 -170 20 -173 9 -2 50 22 91
52 41 31 80 56 87 56 7 0 46 -25 87 -56 41 -30 82 -54 91 -52 15 3 17 22 17
183 l0 180 -193 3 c-151 2 -194 0 -197 -11z"/>
</g>
</svg>
