<?xml version="1.0" standalone="no"?>
<!DOCTYPE svg PUBLIC "-//W3C//DTD SVG 20010904//EN"
 "http://www.w3.org/TR/2001/REC-SVG-20010904/DTD/svg10.dtd">
<svg version="1.0" xmlns="http://www.w3.org/2000/svg"
 width="160.000000pt" height="160.000000pt" viewBox="0 0 160.000000 160.000000"
 preserveAspectRatio="xMidYMid meet">
<metadata>
Created by potrace 1.14, written by Peter Selinger 2001-2017
</metadata>
<g transform="translate(0.000000,160.000000) scale(0.100000,-0.100000)"
fill="#000000" stroke="none">
<path d="M361 1583 c-59 -21 -124 -87 -144 -148 -15 -43 -17 -108 -17 -535 0
-532 1 -541 59 -610 35 -43 92 -48 122 -11 25 31 23 58 -6 106 -28 45 -31 71
-13 110 24 54 32 55 478 55 l410 0 0 -100 0 -100 -100 0 c-94 0 -103 -2 -125
-25 -32 -31 -32 -69 0 -100 23 -24 28 -25 175 -25 147 0 152 1 175 25 l25 24
0 651 0 651 -25 24 -24 25 -473 -1 c-401 0 -480 -3 -517 -16z m889 -508 l0
-374 -432 -3 c-238 -2 -441 -7 -450 -12 -17 -8 -18 12 -18 340 1 373 2 383 51
410 19 10 113 13 437 14 l412 0 0 -375z"/>
<path d="M505 387 c-3 -7 -4 -89 -3 -182 3 -150 5 -170 20 -173 9 -2 50 22 91
52 41 31 80 56 87 56 7 0 46 -25 87 -56 41 -30 82 -54 91 -52 15 3 17 22 17
183 l0 180 -193 3 c-151 2 -194 0 -197 -11z"/>
</g>
</svg>
