<?xml version="1.0" standalone="no"?>
<!DOCTYPE svg PUBLIC "-//W3C//DTD SVG 20010904//EN"
 "http://www.w3.org/TR/2001/REC-SVG-20010904/DTD/svg10.dtd">
<svg version="1.0" xmlns="http://www.w3.org/2000/svg"
 width="160.000000pt" height="160.000000pt" viewBox="0 0 160.000000 160.000000"
 preserveAspectRatio="xMidYMid meet">
<metadata>
Created by potrace 1.14, written by Peter Selinger 2001-2017
</metadata>
<g transform="translate(0.000000,160.000000) scale(0.100000,-0.100000)"
fill="#000000" stroke="none">
<path d="M51 1586 c-51 -28 -50 -17 -51 -683 0 -462 3 -629 12 -648 20 -44 55
-55 178 -55 l110 0 0 -99 0 -98 75 76 75 76 75 -76 75 -76 0 98 0 99 260 0
c179 0 267 4 285 12 48 22 55 52 55 228 l0 160 -500 0 -500 0 0 450 0 450 300
0 300 0 0 50 0 50 -362 0 c-282 -1 -368 -4 -387 -14z m1049 -1186 l0 -100
-250 0 -250 0 0 50 0 50 -150 0 -150 0 0 -50 0 -50 -100 0 -100 0 0 100 0 100
500 0 500 0 0 -100z"/>
<path d="M900 1240 c0 -392 2 -404 55 -428 14 -7 53 -12 85 -12 l60 0 0 -50 0
-50 50 0 50 0 0 50 0 50 160 0 c176 0 206 7 228 55 17 37 17 653 0 690 -24 53
-41 55 -378 55 l-310 0 0 -360z m600 60 l0 -200 -200 0 -200 0 0 200 0 200
200 0 200 0 0 -200z m-400 -350 l0 -50 -50 0 -50 0 0 50 0 50 50 0 50 0 0 -50z
m400 0 l0 -50 -150 0 -150 0 0 50 0 50 150 0 150 0 0 -50z"/>
<path d="M300 1350 l0 -50 50 0 50 0 0 50 0 50 -50 0 -50 0 0 -50z"/>
<path d="M300 1150 l0 -50 50 0 50 0 0 50 0 50 -50 0 -50 0 0 -50z"/>
<path d="M300 950 l0 -50 50 0 50 0 0 50 0 50 -50 0 -50 0 0 -50z"/>
<path d="M300 750 l0 -50 50 0 50 0 0 50 0 50 -50 0 -50 0 0 -50z"/>
</g>
</svg>
