<?xml version="1.0" standalone="no"?>
<!DOCTYPE svg PUBLIC "-//W3C//DTD SVG 20010904//EN"
 "http://www.w3.org/TR/2001/REC-SVG-20010904/DTD/svg10.dtd">
<svg version="1.0" xmlns="http://www.w3.org/2000/svg"
 width="160.000000pt" height="160.000000pt" viewBox="0 0 160.000000 160.000000"
 preserveAspectRatio="xMidYMid meet">
<metadata>
Created by potrace 1.14, written by Peter Selinger 2001-2017
</metadata>
<g transform="translate(0.000000,160.000000) scale(0.100000,-0.100000)"
fill="#000000" stroke="none">
<path d="M345 1485 c-22 -8 -59 -34 -82 -58 -102 -108 -78 -267 53 -347 32
-21 34 -25 34 -78 0 -87 17 -131 69 -183 56 -56 95 -69 214 -69 l87 0 0 -107
0 -108 -40 -23 c-104 -59 -134 -214 -62 -317 37 -52 118 -95 182 -95 65 0 145
43 185 99 28 39 30 50 30 126 0 77 -2 87 -30 127 -17 23 -47 52 -68 63 l-37
20 0 108 0 107 88 0 c118 0 155 12 211 68 53 53 71 101 71 185 0 52 2 58 28
71 43 22 99 90 111 133 25 88 6 160 -58 224 -92 93 -220 93 -312 0 -108 -108
-87 -269 47 -351 32 -20 34 -25 34 -76 0 -45 -4 -59 -25 -79 l-24 -25 -251 0
-251 0 -24 25 c-21 20 -25 34 -25 79 0 51 2 57 28 70 43 22 99 90 111 133 25
88 6 160 -58 224 -66 67 -148 85 -236 54z m130 -160 c14 -13 25 -36 25 -50 0
-33 -42 -75 -75 -75 -33 0 -75 42 -75 75 0 14 11 37 25 50 13 14 36 25 50 25
14 0 37 -11 50 -25z m750 0 c14 -13 25 -36 25 -50 0 -14 -11 -37 -25 -50 -13
-14 -36 -25 -50 -25 -33 0 -75 42 -75 75 0 14 11 37 25 50 13 14 36 25 50 25
14 0 37 -11 50 -25z m-377 -945 c14 -14 22 -33 22 -55 0 -65 -71 -98 -118 -55
-47 44 -15 130 48 130 14 0 36 -9 48 -20z"/>
</g>
</svg>
