<svg xmlns="http://www.w3.org/2000/svg" width="213.333" height="213.333" preserveAspectRatio="xMidYMid meet" version="1.0" viewBox="0 0 160 160"><metadata>Created by potrace 1.14, written by Peter Selinger 2001-2017</metadata><g fill="#000" stroke="none"><path d="M261 1583 c-59 -21 -124 -87 -144 -148 -15 -43 -17 -108 -17 -535 0 -551 0 -550 75 -625 71 -71 93 -75 457 -75 l319 0 24 25 c32 31 32 69 0 100 l-24 25 -311 0 c-337 0 -354 2 -378 55 -23 51 -7 107 39 131 21 11 73 14 214 14 184 0 186 0 210 25 32 31 32 69 0 101 l-25 25 -208 -3 c-114 -2 -215 -7 -224 -12 -17 -8 -18 12 -18 338 0 376 2 390 55 414 19 9 139 12 435 12 l410 0 0 -150 c0 -147 1 -152 25 -175 31 -32 69 -32 100 0 25 24 25 25 25 225 0 200 0 201 -25 225 l-24 25 -473 -1 c-401 0 -480 -3 -517 -16z" transform="translate(0.000000,160.000000) scale(0.100000,-0.100000)"/><path d="M1048 802 c-162 -161 -171 -179 -123 -227 41 -42 68 -33 151 47 l74 71 0 -322 0 -322 25 -24 c13 -14 36 -25 50 -25 14 0 37 11 50 25 l25 24 0 322 0 322 74 -71 c83 -80 110 -89 151 -47 48 48 39 66 -123 227 -123 123 -153 148 -177 148 -24 0 -54 -25 -177 -148z" transform="translate(0.000000,160.000000) scale(0.100000,-0.100000)"/></g></svg>