<?xml version="1.0" standalone="no"?>
<!DOCTYPE svg PUBLIC "-//W3C//DTD SVG 20010904//EN"
 "http://www.w3.org/TR/2001/REC-SVG-20010904/DTD/svg10.dtd">
<svg version="1.0" xmlns="http://www.w3.org/2000/svg"
 width="160.000000pt" height="160.000000pt" viewBox="0 0 160.000000 160.000000"
 preserveAspectRatio="xMidYMid meet">
<metadata>
Created by potrace 1.14, written by Peter Selinger 2001-2017
</metadata>
<g transform="translate(0.000000,160.000000) scale(0.100000,-0.100000)"
fill="#000000" stroke="none">
<path d="M1228 1580 c-101 -21 -218 -69 -303 -125 -33 -21 -109 -88 -170 -147
l-110 -108 -174 0 c-250 0 -230 13 -399 -261 -116 -187 -121 -181 213 -281 68
-21 75 -26 210 -160 l140 -138 24 -82 c74 -249 88 -277 140 -278 13 0 76 32
140 72 274 169 261 149 261 399 l0 174 108 110 c59 61 126 137 147 170 91 139
150 338 143 487 -3 67 -7 81 -33 114 -47 57 -87 74 -175 73 -41 0 -114 -9
-162 -19z m220 -186 c6 -100 -40 -256 -109 -370 -76 -125 -226 -263 -441 -406
-79 -52 -154 -100 -167 -107 -22 -12 -29 -8 -127 90 -57 57 -104 106 -104 110
0 10 149 238 205 314 69 94 185 216 257 271 119 92 296 155 423 151 l60 -2 3
-51z m-918 -350 c0 -7 -139 -224 -155 -242 -9 -10 -28 -7 -98 14 l-87 27 22
36 c12 20 41 66 65 104 l43 67 105 0 c58 0 105 -3 105 -6z m518 -621 l-3 -108
-100 -62 -100 -63 -28 87 c-15 47 -24 90 -20 94 14 14 238 158 246 159 4 0 6
-48 5 -107z"/>
<path d="M1051 1186 c-87 -48 -50 -186 49 -186 51 0 100 49 100 99 0 75 -83
124 -149 87z"/>
<path d="M181 383 c-58 -29 -116 -140 -142 -272 -16 -85 -11 -89 88 -68 111
24 217 78 250 128 22 33 25 47 21 95 -4 47 -10 61 -41 91 -30 31 -44 37 -89
40 -37 3 -63 -2 -87 -14z"/>
</g>
</svg>
