<?xml version="1.0" standalone="no"?>
<!DOCTYPE svg PUBLIC "-//W3C//DTD SVG 20010904//EN"
 "http://www.w3.org/TR/2001/REC-SVG-20010904/DTD/svg10.dtd">
<svg version="1.0" xmlns="http://www.w3.org/2000/svg"
 width="160.000000pt" height="160.000000pt" viewBox="0 0 160.000000 160.000000"
 preserveAspectRatio="xMidYMid meet">
<metadata>
Created by potrace 1.14, written by Peter Selinger 2001-2017
</metadata>
<g transform="translate(0.000000,160.000000) scale(0.100000,-0.100000)"
fill="#000000" stroke="none">
<path d="M243 1390 c-44 -18 -55 -72 -23 -113 16 -20 32 -26 82 -32 487 -51
877 -431 939 -913 10 -79 15 -95 37 -112 31 -25 63 -25 93 -1 21 17 24 27 22
80 -4 134 -51 300 -131 456 -171 333 -507 574 -879 630 -111 17 -110 17 -140
5z"/>
<path d="M253 889 c-25 -9 -53 -47 -53 -70 0 -30 39 -68 78 -74 238 -40 417
-214 463 -449 5 -28 19 -60 31 -73 37 -39 97 -25 116 28 15 39 -14 155 -65
259 -61 126 -177 245 -298 307 -107 55 -230 88 -272 72z"/>
<path d="M251 386 c-87 -48 -50 -186 49 -186 51 0 100 49 100 99 0 75 -83 124
-149 87z"/>
</g>
</svg>
