<?xml version="1.0" standalone="no"?>
<!DOCTYPE svg PUBLIC "-//W3C//DTD SVG 20010904//EN"
 "http://www.w3.org/TR/2001/REC-SVG-20010904/DTD/svg10.dtd">
<svg version="1.0" xmlns="http://www.w3.org/2000/svg"
 width="160.000000pt" height="160.000000pt" viewBox="0 0 160.000000 160.000000"
 preserveAspectRatio="xMidYMid meet">
<metadata>
Created by potrace 1.14, written by Peter Selinger 2001-2017
</metadata>
<g transform="translate(0.000000,160.000000) scale(0.100000,-0.100000)"
fill="#000000" stroke="none">
<path d="M371 1373 c-32 -30 -335 -421 -359 -464 -9 -15 -13 -35 -9 -50 4 -15
154 -168 387 -392 330 -319 384 -367 410 -367 27 0 69 37 308 268 152 147 323
312 380 366 56 55 105 111 109 125 4 15 0 35 -9 50 -24 43 -327 434 -359 464
l-29 27 -400 0 -400 0 -29 -27z m909 -304 c77 -99 140 -184 140 -189 0 -4 -20
-26 -44 -47 -24 -21 -164 -155 -310 -297 l-266 -258 -307 298 c-170 163 -309
300 -311 304 -2 6 139 195 245 328 l34 42 339 0 339 0 141 -181z"/>
</g>
</svg>
