<?xml version="1.0" standalone="no"?>
<!DOCTYPE svg PUBLIC "-//W3C//DTD SVG 20010904//EN"
 "http://www.w3.org/TR/2001/REC-SVG-20010904/DTD/svg10.dtd">
<svg version="1.0" xmlns="http://www.w3.org/2000/svg"
 width="160.000000pt" height="160.000000pt" viewBox="0 0 160.000000 160.000000"
 preserveAspectRatio="xMidYMid meet">
<metadata>
Created by potrace 1.14, written by Peter Selinger 2001-2017
</metadata>
<g transform="translate(0.000000,160.000000) scale(0.100000,-0.100000)"
fill="#000000" stroke="none">
<path d="M479 1481 c-23 -18 -24 -26 -29 -173 l-5 -153 -153 -5 c-147 -5 -155
-6 -173 -29 -26 -32 -24 -67 6 -97 l25 -25 169 3 169 3 38 30 c67 55 74 79 74
258 0 154 -1 158 -25 182 -29 30 -64 32 -96 6z"/>
<path d="M1025 1475 c-24 -24 -25 -28 -25 -182 0 -179 7 -203 74 -258 l38 -30
169 -3 169 -3 25 25 c30 30 32 65 6 97 -18 23 -26 24 -173 29 l-153 5 -5 153
c-5 147 -6 155 -29 173 -32 26 -67 24 -96 -6z"/>
<path d="M125 576 c-30 -30 -32 -65 -6 -97 18 -23 26 -24 173 -29 l153 -5 5
-153 c5 -147 6 -155 29 -173 32 -26 67 -24 96 6 24 24 25 28 25 182 0 179 -7
203 -74 258 l-38 30 -169 3 -169 3 -25 -25z"/>
<path d="M1105 584 c-92 -47 -105 -83 -105 -279 0 -152 1 -156 25 -180 29 -30
64 -32 96 -6 23 18 24 26 29 173 l5 153 153 5 c147 5 155 6 173 29 26 32 24
67 -6 96 -24 24 -28 25 -182 25 -124 0 -165 -4 -188 -16z"/>
</g>
</svg>
