<?xml version="1.0" standalone="no"?>
<!DOCTYPE svg PUBLIC "-//W3C//DTD SVG 20010904//EN"
 "http://www.w3.org/TR/2001/REC-SVG-20010904/DTD/svg10.dtd">
<svg version="1.0" xmlns="http://www.w3.org/2000/svg"
 width="160.000000pt" height="160.000000pt" viewBox="0 0 160.000000 160.000000"
 preserveAspectRatio="xMidYMid meet">
<metadata>
Created by potrace 1.14, written by Peter Selinger 2001-2017
</metadata>
<g transform="translate(0.000000,160.000000) scale(0.100000,-0.100000)"
fill="#000000" stroke="none">
<path d="M552 1480 c-109 -29 -187 -74 -272 -160 -87 -86 -131 -163 -160 -276
-95 -371 196 -744 580 -744 108 0 244 43 342 107 l28 17 163 -162 c138 -137
168 -162 193 -162 38 0 74 36 74 75 0 24 -28 57 -162 192 l-162 163 17 28
c164 250 135 556 -72 763 -154 153 -365 212 -569 159z m240 -141 c87 -18 158
-58 223 -123 178 -179 178 -454 0 -631 -105 -105 -245 -151 -386 -127 -362 62
-503 501 -244 757 112 112 257 155 407 124z"/>
</g>
</svg>
