<?xml version="1.0" standalone="no"?>
<!DOCTYPE svg PUBLIC "-//W3C//DTD SVG 20010904//EN"
 "http://www.w3.org/TR/2001/REC-SVG-20010904/DTD/svg10.dtd">
<svg version="1.0" xmlns="http://www.w3.org/2000/svg"
 width="160.000000pt" height="160.000000pt" viewBox="0 0 160.000000 160.000000"
 preserveAspectRatio="xMidYMid meet">
<metadata>
Created by potrace 1.14, written by Peter Selinger 2001-2017
</metadata>
<g transform="translate(0.000000,160.000000) scale(0.100000,-0.100000)"
fill="#000000" stroke="none">
<path d="M105 1484 c-47 -24 -84 -65 -96 -104 -16 -55 -8 -512 10 -534 12 -14
12 -20 0 -43 -11 -20 -14 -82 -14 -284 l0 -257 30 -38 c64 -78 18 -74 765 -74
747 0 701 -4 765 74 l30 38 3 243 c2 203 0 249 -13 281 -14 34 -14 41 0 78 13
35 16 82 13 283 l-3 241 -30 38 c-64 78 -18 74 -765 74 -582 0 -669 -2 -695
-16z m1340 -359 l0 -220 -645 0 -645 0 -3 210 c-1 115 0 215 3 222 3 11 131
13 647 11 l643 -3 0 -220z m0 -600 l0 -220 -645 0 -645 0 -3 210 c-1 115 0
215 3 222 3 11 131 13 647 11 l643 -3 0 -220z"/>
<path d="M325 1175 c-14 -13 -25 -36 -25 -50 0 -14 11 -37 25 -50 35 -36 115
-36 150 0 32 31 32 69 0 100 -19 20 -34 25 -75 25 -41 0 -56 -5 -75 -25z"/>
<path d="M725 1175 c-14 -13 -25 -36 -25 -50 0 -14 11 -37 25 -50 l24 -25 251
0 251 0 24 25 c14 13 25 36 25 50 0 14 -11 37 -25 50 l-24 25 -251 0 -251 0
-24 -25z"/>
<path d="M325 575 c-14 -13 -25 -36 -25 -50 0 -14 11 -37 25 -50 35 -36 115
-36 150 0 32 31 32 69 0 100 -19 20 -34 25 -75 25 -41 0 -56 -5 -75 -25z"/>
<path d="M725 575 c-14 -13 -25 -36 -25 -50 0 -14 11 -37 25 -50 l24 -25 251
0 251 0 24 25 c14 13 25 36 25 50 0 14 -11 37 -25 50 l-24 25 -251 0 -251 0
-24 -25z"/>
</g>
</svg>
