<svg xmlns="http://www.w3.org/2000/svg" width="213.333" height="213.333" preserveAspectRatio="xMidYMid meet" version="1.0" viewBox="0 0 160 160"><metadata>Created by potrace 1.14, written by Peter Selinger 2001-2017</metadata><g fill="#000" stroke="none"><path d="M693 1510 c-26 -15 -36 -31 -48 -77 -25 -89 -31 -100 -68 -112 -31 -11 -39 -9 -93 24 -50 31 -66 36 -103 32 -37 -4 -52 -13 -98 -60 -47 -46 -56 -61 -60 -98 -4 -37 1 -53 32 -103 33 -54 35 -62 24 -93 -12 -37 -23 -43 -112 -68 -78 -21 -97 -52 -97 -153 0 -110 28 -146 130 -167 53 -11 67 -22 79 -58 11 -31 8 -39 -24 -93 -31 -50 -36 -66 -32 -103 4 -37 13 -52 60 -98 46 -47 61 -56 98 -60 37 -4 53 1 103 32 54 32 62 35 93 24 36 -12 47 -26 58 -79 21 -102 57 -130 165 -130 108 0 144 28 165 130 11 53 22 67 58 79 31 11 39 8 93 -24 50 -31 66 -36 103 -32 37 4 52 13 98 60 47 46 56 61 60 98 4 37 -1 53 -32 103 -32 54 -35 62 -24 93 12 36 26 47 79 58 102 21 130 57 130 165 0 108 -28 144 -130 165 -53 11 -67 22 -79 58 -11 31 -8 39 24 93 31 50 36 66 32 103 -4 37 -13 52 -60 98 -46 47 -61 56 -98 60 -37 4 -53 -1 -103 -32 -54 -32 -62 -35 -93 -24 -36 12 -47 26 -58 79 -12 58 -36 100 -66 115 -43 23 -166 20 -206 -5z m179 -149 c9 -35 25 -73 35 -84 23 -26 111 -67 144 -67 24 0 78 24 137 61 20 12 25 10 57 -21 19 -19 35 -37 35 -42 0 -4 -13 -30 -30 -56 -41 -67 -46 -101 -24 -162 24 -68 58 -97 135 -118 l64 -17 0 -55 0 -55 -64 -17 c-77 -21 -111 -50 -135 -118 -22 -61 -17 -95 24 -162 17 -26 30 -52 30 -56 0 -5 -16 -23 -35 -42 -32 -31 -37 -33 -57 -21 -55 34 -113 61 -132 61 -37 0 -115 -33 -141 -60 -15 -16 -33 -54 -43 -91 l-17 -64 -55 0 -55 0 -17 64 c-21 77 -50 111 -118 135 -61 22 -95 17 -162 -24 -26 -17 -52 -30 -56 -30 -5 0 -23 16 -42 35 -31 32 -33 37 -21 57 34 55 61 113 61 132 0 37 -33 115 -60 141 -16 15 -54 33 -91 43 l-64 17 0 55 0 55 64 17 c77 21 111 50 135 118 22 61 17 95 -24 162 -17 26 -30 52 -30 56 0 5 16 23 35 42 32 31 37 33 57 21 59 -37 113 -61 137 -61 38 0 124 43 148 74 11 14 24 42 28 62 15 80 19 85 77 82 l53 -3 17 -64z" transform="translate(0.000000,160.000000) scale(0.100000,-0.100000)"/><path d="M728 1057 c-172 -49 -250 -264 -147 -406 98 -136 275 -156 398 -45 115 103 115 285 -1 389 -70 64 -162 86 -250 62z m153 -113 c63 -32 98 -114 78 -186 -32 -122 -186 -163 -275 -74 -134 134 28 348 197 260z" transform="translate(0.000000,160.000000) scale(0.100000,-0.100000)"/></g></svg>