<svg xmlns="http://www.w3.org/2000/svg" width="213.333" height="213.333" preserveAspectRatio="xMidYMid meet" version="1.0" viewBox="0 0 160 160"><metadata>Created by potrace 1.14, written by Peter Selinger 2001-2017</metadata><g fill="#000" stroke="none"><path d="M1103 1582 c-132 -47 -216 -177 -200 -311 l6 -47 -194 -107 -194 -108 -42 31 c-155 112 -373 55 -453 -119 -32 -71 -29 -179 7 -253 82 -166 294 -218 446 -108 l42 31 193 -107 193 -107 -4 -61 c-14 -175 139 -327 315 -313 115 9 208 73 256 176 29 64 29 178 0 242 -80 174 -298 231 -453 119 l-42 -31 -192 107 -192 106 0 78 0 78 192 106 192 107 42 -31 c155 -112 373 -55 453 119 15 34 21 66 21 121 0 85 -21 142 -74 203 -72 81 -213 117 -318 79z m167 -152 c45 -23 80 -80 80 -130 0 -76 -74 -150 -151 -150 -73 0 -149 76 -149 150 0 48 35 107 78 129 48 26 93 26 142 1z m-900 -500 c45 -23 80 -80 80 -130 0 -76 -74 -150 -151 -150 -46 0 -108 39 -130 82 -37 72 -14 151 57 194 48 29 92 30 144 4z m900 -500 c45 -23 80 -80 80 -130 0 -76 -74 -150 -150 -150 -76 0 -150 74 -150 150 0 48 35 107 78 129 48 26 93 26 142 1z" transform="translate(0.000000,160.000000) scale(0.100000,-0.100000)"/></g></svg>