<svg xmlns="http://www.w3.org/2000/svg" width="213.333" height="213.333" preserveAspectRatio="xMidYMid meet" version="1.0" viewBox="0 0 160 160"><metadata>Created by potrace 1.14, written by Peter Selinger 2001-2017</metadata><g fill="#000" stroke="none"><path d="M637 1441 c-105 -105 -148 -154 -145 -167 3 -17 15 -19 116 -22 l112 -3 0 -277 c0 -152 4 -292 10 -311 23 -82 117 -82 140 0 6 19 10 159 10 311 l0 277 112 3 c101 3 113 5 116 22 3 13 -40 62 -145 167 -82 82 -155 149 -163 149 -8 0 -81 -67 -163 -149z" transform="translate(0.000000,160.000000) scale(0.100000,-0.100000)"/><path d="M305 1084 c-47 -24 -84 -65 -96 -104 -6 -22 -9 -169 -7 -402 l3 -366 30 -38 c63 -77 43 -74 565 -74 522 0 502 -3 565 74 l30 38 3 376 c3 424 4 415 -72 477 -35 28 -45 30 -131 33 -90 4 -95 3 -120 -22 -30 -30 -32 -65 -6 -97 16 -21 31 -25 98 -29 l78 -5 0 -345 0 -345 -445 0 -445 0 0 345 0 345 78 5 c67 4 82 8 98 29 26 32 24 67 -6 96 -22 23 -32 25 -107 25 -56 0 -93 -5 -113 -16z" transform="translate(0.000000,160.000000) scale(0.100000,-0.100000)"/></g></svg>