<svg xmlns="http://www.w3.org/2000/svg" width="213.333" height="213.333" preserveAspectRatio="xMidYMid meet" version="1.0" viewBox="0 0 160 160"><metadata>Created by potrace 1.14, written by Peter Selinger 2001-2017</metadata><g fill="#000" stroke="none"><path d="M470 1499 c-151 -49 -286 -97 -300 -107 -14 -10 -35 -38 -48 -63 -23 -44 -23 -47 -19 -319 5 -296 11 -337 71 -474 81 -182 254 -344 491 -458 119 -57 151 -57 270 0 255 123 433 299 509 502 44 121 56 218 56 474 0 221 -1 234 -22 276 -13 24 -35 52 -49 63 -14 10 -151 59 -305 108 -208 66 -292 89 -329 88 -34 -1 -140 -30 -325 -90z m617 -145 l265 -85 -5 -257 c-3 -202 -8 -270 -22 -317 -56 -197 -203 -354 -443 -474 l-82 -41 -82 40 c-238 119 -387 279 -443 475 -14 47 -19 115 -22 317 l-5 256 239 77 c131 42 249 80 263 85 47 16 73 10 337 -76z" transform="translate(0.000000,160.000000) scale(0.100000,-0.100000)"/><path d="M572 1077 c-39 -42 -29 -71 50 -153 l71 -74 -73 -75 c-67 -70 -72 -78 -66 -108 8 -40 23 -55 63 -63 30 -6 38 -1 108 66 l75 73 74 -71 c83 -81 115 -91 154 -49 39 42 29 71 -50 153 l-71 74 71 74 c81 83 91 115 49 154 -42 39 -71 29 -153 -50 l-74 -71 -74 71 c-83 81 -115 91 -154 49z" transform="translate(0.000000,160.000000) scale(0.100000,-0.100000)"/></g></svg>