<?xml version="1.0" standalone="no"?>
<!DOCTYPE svg PUBLIC "-//W3C//DTD SVG 20010904//EN"
 "http://www.w3.org/TR/2001/REC-SVG-20010904/DTD/svg10.dtd">
<svg version="1.0" xmlns="http://www.w3.org/2000/svg"
 width="160.000000pt" height="160.000000pt" viewBox="0 0 160.000000 160.000000"
 preserveAspectRatio="xMidYMid meet">
<metadata>
Created by potrace 1.14, written by Peter Selinger 2001-2017
</metadata>
<g transform="translate(0.000000,160.000000) scale(0.100000,-0.100000)"
fill="#000000" stroke="none">
<path d="M470 1499 c-151 -49 -286 -97 -300 -107 -14 -10 -35 -38 -48 -63 -23
-44 -23 -47 -19 -319 5 -296 11 -337 71 -474 81 -182 254 -344 491 -458 119
-57 151 -57 270 0 255 123 433 299 509 502 44 121 56 218 56 474 0 221 -1 234
-22 276 -13 24 -35 52 -49 63 -14 10 -151 59 -305 108 -208 66 -292 89 -329
88 -34 -1 -140 -30 -325 -90z m617 -145 l265 -85 -5 -257 c-3 -202 -8 -270
-22 -317 -56 -197 -203 -354 -443 -474 l-82 -41 -82 40 c-238 119 -387 279
-443 475 -14 47 -19 115 -22 317 l-5 256 239 77 c131 42 249 80 263 85 47 16
73 10 337 -76z"/>
<path d="M887 942 l-162 -161 -62 59 c-69 68 -104 77 -141 37 -43 -45 -31 -72
76 -179 79 -79 104 -98 127 -98 25 0 61 31 229 199 194 195 199 200 192 233
-8 41 -23 56 -64 64 -32 6 -38 1 -195 -154z"/>
</g>
</svg>
