<svg xmlns="http://www.w3.org/2000/svg" width="213.333" height="213.333" preserveAspectRatio="xMidYMid meet" version="1.0" viewBox="0 0 160 160"><metadata>Created by potrace 1.14, written by Peter Selinger 2001-2017</metadata><g fill="#000" stroke="none"><path d="M305 1484 c-16 -8 -41 -25 -54 -37 -51 -47 -51 -45 -51 -649 0 -632 -4 -599 74 -663 l38 -30 169 -3 169 -3 25 25 c30 30 32 65 6 97 -18 23 -26 24 -173 29 l-153 5 0 545 0 545 153 5 c147 5 155 6 173 29 26 32 24 67 -6 96 -24 24 -28 25 -182 25 -124 0 -165 -4 -188 -16z" transform="translate(0.000000,160.000000) scale(0.100000,-0.100000)"/><path d="M783 1017 c-165 -165 -183 -187 -183 -217 0 -31 18 -52 183 -217 155 -155 188 -183 213 -183 59 0 98 55 73 103 -6 12 -54 66 -107 120 l-97 97 277 0 c167 0 288 4 304 10 55 21 71 78 34 118 -20 22 -25 22 -323 22 l-302 0 102 103 c55 56 106 112 112 124 25 49 -14 103 -74 103 -25 0 -56 -26 -212 -183z" transform="translate(0.000000,160.000000) scale(0.100000,-0.100000)"/></g></svg>