<svg xmlns="http://www.w3.org/2000/svg" width="213.333" height="213.333" preserveAspectRatio="xMidYMid meet" version="1.0" viewBox="0 0 160 160"><metadata>Created by potrace 1.14, written by Peter Selinger 2001-2017</metadata><g fill="#000" stroke="none"><path d="M305 1484 c-16 -8 -41 -25 -54 -37 -51 -47 -51 -45 -51 -649 0 -632 -4 -599 74 -663 l38 -30 169 -3 169 -3 25 25 c30 30 32 65 6 97 -18 23 -26 24 -173 29 l-153 5 0 545 0 545 153 5 c147 5 155 6 173 29 26 32 24 67 -6 96 -24 24 -28 25 -182 25 -124 0 -165 -4 -188 -16z" transform="translate(0.000000,160.000000) scale(0.100000,-0.100000)"/><path d="M1053 1185 c-26 -19 -37 -59 -22 -88 6 -12 57 -68 112 -124 l102 -103 -302 0 c-298 0 -303 0 -323 -22 -37 -40 -21 -97 34 -118 16 -6 137 -10 304 -10 l277 0 -97 -98 c-53 -53 -101 -107 -107 -119 -25 -48 14 -103 73 -103 25 0 58 28 213 183 165 165 183 186 183 217 0 31 -18 52 -183 217 -155 155 -188 183 -213 183 -16 0 -39 -7 -51 -15z" transform="translate(0.000000,160.000000) scale(0.100000,-0.100000)"/></g></svg>