<?xml version="1.0" standalone="no"?>
<!DOCTYPE svg PUBLIC "-//W3C//DTD SVG 20010904//EN"
 "http://www.w3.org/TR/2001/REC-SVG-20010904/DTD/svg10.dtd">
<svg version="1.0" xmlns="http://www.w3.org/2000/svg"
 width="160.000000pt" height="160.000000pt" viewBox="0 0 160.000000 160.000000"
 preserveAspectRatio="xMidYMid meet">
<metadata>
Created by potrace 1.14, written by Peter Selinger 2001-2017
</metadata>
<g transform="translate(0.000000,160.000000) scale(0.100000,-0.100000)"
fill="#000000" stroke="none">
<path d="M375 1575 c-20 -19 -25 -34 -25 -74 0 -47 -1 -50 -43 -75 -105 -61
-211 -216 -226 -330 -9 -67 2 -95 54 -142 42 -38 94 -54 171 -54 79 0 132 16
166 50 34 34 35 58 7 95 -19 23 -27 26 -58 22 -199 -30 -216 -21 -169 81 12
26 49 74 81 106 l58 59 83 -84 c45 -46 139 -133 209 -193 128 -110 198 -190
243 -278 17 -33 32 -50 50 -54 38 -10 77 7 92 39 12 24 10 34 -12 82 -13 30
-38 74 -55 98 -31 46 -61 168 -61 251 0 105 70 207 165 239 162 56 325 -43
342 -207 7 -63 -13 -108 -60 -136 -64 -40 -134 -15 -157 55 -12 38 -52 75 -80
75 -10 0 -29 -9 -44 -21 -48 -37 -26 -130 50 -209 28 -29 41 -59 69 -156 75
-262 68 -372 -31 -468 -73 -71 -182 -96 -421 -96 l-161 0 -45 50 c-98 109
-102 224 -11 346 50 67 54 95 19 129 -32 32 -60 31 -113 -5 -57 -38 -132 -54
-197 -40 -117 24 -112 24 -139 -3 -71 -71 10 -144 166 -150 l53 -2 0 -95 c0
-86 3 -101 32 -162 l32 -68 -80 0 c-72 0 -82 -3 -104 -25 -32 -31 -32 -69 0
-101 l26 -25 387 4 c330 3 396 6 446 21 196 58 308 175 336 352 14 86 7 157
-31 303 -30 117 -29 130 9 131 29 0 92 42 131 86 135 153 65 425 -136 531
-123 65 -257 68 -379 8 -125 -61 -208 -181 -221 -318 -3 -37 -10 -67 -14 -67
-4 0 -69 60 -144 133 l-135 132 0 68 c0 59 -3 71 -25 92 -13 14 -36 25 -50 25
-14 0 -37 -11 -50 -25z"/>
</g>
</svg>
