<svg xmlns="http://www.w3.org/2000/svg" width="213.333" height="213.333" preserveAspectRatio="xMidYMid meet" version="1.0" viewBox="0 0 160 160"><metadata>Created by potrace 1.14, written by Peter Selinger 2001-2017</metadata><g fill="#000" stroke="none"><path d="M747 1552 c-9 -10 -58 -103 -108 -208 -50 -104 -92 -190 -92 -191 -1 -1 -101 -16 -222 -33 -242 -35 -265 -43 -265 -104 -1 -27 21 -52 163 -191 l164 -160 -38 -219 c-34 -197 -37 -222 -24 -246 32 -61 55 -56 275 60 105 55 195 100 201 100 6 0 96 -45 199 -100 219 -116 243 -122 275 -60 13 25 10 49 -24 247 l-38 220 155 148 c85 82 159 159 164 171 14 30 3 70 -25 89 -14 9 -113 28 -238 46 -118 17 -215 31 -216 32 -1 1 -42 87 -93 192 -50 104 -98 197 -107 207 -22 24 -85 24 -106 0z m128 -373 c39 -78 79 -148 91 -155 11 -8 90 -24 175 -36 85 -12 155 -22 157 -23 2 -2 -49 -53 -113 -116 -63 -62 -118 -124 -122 -137 -3 -13 6 -92 21 -176 14 -84 26 -155 26 -158 0 -3 -63 27 -140 68 -95 50 -150 74 -173 73 -20 0 -82 -28 -167 -73 -74 -40 -136 -72 -138 -71 -2 2 9 73 24 158 15 86 24 166 21 179 -4 13 -58 75 -122 137 -63 63 -114 115 -113 116 2 1 72 11 157 23 85 12 164 28 175 36 12 7 52 77 91 155 38 77 72 141 75 141 3 0 37 -64 75 -141z" transform="translate(0.000000,160.000000) scale(0.100000,-0.100000)"/></g></svg>