<?xml version="1.0" standalone="no"?>
<!DOCTYPE svg PUBLIC "-//W3C//DTD SVG 20010904//EN"
 "http://www.w3.org/TR/2001/REC-SVG-20010904/DTD/svg10.dtd">
<svg version="1.0" xmlns="http://www.w3.org/2000/svg"
 width="160.000000pt" height="160.000000pt" viewBox="0 0 160.000000 160.000000"
 preserveAspectRatio="xMidYMid meet">
<metadata>
Created by potrace 1.14, written by Peter Selinger 2001-2017
</metadata>
<g transform="translate(0.000000,160.000000) scale(0.100000,-0.100000)"
fill="#000000" stroke="none">
<path d="M747 1552 c-9 -10 -58 -103 -108 -208 -50 -104 -92 -190 -92 -191 -1
-1 -101 -16 -222 -33 -242 -35 -265 -43 -265 -104 -1 -27 21 -52 163 -191
l164 -160 -38 -219 c-34 -197 -37 -222 -24 -246 32 -61 55 -56 275 60 105 55
195 100 201 100 6 0 96 -45 199 -100 219 -116 243 -122 275 -60 13 25 10 49
-24 247 l-38 220 155 148 c85 82 159 159 164 171 14 30 3 71 -25 89 -14 9
-113 28 -238 46 -118 17 -215 31 -216 32 -1 1 -42 87 -93 192 -50 104 -98 197
-107 207 -22 24 -85 24 -106 0z"/>
</g>
</svg>
