<svg xmlns="http://www.w3.org/2000/svg" width="213.333" height="213.333" preserveAspectRatio="xMidYMid meet" version="1.0" viewBox="0 0 160 160"><metadata>Created by potrace 1.14, written by Peter Selinger 2001-2017</metadata><g fill="#000" stroke="none"><path d="M233 1367 l-233 -233 0 -334 0 -334 233 -233 233 -233 334 0 334 0 233 233 233 233 0 334 0 334 -233 233 -233 233 -334 0 -334 0 -233 -233z m1024 -109 l193 -193 0 -265 0 -265 -193 -193 -192 -192 -265 0 -265 0 -192 192 -193 193 0 265 0 265 192 192 193 193 265 0 265 0 192 -192z" transform="translate(0.000000,160.000000) scale(0.100000,-0.100000)"/><path d="M757 1186 c-29 -22 -37 -72 -37 -236 0 -205 14 -249 80 -249 66 0 80 44 80 249 0 164 -8 214 -37 236 -23 17 -63 17 -86 0z" transform="translate(0.000000,160.000000) scale(0.100000,-0.100000)"/><path d="M751 586 c-87 -48 -50 -186 49 -186 51 0 100 49 100 99 0 75 -83 124 -149 87z" transform="translate(0.000000,160.000000) scale(0.100000,-0.100000)"/></g></svg>