<svg xmlns="http://www.w3.org/2000/svg" width="213.333" height="213.333" preserveAspectRatio="xMidYMid meet" version="1.0" viewBox="0 0 160 160"><metadata>Created by potrace 1.14, written by Peter Selinger 2001-2017</metadata><g fill="#000" stroke="none"><path d="M602 1580 c-14 -14 -22 -33 -22 -55 0 -50 31 -75 92 -75 l48 0 0 -53 0 -52 -66 -13 c-72 -14 -180 -59 -230 -97 -18 -14 -36 -25 -40 -25 -4 0 -26 18 -50 40 -55 50 -87 59 -122 33 -19 -14 -28 -31 -30 -56 -3 -32 3 -43 42 -85 l45 -48 -25 -38 c-76 -112 -114 -238 -114 -381 0 -122 16 -192 72 -305 32 -67 58 -102 122 -166 142 -141 280 -199 476 -199 197 0 329 55 471 195 70 69 94 101 127 170 56 113 72 183 72 305 0 143 -38 269 -114 381 l-26 38 39 41 c21 22 44 50 50 62 24 48 -14 103 -72 103 -19 0 -43 -14 -78 -47 -43 -40 -53 -45 -67 -35 -83 59 -237 122 -298 122 -23 0 -24 3 -24 55 l0 55 48 0 c61 0 92 25 92 75 0 22 -8 41 -22 55 -20 19 -34 20 -198 20 -164 0 -178 -1 -198 -20z m316 -395 c178 -42 329 -182 382 -353 27 -87 27 -227 0 -314 -65 -212 -278 -368 -500 -368 -222 0 -435 157 -500 368 -27 87 -27 227 0 314 79 257 356 415 618 353z" transform="translate(0.000000,160.000000) scale(0.100000,-0.100000)"/><path d="M995 966 c-16 -8 -59 -44 -95 -80 -59 -60 -68 -66 -106 -66 -51 0 -103 -33 -126 -80 -50 -98 21 -210 132 -210 82 0 150 67 150 149 0 28 12 46 75 112 74 78 85 101 69 144 -4 8 -19 22 -35 30 -33 18 -27 18 -64 1z" transform="translate(0.000000,160.000000) scale(0.100000,-0.100000)"/></g></svg>