<?xml version="1.0" standalone="no"?>
<!DOCTYPE svg PUBLIC "-//W3C//DTD SVG 20010904//EN"
 "http://www.w3.org/TR/2001/REC-SVG-20010904/DTD/svg10.dtd">
<svg version="1.0" xmlns="http://www.w3.org/2000/svg"
 width="160.000000pt" height="160.000000pt" viewBox="0 0 160.000000 160.000000"
 preserveAspectRatio="xMidYMid meet">
<metadata>
Created by potrace 1.14, written by Peter Selinger 2001-2017
</metadata>
<g transform="translate(0.000000,160.000000) scale(0.100000,-0.100000)"
fill="#000000" stroke="none">
<path d="M757 1586 c-23 -18 -37 -68 -37 -136 0 -101 26 -149 80 -149 54 0 80
48 80 149 0 101 -26 149 -80 149 -14 0 -33 -6 -43 -13z"/>
<path d="M253 1378 c-26 -12 -47 -59 -39 -85 3 -10 37 -49 75 -87 56 -56 76
-69 101 -69 41 0 73 32 73 74 0 26 -12 44 -75 105 -75 74 -93 82 -135 62z"/>
<path d="M1208 1312 c-87 -87 -96 -115 -53 -157 41 -42 69 -33 151 46 40 40
76 81 80 91 13 43 -33 98 -83 98 -9 0 -52 -35 -95 -78z"/>
<path d="M706 1190 c-63 -16 -153 -70 -197 -117 -22 -24 -55 -74 -72 -111 -29
-61 -32 -76 -32 -163 0 -90 2 -99 37 -171 45 -91 103 -147 196 -191 61 -29 76
-32 162 -32 86 0 101 3 162 32 93 44 151 100 196 191 35 72 37 81 37 172 0 91
-2 100 -37 172 -68 136 -188 217 -336 224 -42 2 -94 -1 -116 -6z m179 -157
c92 -31 165 -134 165 -233 0 -132 -118 -250 -250 -250 -60 0 -130 30 -175 75
-98 98 -98 252 0 350 69 70 164 91 260 58z"/>
<path d="M20 848 c-23 -25 -26 -65 -6 -90 20 -27 61 -38 136 -38 75 0 116 11
136 38 20 25 17 65 -6 90 -19 20 -31 22 -130 22 -99 0 -111 -2 -130 -22z"/>
<path d="M1320 848 c-23 -25 -26 -65 -6 -90 20 -27 61 -38 136 -38 75 0 116
11 136 38 20 25 17 65 -6 90 -19 20 -31 22 -130 22 -99 0 -111 -2 -130 -22z"/>
<path d="M290 393 c-89 -89 -98 -115 -55 -158 43 -43 69 -34 158 55 75 74 79
81 73 112 -8 41 -23 56 -64 64 -31 6 -38 2 -112 -73z"/>
<path d="M1172 460 c-26 -11 -46 -55 -38 -85 8 -30 136 -153 168 -160 22 -6
33 -1 59 24 43 44 34 70 -55 159 -73 71 -90 79 -134 62z"/>
<path d="M757 286 c-50 -38 -50 -234 0 -272 23 -17 63 -17 86 0 50 38 50 234
0 272 -23 17 -63 17 -86 0z"/>
</g>
</svg>
