<?xml version="1.0" standalone="no"?>
<!DOCTYPE svg PUBLIC "-//W3C//DTD SVG 20010904//EN"
 "http://www.w3.org/TR/2001/REC-SVG-20010904/DTD/svg10.dtd">
<svg version="1.0" xmlns="http://www.w3.org/2000/svg"
 width="160.000000pt" height="160.000000pt" viewBox="0 0 160.000000 160.000000"
 preserveAspectRatio="xMidYMid meet">
<metadata>
Created by potrace 1.14, written by Peter Selinger 2001-2017
</metadata>
<g transform="translate(0.000000,160.000000) scale(0.100000,-0.100000)"
fill="#000000" stroke="none">
<path d="M655 1484 c-99 -20 -242 -93 -313 -159 l-57 -53 -72 70 c-108 104
-108 105 -108 -137 l0 -200 200 0 c239 0 240 1 146 98 l-61 63 38 36 c53 51
124 94 201 120 94 32 248 32 343 0 193 -66 330 -225 369 -426 5 -28 19 -60 31
-73 37 -39 97 -25 116 28 15 39 -14 155 -65 259 -38 79 -60 109 -132 181 -72
72 -102 94 -181 132 -151 74 -298 93 -455 61z"/>
<path d="M138 786 c-10 -7 -21 -23 -26 -36 -15 -41 14 -157 64 -260 39 -79 62
-110 133 -181 72 -73 101 -94 181 -132 210 -101 412 -102 617 -1 58 28 114 65
151 99 l58 53 73 -69 c107 -103 106 -104 106 136 l0 200 -200 0 c-238 0 -239
-1 -144 -95 l61 -61 -28 -31 c-44 -47 -138 -104 -212 -130 -95 -32 -249 -32
-344 0 -193 66 -330 225 -369 426 -15 81 -72 120 -121 82z"/>
</g>
</svg>
