<svg xmlns="http://www.w3.org/2000/svg" width="213.333" height="213.333" preserveAspectRatio="xMidYMid meet" version="1.0" viewBox="0 0 160 160"><metadata>Created by potrace 1.14, written by Peter Selinger 2001-2017</metadata><g fill="#000" stroke="none"><path d="M1388 1359 c-17 -9 -18 -46 -18 -537 0 -397 3 -531 12 -540 19 -19 66 -15 78 7 6 13 10 197 10 530 0 498 -1 512 -20 531 -22 22 -37 24 -62 9z" transform="translate(0.000000,160.000000) scale(0.100000,-0.100000)"/><path d="M746 1258 c-9 -12 -16 -27 -16 -32 0 -5 77 -88 172 -183 l172 -173 -483 0 c-313 0 -489 -4 -502 -10 -22 -12 -26 -59 -7 -78 9 -9 134 -12 500 -12 268 0 488 -3 488 -8 0 -4 -76 -84 -170 -177 -94 -93 -170 -177 -170 -186 0 -21 32 -49 56 -49 27 0 464 439 464 466 0 28 -438 464 -467 464 -12 0 -29 -10 -37 -22z" transform="translate(0.000000,160.000000) scale(0.100000,-0.100000)"/></g></svg>