<?xml version="1.0" standalone="no"?>
<!DOCTYPE svg PUBLIC "-//W3C//DTD SVG 20010904//EN"
 "http://www.w3.org/TR/2001/REC-SVG-20010904/DTD/svg10.dtd">
<svg version="1.0" xmlns="http://www.w3.org/2000/svg"
 width="160.000000pt" height="160.000000pt" viewBox="0 0 160.000000 160.000000"
 preserveAspectRatio="xMidYMid meet">
<metadata>
Created by potrace 1.14, written by Peter Selinger 2001-2017
</metadata>
<g transform="translate(0.000000,160.000000) scale(0.100000,-0.100000)"
fill="#000000" stroke="none">
<path d="M205 1484 c-44 -22 -76 -55 -91 -91 -20 -46 -20 -589 -1 -636 8 -19
157 -175 356 -372 379 -377 384 -381 474 -356 39 11 80 48 328 297 318 318
324 327 299 421 -12 44 -40 75 -349 385 -226 227 -348 342 -373 353 -55 23
-599 22 -643 -1z m905 -459 l325 -325 -268 -267 -267 -268 -325 325 -325 325
0 261 c0 143 3 264 7 267 3 4 124 7 267 7 l261 0 325 -325z"/>
<path d="M551 1086 c-87 -48 -50 -186 49 -186 51 0 100 49 100 99 0 75 -83
124 -149 87z"/>
</g>
</svg>
