<?xml version="1.0" standalone="no"?>
<!DOCTYPE svg PUBLIC "-//W3C//DTD SVG 20010904//EN"
 "http://www.w3.org/TR/2001/REC-SVG-20010904/DTD/svg10.dtd">
<svg version="1.0" xmlns="http://www.w3.org/2000/svg"
 width="160.000000pt" height="160.000000pt" viewBox="0 0 160.000000 160.000000"
 preserveAspectRatio="xMidYMid meet">
<metadata>
Created by potrace 1.14, written by Peter Selinger 2001-2017
</metadata>
<g transform="translate(0.000000,160.000000) scale(0.100000,-0.100000)"
fill="#000000" stroke="none">
<path d="M205 1484 c-47 -24 -84 -65 -96 -104 -6 -23 -9 -233 -7 -602 l3 -566
30 -38 c64 -78 31 -74 665 -74 634 0 601 -4 665 74 l30 38 0 588 0 588 -30 38
c-64 78 -31 74 -665 74 -492 0 -569 -2 -595 -16z m1140 -684 l0 -545 -545 0
-545 0 -3 535 c-1 294 0 541 3 548 3 10 118 12 547 10 l543 -3 0 -545z"/>
<path d="M887 892 l-212 -211 -87 86 c-82 80 -90 85 -120 79 -41 -8 -56 -23
-64 -64 -7 -32 -2 -38 118 -158 102 -102 129 -124 153 -124 25 0 66 37 279
249 244 245 249 250 242 283 -8 41 -23 56 -64 64 -32 7 -39 1 -245 -204z"/>
</g>
</svg>
