<?xml version="1.0" standalone="no"?>
<!DOCTYPE svg PUBLIC "-//W3C//DTD SVG 20010904//EN"
 "http://www.w3.org/TR/2001/REC-SVG-20010904/DTD/svg10.dtd">
<svg version="1.0" xmlns="http://www.w3.org/2000/svg"
 width="160.000000pt" height="160.000000pt" viewBox="0 0 160.000000 160.000000"
 preserveAspectRatio="xMidYMid meet">
<metadata>
Created by potrace 1.14, written by Peter Selinger 2001-2017
</metadata>
<g transform="translate(0.000000,160.000000) scale(0.100000,-0.100000)"
fill="#000000" stroke="none">
<path d="M1083 1484 c-624 -423 -1025 -701 -1038 -720 -44 -67 -34 -153 30
-250 49 -72 108 -108 170 -101 35 4 386 168 1148 537 153 74 179 100 185 191
4 58 3 61 -68 187 -40 70 -84 144 -96 164 -31 49 -89 78 -154 78 -46 0 -59 -6
-177 -86z m275 -194 c39 -68 72 -131 72 -140 0 -11 -33 -33 -97 -63 -54 -26
-103 -47 -109 -47 -10 0 -159 249 -152 254 70 53 186 126 198 124 8 -2 48 -59
88 -128z m-343 -206 c37 -64 65 -117 63 -119 -2 -1 -122 -59 -267 -129 -152
-73 -268 -123 -273 -118 -5 5 -27 40 -49 77 -32 56 -37 71 -27 81 20 19 470
324 479 324 4 0 37 -52 74 -116z m-652 -369 c20 -35 37 -66 37 -69 0 -7 -156
-86 -169 -86 -13 0 -61 82 -61 103 0 13 133 117 149 117 3 0 23 -29 44 -65z"/>
<path d="M763 536 l-111 -54 -111 -163 c-85 -125 -111 -171 -111 -196 0 -61
72 -96 116 -55 10 10 60 78 109 151 l90 133 5 -157 c5 -150 6 -158 29 -176 30
-24 62 -24 92 0 23 18 24 26 29 176 l5 157 90 -133 c50 -73 99 -141 109 -151
44 -41 116 -6 116 55 0 25 -31 78 -140 237 -128 187 -164 229 -196 230 -6 0
-61 -24 -121 -54z"/>
</g>
</svg>
