<?xml version="1.0" standalone="no"?>
<!DOCTYPE svg PUBLIC "-//W3C//DTD SVG 20010904//EN"
 "http://www.w3.org/TR/2001/REC-SVG-20010904/DTD/svg10.dtd">
<svg version="1.0" xmlns="http://www.w3.org/2000/svg"
 width="160.000000pt" height="160.000000pt" viewBox="0 0 160.000000 160.000000"
 preserveAspectRatio="xMidYMid meet">
<metadata>
Created by potrace 1.14, written by Peter Selinger 2001-2017
</metadata>
<g transform="translate(0.000000,160.000000) scale(0.100000,-0.100000)"
fill="#000000" stroke="none">
<path d="M105 1484 c-47 -24 -84 -65 -96 -104 -6 -23 -9 -233 -7 -602 l3 -566
30 -38 c64 -78 18 -74 765 -74 747 0 701 -4 765 74 l30 38 0 588 0 588 -30 38
c-64 78 -18 74 -765 74 -582 0 -669 -2 -695 -16z m1340 -684 l0 -545 -645 0
-645 0 -3 535 c-1 294 0 541 3 548 3 10 138 12 647 10 l643 -3 0 -545z"/>
<path d="M372 1077 c-42 -45 -31 -71 75 -178 l97 -99 -97 -99 c-107 -108 -119
-137 -74 -179 47 -44 69 -33 214 110 122 121 133 135 133 168 0 33 -11 47
-133 168 -112 110 -139 132 -164 132 -18 0 -38 -9 -51 -23z"/>
<path d="M825 625 c-14 -13 -25 -36 -25 -50 0 -14 11 -37 25 -50 24 -25 27
-25 200 -25 173 0 176 0 200 25 32 31 32 69 0 100 -24 25 -27 25 -200 25 -173
0 -176 0 -200 -25z"/>
</g>
</svg>
