<svg xmlns="http://www.w3.org/2000/svg" width="213.333" height="213.333" preserveAspectRatio="xMidYMid meet" version="1.0" viewBox="0 0 160 160"><metadata>Created by potrace 1.14, written by Peter Selinger 2001-2017</metadata><g fill="#000" stroke="none"><path d="M125 1375 c-14 -13 -25 -36 -25 -50 0 -14 11 -37 25 -50 l24 -25 651 0 651 0 24 25 c32 31 32 69 0 100 l-24 25 -651 0 -651 0 -24 -25z" transform="translate(0.000000,160.000000) scale(0.100000,-0.100000)"/><path d="M125 875 c-14 -13 -25 -36 -25 -50 0 -14 11 -37 25 -50 l24 -25 651 0 651 0 24 25 c32 31 32 69 0 100 l-24 25 -651 0 -651 0 -24 -25z" transform="translate(0.000000,160.000000) scale(0.100000,-0.100000)"/><path d="M125 375 c-14 -13 -25 -36 -25 -50 0 -14 11 -37 25 -50 l24 -25 651 0 651 0 24 25 c32 31 32 69 0 100 l-24 25 -651 0 -651 0 -24 -25z" transform="translate(0.000000,160.000000) scale(0.100000,-0.100000)"/></g></svg>