<?xml version="1.0" standalone="no"?>
<!DOCTYPE svg PUBLIC "-//W3C//DTD SVG 20010904//EN"
 "http://www.w3.org/TR/2001/REC-SVG-20010904/DTD/svg10.dtd">
<svg version="1.0" xmlns="http://www.w3.org/2000/svg"
 width="160.000000pt" height="160.000000pt" viewBox="0 0 160.000000 160.000000"
 preserveAspectRatio="xMidYMid meet">
<metadata>
Created by potrace 1.14, written by Peter Selinger 2001-2017
</metadata>
<g transform="translate(0.000000,160.000000) scale(0.100000,-0.100000)"
fill="#000000" stroke="none">
<path d="M125 1375 c-14 -13 -25 -36 -25 -50 0 -14 11 -37 25 -50 l24 -25 651
0 651 0 24 25 c32 31 32 69 0 100 l-24 25 -651 0 -651 0 -24 -25z"/>
<path d="M125 875 c-14 -13 -25 -36 -25 -50 0 -14 11 -37 25 -50 l24 -25 651
0 651 0 24 25 c32 31 32 69 0 100 l-24 25 -651 0 -651 0 -24 -25z"/>
<path d="M125 375 c-14 -13 -25 -36 -25 -50 0 -14 11 -37 25 -50 l24 -25 651
0 651 0 24 25 c32 31 32 69 0 100 l-24 25 -651 0 -651 0 -24 -25z"/>
</g>
</svg>
