<?xml version="1.0" standalone="no"?>
<!DOCTYPE svg PUBLIC "-//W3C//DTD SVG 20010904//EN"
 "http://www.w3.org/TR/2001/REC-SVG-20010904/DTD/svg10.dtd">
<svg version="1.0" xmlns="http://www.w3.org/2000/svg"
 width="160.000000pt" height="160.000000pt" viewBox="0 0 160.000000 160.000000"
 preserveAspectRatio="xMidYMid meet">
<metadata>
Created by potrace 1.14, written by Peter Selinger 2001-2017
</metadata>
<g transform="translate(0.000000,160.000000) scale(0.100000,-0.100000)"
fill="#000000" stroke="none">
<path d="M775 1576 c-38 -17 -90 -72 -106 -111 -6 -16 -15 -75 -19 -131 -6
-70 -15 -114 -30 -147 -27 -58 -96 -128 -150 -152 l-39 -18 -42 37 c-50 42
-80 49 -193 45 -76 -4 -88 -7 -122 -34 -76 -62 -74 -49 -74 -515 0 -466 -2
-453 74 -515 35 -28 44 -30 134 -33 85 -3 102 0 142 20 26 13 55 39 69 61 29
44 11 45 226 -13 210 -56 271 -65 460 -65 132 0 182 4 225 17 101 31 164 98
195 205 54 186 79 585 42 689 -24 70 -75 126 -139 154 -43 19 -76 24 -175 28
l-123 4 7 27 c13 47 9 253 -6 295 -21 60 -84 122 -147 146 -63 23 -163 26
-209 6z m172 -156 c53 -32 62 -89 41 -268 -11 -95 -10 -106 6 -137 29 -53 66
-65 208 -66 216 -1 233 -18 233 -234 -1 -170 -35 -407 -68 -475 -32 -66 -72
-82 -216 -88 -153 -6 -243 7 -493 70 l-208 52 0 291 0 292 76 38 c174 88 274
248 274 435 0 86 16 110 73 110 24 0 56 -8 74 -20z m-652 -870 l0 -395 -70 0
-70 0 -3 385 c-1 212 0 391 3 398 3 9 24 12 72 10 l68 -3 0 -395z"/>
</g>
</svg>
