<?xml version="1.0" standalone="no"?>
<!DOCTYPE svg PUBLIC "-//W3C//DTD SVG 20010904//EN"
 "http://www.w3.org/TR/2001/REC-SVG-20010904/DTD/svg10.dtd">
<svg version="1.0" xmlns="http://www.w3.org/2000/svg"
 width="160.000000pt" height="160.000000pt" viewBox="0 0 160.000000 160.000000"
 preserveAspectRatio="xMidYMid meet">
<metadata>
Created by potrace 1.14, written by Peter Selinger 2001-2017
</metadata>
<g transform="translate(0.000000,160.000000) scale(0.100000,-0.100000)"
fill="#000000" stroke="none">
<path d="M270 1574 c-115 -30 -183 -110 -214 -250 -9 -42 -26 -150 -37 -238
-43 -332 -4 -488 139 -560 37 -19 147 -35 240 -36 l62 0 -7 -42 c-5 -24 -8
-88 -8 -143 0 -90 4 -107 29 -159 44 -89 111 -130 236 -143 62 -6 106 8 156
50 49 42 67 90 75 205 6 81 13 115 34 158 28 57 85 113 148 145 l39 20 22 -24
c46 -49 84 -62 187 -62 88 0 100 3 137 28 23 15 51 45 62 67 19 37 20 58 20
455 0 394 -1 418 -20 455 -35 69 -69 85 -192 88 -95 3 -112 1 -145 -18 -21
-11 -49 -37 -62 -56 -13 -18 -30 -34 -39 -34 -8 0 -85 19 -171 41 -86 23 -194
47 -241 55 -113 19 -377 17 -450 -2z m632 -193 c109 -28 207 -51 218 -51 20 0
20 -6 20 -297 l0 -298 -69 -33 c-179 -86 -281 -251 -281 -453 0 -77 -23 -104
-81 -95 -113 18 -128 63 -105 318 l9 97 -34 34 -34 34 -145 5 c-164 6 -193 14
-224 68 -19 31 -21 51 -20 170 0 82 9 188 22 272 44 287 48 291 342 285 l185
-4 197 -52z m538 -335 c0 -439 6 -406 -71 -406 -84 0 -79 -28 -79 404 0 210 3
386 7 389 3 4 37 7 75 7 l68 0 0 -394z"/>
</g>
</svg>
