<svg xmlns="http://www.w3.org/2000/svg" width="213.333" height="213.333" preserveAspectRatio="xMidYMid meet" version="1.0" viewBox="0 0 160 160"><metadata>Created by potrace 1.14, written by Peter Selinger 2001-2017</metadata><g fill="#000" stroke="none"><path d="M473 1500 c-57 -29 -160 -141 -201 -217 -42 -79 -72 -198 -72 -283 0 -85 30 -204 72 -283 31 -59 140 -179 201 -222 l29 -20 -10 -179 c-6 -104 -7 -188 -2 -202 18 -47 83 -59 118 -21 21 22 23 40 33 219 10 186 10 198 -9 241 -11 25 -36 57 -58 73 -74 55 -151 140 -177 195 -86 182 -53 374 87 514 l61 60 5 -180 c6 -215 9 -223 118 -296 67 -45 79 -49 132 -49 52 0 65 5 127 46 37 25 79 61 93 81 24 35 25 45 30 217 l5 181 60 -60 c143 -141 174 -337 84 -522 -24 -49 -103 -135 -173 -187 -22 -16 -47 -48 -58 -73 -19 -43 -19 -55 -9 -241 10 -179 12 -197 33 -219 35 -38 100 -26 118 21 5 14 4 98 -2 202 l-10 179 29 20 c61 43 170 163 201 222 42 79 72 198 72 283 0 85 -30 203 -72 283 -44 84 -169 211 -225 227 -79 24 -150 -8 -184 -84 -16 -34 -19 -67 -19 -203 l0 -163 -42 -30 c-51 -37 -65 -37 -116 0 l-42 30 0 163 c0 149 -2 166 -22 207 -13 24 -35 52 -49 63 -41 29 -106 32 -156 7z" transform="translate(0.000000,160.000000) scale(0.100000,-0.100000)"/></g></svg>