<?xml version="1.0" standalone="no"?>
<!DOCTYPE svg PUBLIC "-//W3C//DTD SVG 20010904//EN"
 "http://www.w3.org/TR/2001/REC-SVG-20010904/DTD/svg10.dtd">
<svg version="1.0" xmlns="http://www.w3.org/2000/svg"
 width="160.000000pt" height="160.000000pt" viewBox="0 0 160.000000 160.000000"
 preserveAspectRatio="xMidYMid meet">
<metadata>
Created by potrace 1.14, written by Peter Selinger 2001-2017
</metadata>
<g transform="translate(0.000000,160.000000) scale(0.100000,-0.100000)"
fill="#000000" stroke="none">
<path d="M601 1587 c-42 -21 -64 -62 -69 -127 l-4 -60 -184 0 -184 0 -16 -25
c-15 -23 -15 -27 0 -50 l16 -25 640 0 640 0 16 25 c15 23 15 27 0 50 l-16 25
-184 0 -184 0 -4 60 c-5 65 -27 106 -69 127 -16 9 -80 13 -199 13 -119 0 -183
-4 -199 -13z m367 -139 l3 -48 -170 0 -171 0 0 43 c0 24 3 47 7 51 4 3 79 5
167 4 l161 -3 3 -47z"/>
<path d="M245 1214 c-12 -12 -14 -27 -10 -58 3 -22 25 -249 50 -503 47 -493
51 -510 105 -538 43 -22 777 -22 820 0 54 28 58 45 105 538 25 254 47 481 50
503 4 31 2 46 -10 58 -20 20 -59 21 -75 1 -7 -9 -30 -204 -61 -512 -26 -274
-48 -499 -49 -500 0 -2 -166 -3 -370 -3 -203 0 -370 1 -370 3 -1 1 -23 226
-49 500 -31 308 -54 503 -61 512 -16 20 -55 19 -75 -1z"/>
<path d="M585 1086 c-19 -13 -19 -21 -2 -317 16 -285 19 -305 38 -321 26 -22
32 -22 59 0 l21 17 -17 295 c-17 305 -23 340 -62 340 -10 0 -27 -6 -37 -14z"/>
<path d="M946 1078 c-10 -17 -18 -107 -30 -318 l-17 -295 21 -17 c27 -22 33
-22 59 0 19 16 22 36 38 321 17 296 17 304 -2 317 -27 20 -53 17 -69 -8z"/>
</g>
</svg>
