<svg xmlns="http://www.w3.org/2000/svg" width="213.333" height="213.333" preserveAspectRatio="xMidYMid meet" version="1.0" viewBox="0 0 160 160"><metadata>Created by potrace 1.14, written by Peter Selinger 2001-2017</metadata><g fill="#000" stroke="none"><path d="M605 1584 c-80 -41 -105 -90 -105 -204 l0 -80 -125 0 c-120 0 -127 -1 -150 -25 -14 -13 -25 -36 -25 -50 0 -14 11 -37 25 -50 l24 -25 551 0 551 0 24 25 c32 31 32 69 0 100 -23 24 -30 25 -149 25 l-124 0 -4 94 c-3 87 -5 97 -33 132 -55 68 -78 74 -265 74 -130 0 -171 -3 -195 -16z m343 -211 l3 -73 -151 0 -150 0 0 68 c0 38 3 72 7 76 4 3 70 5 147 4 l141 -3 3 -72z" transform="translate(0.000000,160.000000) scale(0.100000,-0.100000)"/><path d="M321 974 c-11 -15 -21 -34 -21 -43 0 -9 16 -171 35 -359 39 -391 44 -406 124 -449 43 -23 50 -23 341 -23 444 0 415 -30 466 481 38 380 38 390 -13 410 -35 13 -69 4 -87 -24 -10 -15 -25 -127 -46 -347 -17 -179 -36 -335 -41 -348 l-9 -22 -270 0 -270 0 -9 23 c-5 12 -24 168 -41 347 -34 362 -37 372 -102 378 -29 2 -40 -2 -57 -24z" transform="translate(0.000000,160.000000) scale(0.100000,-0.100000)"/></g></svg>