<svg xmlns="http://www.w3.org/2000/svg" width="213.333" height="213.333" preserveAspectRatio="xMidYMid meet" version="1.0" viewBox="0 0 160 160"><metadata>Created by potrace 1.14, written by Peter Selinger 2001-2017</metadata><g fill="#000" stroke="none"><path d="M395 1432 c-17 -10 -38 -37 -48 -58 -30 -70 -347 -986 -347 -1004 0 -28 32 -59 67 -66 49 -10 72 22 122 169 l44 127 220 -2 220 -3 46 -135 c38 -111 51 -137 73 -149 35 -20 77 -6 98 31 14 27 9 47 -154 535 -186 562 -186 561 -267 570 -32 3 -52 -1 -74 -15z m145 -437 c40 -121 75 -226 78 -232 3 -10 -33 -13 -162 -13 -91 0 -166 3 -166 6 0 22 165 473 170 467 4 -4 40 -107 80 -228z" transform="translate(0.000000,160.000000) scale(0.100000,-0.100000)"/><path d="M1181 1185 c-71 -20 -111 -46 -161 -102 -31 -36 -40 -54 -40 -83 0 -46 24 -70 70 -70 28 0 42 9 79 49 64 68 163 91 245 57 53 -22 76 -60 76 -126 l0 -58 -132 -4 c-106 -4 -145 -9 -190 -27 -230 -89 -238 -390 -13 -493 65 -30 203 -32 282 -5 52 18 53 18 79 -2 35 -28 69 -26 99 4 l25 24 0 318 c-1 233 -4 328 -14 354 -36 103 -142 170 -274 176 -48 2 -97 -3 -131 -12z m269 -563 c0 -54 -5 -84 -16 -100 -38 -55 -169 -87 -249 -60 -80 27 -110 120 -57 178 40 45 91 59 215 60 l107 0 0 -78z" transform="translate(0.000000,160.000000) scale(0.100000,-0.100000)"/></g></svg>