<?xml version="1.0" standalone="no"?>
<!DOCTYPE svg PUBLIC "-//W3C//DTD SVG 20010904//EN"
 "http://www.w3.org/TR/2001/REC-SVG-20010904/DTD/svg10.dtd">
<svg version="1.0" xmlns="http://www.w3.org/2000/svg"
 width="160.000000pt" height="160.000000pt" viewBox="0 0 160.000000 160.000000"
 preserveAspectRatio="xMidYMid meet">
<metadata>
Created by potrace 1.14, written by Peter Selinger 2001-2017
</metadata>
<g transform="translate(0.000000,160.000000) scale(0.100000,-0.100000)"
fill="#000000" stroke="none">
<path d="M637 1391 c-105 -105 -148 -154 -145 -167 3 -17 15 -19 116 -22 l112
-3 0 -52 c0 -98 26 -146 80 -146 54 0 80 48 80 146 l0 52 112 3 c101 3 113 5
116 22 3 13 -40 62 -145 167 -82 82 -155 149 -163 149 -8 0 -81 -67 -163 -149z"/>
<path d="M120 848 c-57 -62 16 -144 110 -123 64 14 90 79 50 123 -17 18 -32
22 -80 22 -48 0 -63 -4 -80 -22z"/>
<path d="M420 848 c-57 -62 16 -144 110 -123 64 14 90 79 50 123 -17 18 -32
22 -80 22 -48 0 -63 -4 -80 -22z"/>
<path d="M720 848 c-40 -44 -14 -109 50 -123 94 -21 167 61 110 123 -17 18
-32 22 -80 22 -48 0 -63 -4 -80 -22z"/>
<path d="M1020 848 c-40 -44 -14 -109 50 -123 94 -21 167 61 110 123 -17 18
-32 22 -80 22 -48 0 -63 -4 -80 -22z"/>
<path d="M1320 848 c-40 -44 -14 -109 50 -123 94 -21 167 61 110 123 -17 18
-32 22 -80 22 -48 0 -63 -4 -80 -22z"/>
<path d="M757 586 c-23 -18 -37 -68 -37 -133 l0 -53 -110 0 c-92 0 -112 -3
-117 -16 -4 -11 39 -61 151 -172 l156 -157 156 157 c112 111 155 161 151 172
-5 13 -25 16 -117 16 l-110 0 0 53 c0 98 -26 146 -80 146 -14 0 -33 -6 -43
-13z"/>
</g>
</svg>
