<svg xmlns="http://www.w3.org/2000/svg" width="213.333" height="213.333" preserveAspectRatio="xMidYMid meet" version="1.0" viewBox="0 0 160 160"><metadata>Created by potrace 1.14, written by Peter Selinger 2001-2017</metadata><g fill="#000" stroke="none"><path d="M706 1590 c-63 -16 -153 -70 -197 -117 -22 -24 -55 -74 -72 -111 -30 -64 -32 -74 -35 -214 l-4 -148 -39 0 c-58 0 -115 -33 -139 -80 -19 -37 -20 -58 -20 -370 0 -312 1 -333 20 -370 13 -26 34 -47 60 -60 38 -19 58 -20 520 -20 462 0 482 1 520 20 26 13 47 34 60 60 19 37 20 58 20 370 0 312 -1 333 -20 370 -13 26 -34 47 -60 60 -37 19 -58 20 -405 20 l-365 0 0 123 c1 171 29 236 128 294 40 24 58 28 122 28 91 0 124 -16 197 -91 59 -62 89 -69 128 -29 33 32 31 63 -4 111 -68 95 -178 154 -299 160 -42 2 -94 -1 -116 -6z m544 -1040 l0 -300 -450 0 -450 0 0 300 0 300 450 0 450 0 0 -300z" transform="translate(0.000000,160.000000) scale(0.100000,-0.100000)"/></g></svg>