<?xml version="1.0" standalone="no"?>
<!DOCTYPE svg PUBLIC "-//W3C//DTD SVG 20010904//EN"
 "http://www.w3.org/TR/2001/REC-SVG-20010904/DTD/svg10.dtd">
<svg version="1.0" xmlns="http://www.w3.org/2000/svg"
 width="160.000000pt" height="160.000000pt" viewBox="0 0 160.000000 160.000000"
 preserveAspectRatio="xMidYMid meet">
<metadata>
Created by potrace 1.14, written by Peter Selinger 2001-2017
</metadata>
<g transform="translate(0.000000,160.000000) scale(0.100000,-0.100000)"
fill="#000000" stroke="none">
<path d="M683 1385 c-12 -8 -92 -76 -178 -149 l-156 -134 -119 -4 c-114 -3
-119 -4 -156 -33 -68 -55 -74 -78 -74 -265 0 -187 6 -210 74 -265 37 -29 42
-30 156 -33 l119 -4 156 -134 c86 -73 166 -141 178 -149 31 -22 64 -18 92 10
l25 24 0 551 0 551 -25 24 c-28 28 -61 32 -92 10z m-33 -586 l0 -360 -91 78
c-162 140 -137 127 -279 133 l-125 5 0 145 0 145 126 5 126 5 44 36 c24 21 78
66 119 102 41 37 76 66 78 67 1 0 2 -162 2 -361z"/>
<path d="M1265 1365 c-39 -38 -33 -72 26 -140 98 -116 159 -279 159 -425 0
-146 -61 -309 -159 -425 -66 -76 -68 -125 -8 -150 57 -24 96 6 190 144 46 70
94 191 113 289 43 228 -20 468 -173 654 -67 82 -106 96 -148 53z"/>
<path d="M1080 1173 c-59 -21 -67 -86 -19 -141 18 -20 44 -61 58 -92 22 -46
26 -69 26 -140 0 -71 -4 -94 -26 -140 -14 -31 -40 -72 -57 -91 -47 -54 -50
-82 -14 -119 43 -42 67 -39 122 18 78 80 130 215 130 332 0 114 -51 247 -123
324 -42 45 -69 59 -97 49z"/>
</g>
</svg>
