<svg xmlns="http://www.w3.org/2000/svg" width="213.333" height="213.333" preserveAspectRatio="xMidYMid meet" version="1.0" viewBox="0 0 160 160"><metadata>Created by potrace 1.14, written by Peter Selinger 2001-2017</metadata><g fill="#000" stroke="none"><path d="M740 1557 c-25 -7 -82 -38 -127 -69 -70 -48 -91 -57 -155 -67 -188 -30 -244 -83 -274 -259 -15 -87 -30 -119 -98 -215 -75 -103 -67 -198 26 -334 48 -70 57 -91 67 -155 30 -190 89 -249 279 -279 64 -10 85 -19 155 -67 136 -93 231 -101 334 -26 97 69 128 83 203 94 88 13 169 49 204 90 31 38 52 97 67 188 10 64 19 85 67 155 102 149 102 223 3 369 -51 75 -60 96 -70 160 -30 188 -90 250 -270 277 -83 13 -96 18 -169 73 -90 67 -163 86 -242 65z m199 -158 c81 -56 92 -61 187 -77 154 -27 172 -45 198 -206 14 -81 20 -97 70 -170 95 -138 95 -154 0 -291 -51 -75 -56 -89 -72 -181 -19 -109 -43 -154 -89 -172 -16 -6 -68 -18 -117 -26 -81 -13 -97 -20 -170 -70 -139 -95 -153 -95 -292 0 -73 50 -89 56 -170 70 -161 26 -179 44 -206 198 -16 96 -20 105 -80 191 -54 78 -62 95 -62 135 0 40 8 57 63 136 58 84 63 96 77 179 26 162 43 180 198 207 95 16 106 21 186 76 47 33 94 62 105 65 43 11 91 -6 174 -64z" transform="translate(0.000000,160.000000) scale(0.100000,-0.100000)"/><path d="M744 1161 c-17 -4 -44 -16 -62 -26 -70 -42 -99 -124 -49 -141 33 -11 46 -6 78 31 36 41 84 52 134 31 38 -16 54 -45 47 -83 -3 -14 -36 -55 -73 -92 l-69 -68 0 -66 c0 -70 14 -97 50 -97 32 0 50 28 50 80 0 46 3 50 50 90 54 45 78 82 91 140 20 86 -46 179 -141 199 -56 12 -61 12 -106 2z" transform="translate(0.000000,160.000000) scale(0.100000,-0.100000)"/><path d="M772 560 c-49 -20 -48 -101 3 -120 55 -21 106 30 85 85 -7 19 -50 49 -63 44 -1 0 -12 -4 -25 -9z" transform="translate(0.000000,160.000000) scale(0.100000,-0.100000)"/></g></svg>