<svg xmlns="http://www.w3.org/2000/svg" width="213.333" height="213.333" preserveAspectRatio="xMidYMid meet" version="1.0" viewBox="0 0 160 160"><metadata>Created by potrace 1.14, written by Peter Selinger 2001-2017</metadata><g fill="#000" stroke="none"><path d="M717 1586 c-21 -8 -55 -25 -75 -39 -20 -14 -56 -39 -79 -55 -32 -22 -63 -33 -125 -42 -103 -15 -154 -37 -203 -85 -48 -49 -70 -100 -85 -203 -10 -67 -19 -93 -46 -130 -139 -193 -139 -271 0 -464 27 -37 36 -63 46 -130 15 -98 23 -121 57 -170 43 -64 101 -94 215 -114 70 -13 112 -26 137 -43 112 -77 135 -91 169 -101 91 -25 156 -8 276 73 68 47 92 57 151 67 113 18 161 37 209 86 49 49 69 96 87 213 9 56 21 85 46 120 138 192 138 270 0 462 -27 37 -36 64 -51 146 -20 114 -50 172 -114 216 -46 33 -77 43 -172 57 -65 10 -86 19 -156 67 -45 30 -99 61 -120 68 -49 18 -118 18 -167 1z m201 -195 c81 -60 102 -68 212 -87 130 -23 152 -44 171 -163 16 -105 32 -144 92 -224 45 -62 52 -77 52 -117 0 -40 -7 -55 -52 -117 -60 -80 -76 -119 -92 -224 -19 -119 -41 -140 -171 -163 -111 -19 -130 -27 -214 -89 -61 -45 -76 -52 -116 -52 -40 0 -55 7 -117 52 -80 60 -119 76 -224 92 -117 19 -141 43 -160 160 -16 105 -32 144 -92 224 -45 62 -52 77 -52 117 0 40 7 55 52 117 60 80 76 119 92 224 19 117 43 141 160 160 103 16 144 32 220 88 80 59 86 61 133 57 26 -3 60 -20 106 -55z" transform="translate(0.000000,160.000000) scale(0.100000,-0.100000)"/><path d="M875 879 l-175 -173 -75 73 c-70 68 -78 73 -108 67 -40 -8 -55 -23 -63 -64 -6 -31 -1 -38 102 -142 153 -156 127 -163 388 99 203 204 209 211 202 243 -8 41 -23 56 -64 64 -32 6 -38 1 -207 -167z" transform="translate(0.000000,160.000000) scale(0.100000,-0.100000)"/></g></svg>