<svg xmlns="http://www.w3.org/2000/svg" width="213.333" height="213.333" preserveAspectRatio="xMidYMid meet" version="1.0" viewBox="0 0 160 160"><metadata>Created by potrace 1.14, written by Peter Selinger 2001-2017</metadata><g fill="#000" stroke="none"><path d="M705 1384 c-16 -8 -41 -25 -54 -37 -50 -47 -51 -53 -51 -549 0 -520 -3 -500 74 -563 l38 -30 388 0 388 0 38 30 c77 63 74 43 74 565 0 522 3 502 -74 565 l-38 30 -376 3 c-328 2 -381 0 -407 -14z m740 -584 l0 -445 -345 0 -345 0 -3 435 c-1 239 0 441 3 448 3 10 78 12 347 10 l343 -3 0 -445z" transform="translate(0.000000,160.000000) scale(0.100000,-0.100000)"/><path d="M384 1271 c-17 -10 -42 -34 -55 -53 l-24 -33 0 -386 0 -386 28 -36 c40 -53 81 -72 118 -56 54 22 64 70 24 117 l-25 30 0 332 0 332 25 30 c38 45 32 89 -16 113 -36 19 -38 19 -75 -4z" transform="translate(0.000000,160.000000) scale(0.100000,-0.100000)"/><path d="M84 1171 c-17 -10 -42 -34 -55 -53 -24 -33 -24 -34 -24 -319 l0 -286 28 -36 c40 -53 81 -72 118 -56 54 22 64 70 24 117 l-25 30 0 232 0 232 25 30 c38 45 32 89 -16 113 -36 19 -38 19 -75 -4z" transform="translate(0.000000,160.000000) scale(0.100000,-0.100000)"/></g></svg>