<?xml version="1.0" standalone="no"?>
<!DOCTYPE svg PUBLIC "-//W3C//DTD SVG 20010904//EN"
 "http://www.w3.org/TR/2001/REC-SVG-20010904/DTD/svg10.dtd">
<svg version="1.0" xmlns="http://www.w3.org/2000/svg"
 width="160.000000pt" height="160.000000pt" viewBox="0 0 160.000000 160.000000"
 preserveAspectRatio="xMidYMid meet">
<metadata>
Created by potrace 1.14, written by Peter Selinger 2001-2017
</metadata>
<g transform="translate(0.000000,160.000000) scale(0.100000,-0.100000)"
fill="#000000" stroke="none">
<path d="M105 1585 c-16 -9 -41 -26 -54 -38 -46 -43 -51 -72 -51 -299 0 -240
4 -256 74 -312 32 -26 48 -31 107 -34 l69 -4 0 -217 c0 -253 8 -289 75 -356
67 -67 103 -75 356 -75 l217 0 4 -69 c3 -59 8 -75 34 -107 57 -70 72 -74 314
-74 242 0 257 4 315 74 l30 38 0 238 0 238 -30 38 c-59 72 -71 75 -327 72
l-226 -3 -39 -31 c-57 -46 -73 -85 -73 -181 l0 -83 -210 0 c-229 0 -255 5
-278 55 -8 17 -12 94 -12 235 l0 208 94 4 c87 3 97 5 132 33 70 58 74 73 74
315 0 242 -4 257 -74 315 l-38 30 -226 3 c-192 2 -232 0 -257 -13z m440 -335
l0 -195 -195 0 -195 0 -3 185 c-1 101 0 190 3 197 3 11 46 13 197 11 l193 -3
0 -195z m900 -900 l0 -195 -195 0 -195 0 -3 185 c-1 101 0 190 3 197 3 11 46
13 197 11 l193 -3 0 -195z"/>
</g>
</svg>
