<svg xmlns="http://www.w3.org/2000/svg" width="213.333" height="213.333" preserveAspectRatio="xMidYMid meet" version="1.0" viewBox="0 0 160 160"><metadata>Created by potrace 1.14, written by Peter Selinger 2001-2017</metadata><g fill="#000" stroke="none"><path d="M621 1510 c-247 -65 -437 -243 -518 -485 -25 -72 -27 -94 -27 -225 0 -131 2 -153 27 -225 38 -115 91 -199 182 -290 141 -141 284 -204 482 -213 83 -3 131 0 190 13 253 56 457 241 540 490 25 72 27 94 27 225 0 131 -2 153 -27 225 -82 246 -286 433 -534 489 -98 22 -248 20 -342 -4z m75 -532 l104 -102 104 102 c104 103 134 120 164 90 30 -30 13 -60 -90 -164 l-102 -104 102 -104 c103 -104 120 -134 90 -164 -30 -30 -60 -13 -164 90 l-104 102 -104 -102 c-104 -103 -134 -120 -164 -90 -30 30 -13 60 90 164 l102 104 -102 104 c-103 104 -120 134 -90 164 30 30 60 13 164 -90z" transform="translate(0.000000,160.000000) scale(0.100000,-0.100000)"/></g></svg>