<?xml version="1.0" standalone="no"?>
<!DOCTYPE svg PUBLIC "-//W3C//DTD SVG 20010904//EN"
 "http://www.w3.org/TR/2001/REC-SVG-20010904/DTD/svg10.dtd">
<svg version="1.0" xmlns="http://www.w3.org/2000/svg"
 width="160.000000pt" height="160.000000pt" viewBox="0 0 160.000000 160.000000"
 preserveAspectRatio="xMidYMid meet">
<metadata>
Created by potrace 1.14, written by Peter Selinger 2001-2017
</metadata>
<g transform="translate(0.000000,160.000000) scale(0.100000,-0.100000)"
fill="#000000" stroke="none">
<path d="M375 1225 c-49 -48 -40 -63 147 -252 l172 -173 -173 -175 c-168 -169
-173 -175 -167 -207 8 -41 23 -56 64 -64 32 -6 38 -1 207 167 l175 173 173
-172 c147 -146 178 -172 203 -172 38 0 74 36 74 75 0 24 -29 58 -172 202
l-172 173 172 173 c146 147 172 178 172 203 0 38 -36 74 -75 74 -24 0 -58 -29
-202 -172 l-173 -172 -173 172 c-189 187 -204 196 -252 147z"/>
</g>
</svg>
