<?xml version="1.0" standalone="no"?>
<!DOCTYPE svg PUBLIC "-//W3C//DTD SVG 20010904//EN"
 "http://www.w3.org/TR/2001/REC-SVG-20010904/DTD/svg10.dtd">
<svg version="1.0" xmlns="http://www.w3.org/2000/svg"
 width="160.000000pt" height="160.000000pt" viewBox="0 0 160.000000 160.000000"
 preserveAspectRatio="xMidYMid meet">
<metadata>
Created by potrace 1.14, written by Peter Selinger 2001-2017
</metadata>
<g transform="translate(0.000000,160.000000) scale(0.100000,-0.100000)"
fill="#000000" stroke="none">
<path d="M997 1588 c-15 -7 -199 -179 -409 -383 -388 -377 -418 -411 -418
-480 0 -36 30 -104 56 -127 42 -37 90 -48 215 -48 93 0 120 -3 116 -12 -2 -7
-39 -97 -81 -200 -42 -103 -76 -200 -76 -215 0 -38 33 -89 69 -108 36 -18 107
-19 140 -1 13 7 194 179 404 382 384 373 416 410 417 477 0 59 -48 138 -100
160 -14 6 -84 13 -156 16 l-130 6 80 175 c104 227 106 274 14 343 -32 24 -104
31 -141 15z m-47 -376 c-55 -122 -100 -230 -100 -241 0 -10 9 -29 19 -42 19
-23 24 -24 213 -29 176 -5 193 -7 193 -23 0 -15 -684 -691 -692 -683 -1 1 36
95 82 209 47 113 85 215 85 225 0 11 -9 30 -19 43 -19 23 -24 24 -213 29 -177
5 -193 7 -193 23 0 15 715 720 723 713 1 -2 -43 -103 -98 -224z"/>
</g>
</svg>
