<svg xmlns="http://www.w3.org/2000/svg" xmlns:xlink="http://www.w3.org/1999/xlink" width="14" height="16" version="1.1" viewBox="0 0 14 16"><title>briefcase</title><desc>Created with Sketch.</desc><g id="Octicons" fill="none" fill-rule="evenodd" stroke="none" stroke-width="1"><g id="briefcase" fill="#000"><path id="Shape" d="M9,4 L9,3 C9,2.45 8.55,2 8,2 L6,2 C5.45,2 5,2.45 5,3 L5,4 L1,4 C0.45,4 0,4.45 0,5 L0,13 C0,13.55 0.45,14 1,14 L13,14 C13.55,14 14,13.55 14,13 L14,5 C14,4.45 13.55,4 13,4 L9,4 L9,4 Z M6,3 L8,3 L8,4 L6,4 L6,3 L6,3 Z M13,9 L8,9 L8,10 L6,10 L6,9 L1,9 L1,5 L2,5 L2,8 L12,8 L12,5 L13,5 L13,9 L13,9 Z"/></g></g></svg>