<svg xmlns="http://www.w3.org/2000/svg" xmlns:xlink="http://www.w3.org/1999/xlink" width="16" height="16" version="1.1" viewBox="0 0 16 16"><title>comment</title><desc>Created with Sketch.</desc><g id="Octicons" fill="none" fill-rule="evenodd" stroke="none" stroke-width="1"><g id="comment" fill="#000"><path id="Shape" d="M14,1 L2,1 C1.45,1 1,1.45 1,2 L1,10 C1,10.55 1.45,11 2,11 L4,11 L4,14.5 L7.5,11 L14,11 C14.55,11 15,10.55 15,10 L15,2 C15,1.45 14.55,1 14,1 L14,1 Z M14,10 L7,10 L5,12 L5,10 L2,10 L2,2 L14,2 L14,10 L14,10 Z"/></g></g></svg>