<svg xmlns="http://www.w3.org/2000/svg" xmlns:xlink="http://www.w3.org/1999/xlink" width="16" height="16" version="1.1" viewBox="0 0 16 16"><title>device-desktop</title><desc>Created with Sketch.</desc><g id="Octicons" fill="none" fill-rule="evenodd" stroke="none" stroke-width="1"><g id="device-desktop" fill="#000"><path id="Shape" d="M15,2 L1,2 C0.45,2 0,2.45 0,3 L0,12 C0,12.55 0.45,13 1,13 L6.34,13 C6.09,13.61 5.48,14.39 4,15 L12,15 C10.52,14.39 9.91,13.61 9.66,13 L15,13 C15.55,13 16,12.55 16,12 L16,3 C16,2.45 15.55,2 15,2 L15,2 Z M15,11 L1,11 L1,3 L15,3 L15,11 L15,11 Z"/></g></g></svg>