<svg xmlns="http://www.w3.org/2000/svg" xmlns:xlink="http://www.w3.org/1999/xlink" width="14" height="16" version="1.1" viewBox="0 0 14 16"><title>diff-renamed</title><desc>Created with Sketch.</desc><g id="Octicons" fill="none" fill-rule="evenodd" stroke="none" stroke-width="1"><g id="diff-renamed" fill="#000"><path id="Shape" d="M6,9 L3,9 L3,7 L6,7 L6,4 L11,8 L6,12 L6,9 L6,9 Z M14,2 L14,14 C14,14.55 13.55,15 13,15 L1,15 C0.45,15 0,14.55 0,14 L0,2 C0,1.45 0.45,1 1,1 L13,1 C13.55,1 14,1.45 14,2 L14,2 Z M13,2 L1,2 L1,14 L13,14 L13,2 L13,2 Z"/></g></g></svg>