<svg xmlns="http://www.w3.org/2000/svg" xmlns:xlink="http://www.w3.org/1999/xlink" width="12" height="16" version="1.1" viewBox="0 0 12 16"><title>ellipses</title><desc>Created with Sketch.</desc><g id="Octicons" fill="none" fill-rule="evenodd" stroke="none" stroke-width="1"><g id="ellipses" fill="#000"><path id="Shape" d="M11,5 L1,5 C0.45,5 0,5.45 0,6 L0,10 C0,10.55 0.45,11 1,11 L11,11 C11.55,11 12,10.55 12,10 L12,6 C12,5.45 11.55,5 11,5 L11,5 Z M4,9 L2,9 L2,7 L4,7 L4,9 L4,9 Z M7,9 L5,9 L5,7 L7,7 L7,9 L7,9 Z M10,9 L8,9 L8,7 L10,7 L10,9 L10,9 Z"/></g></g></svg>