<svg xmlns="http://www.w3.org/2000/svg" xmlns:xlink="http://www.w3.org/1999/xlink" width="16" height="16" version="1.1" viewBox="0 0 16 16"><title>home</title><desc>Created with Sketch.</desc><g id="Octicons" fill="none" fill-rule="evenodd" stroke="none" stroke-width="1"><g id="home" fill="#000"><path id="Shape" d="M16,9 L13,6 L13,2 L11,2 L11,4 L8,1 L0,9 L2,9 L3,14 C3,14.55 3.45,15 4,15 L12,15 C12.55,15 13,14.55 13,14 L14,9 L16,9 L16,9 Z M12,14 L9,14 L9,10 L7,10 L7,14 L4,14 L2.81,7.69 L8,2.5 L13.19,7.69 L12,14 L12,14 Z"/></g></g></svg>