<svg xmlns="http://www.w3.org/2000/svg" xmlns:xlink="http://www.w3.org/1999/xlink" width="10" height="16" version="1.1" viewBox="0 0 10 16"><title>horizontal-rule</title><desc>Created with Sketch.</desc><g id="Octicons" fill="none" fill-rule="evenodd" stroke="none" stroke-width="1"><g id="horizontal-rule" fill="#000"><path id="Shape" d="M1,7 L3,7 L3,9 L4,9 L4,3 L3,3 L3,6 L1,6 L1,3 L0,3 L0,9 L1,9 L1,7 L1,7 Z M10,9 L10,7 L9,7 L9,9 L10,9 L10,9 Z M10,6 L10,4 L9,4 L9,6 L10,6 L10,6 Z M7,6 L7,4 L9,4 L9,3 L6,3 L6,9 L7,9 L7,7 L9,7 L9,6 L7,6 L7,6 Z M0,13 L10,13 L10,11 L0,11 L0,13 L0,13 Z"/></g></g></svg>