<svg xmlns="http://www.w3.org/2000/svg" xmlns:xlink="http://www.w3.org/1999/xlink" width="14" height="16" version="1.1" viewBox="0 0 14 16"><title>milestone</title><desc>Created with Sketch.</desc><g id="Octicons" fill="none" fill-rule="evenodd" stroke="none" stroke-width="1"><g id="milestone" fill="#000"><path id="Shape" d="M8,2 L6,2 L6,0 L8,0 L8,2 L8,2 Z M12,7 L2,7 C1.45,7 1,6.55 1,6 L1,4 C1,3.45 1.45,3 2,3 L12,3 L14,5 L12,7 L12,7 Z M8,4 L6,4 L6,6 L8,6 L8,4 L8,4 Z M6,16 L8,16 L8,8 L6,8 L6,16 L6,16 Z"/></g></g></svg>