<svg xmlns="http://www.w3.org/2000/svg" xmlns:xlink="http://www.w3.org/1999/xlink" width="14" height="16" version="1.1" viewBox="0 0 14 16"><title>plug</title><desc>Created with Sketch.</desc><g id="Octicons" fill="none" fill-rule="evenodd" stroke="none" stroke-width="1"><g id="plug" fill="#000"><path id="Shape" d="M14,6 L14,5 L10,5 L10,3 L8,3 L8,4 L6,4 C4.97,4 4.23,4.81 4,6 L3,7 C1.34,7 0,8.34 0,10 L0,12 L1,12 L1,10 C1,8.89 1.89,8 3,8 L4,9 C4.25,10.16 4.98,11 6,11 L8,11 L8,12 L10,12 L10,10 L14,10 L14,9 L10,9 L10,6 L14,6 L14,6 Z"/></g></g></svg>