<svg xmlns="http://www.w3.org/2000/svg" xmlns:xlink="http://www.w3.org/1999/xlink" width="12" height="16" version="1.1" viewBox="0 0 12 16"><title>repo-force-push</title><desc>Created with Sketch.</desc><g id="Octicons" fill="none" fill-rule="evenodd" stroke="none" stroke-width="1"><g id="repo-force-push" fill="#000"><path id="Shape" d="M10,9 L8,9 L8,16 L6,16 L6,9 L4,9 L6.25,6 L4,6 L7,2 L10,6 L7.75,6 L10,9 L10,9 Z M11,0 L1,0 C0.45,0 0,0.45 0,1 L0,13 C0,13.55 0.45,14 1,14 L5,14 L5,13 L1,13 L1,11 L5,11 L5,10 L2,10 L2,1 L11,1 L11,10 L9,10 L9,11 L11,11 L11,13 L9,13 L9,14 L11,14 C11.55,14 12,13.55 12,13 L12,1 C12,0.45 11.55,0 11,0 L11,0 Z"/></g></g></svg>