<svg xmlns="http://www.w3.org/2000/svg" xmlns:xlink="http://www.w3.org/1999/xlink" width="14" height="16" version="1.1" viewBox="0 0 14 16"><title>shield</title><desc>Created with Sketch.</desc><g id="Octicons" fill="none" fill-rule="evenodd" stroke="none" stroke-width="1"><g id="shield" fill="#000"><path id="Shape" d="M7,0 L0,2 L0,8.02 C0,12.69 5.31,16 7,16 C8.69,16 14,12.69 14,8.02 L14,2 L7,0 L7,0 Z M5,11 L6.14,8.2 C6.19,7.97 6.08,7.73 5.89,7.61 C5.33,7.25 5,6.66 5,6 C5,4.91 5.89,4 6.98,4 C8.06,4 9,4.91 9,6 C9,6.66 8.67,7.25 8.11,7.61 C7.92,7.74 7.81,7.97 7.86,8.2 L9,11 L5,11 L5,11 Z"/></g></g></svg>