<svg xmlns="http://www.w3.org/2000/svg" xmlns:xlink="http://www.w3.org/1999/xlink" width="14" height="16" version="1.1" viewBox="0 0 14 16"><title>stop</title><desc>Created with Sketch.</desc><g id="Octicons" fill="none" fill-rule="evenodd" stroke="none" stroke-width="1"><g id="stop" fill="#000"><path id="Shape" d="M10,1 L4,1 L0,5 L0,11 L4,15 L10,15 L14,11 L14,5 L10,1 L10,1 Z M13,10.5 L9.5,14 L4.5,14 L1,10.5 L1,5.5 L4.5,2 L9.5,2 L13,5.5 L13,10.5 L13,10.5 Z M6,4 L8,4 L8,9 L6,9 L6,4 L6,4 Z M6,10 L8,10 L8,12 L6,12 L6,10 L6,10 Z"/></g></g></svg>