<svg xmlns="http://www.w3.org/2000/svg" xmlns:xlink="http://www.w3.org/1999/xlink" width="14" height="16" version="1.1" viewBox="0 0 14 16"><title>terminal</title><desc>Created with Sketch.</desc><g id="Octicons" fill="none" fill-rule="evenodd" stroke="none" stroke-width="1"><g id="terminal" fill="#000"><path id="Shape" d="M7,10 L11,10 L11,11 L7,11 L7,10 L7,10 Z M4,11 L7,8 L4,5 L3.25,5.75 L5.5,8 L3.25,10.25 L4,11 L4,11 Z M14,3 L14,13 C14,13.55 13.55,14 13,14 L1,14 C0.45,14 0,13.55 0,13 L0,3 C0,2.45 0.45,2 1,2 L13,2 C13.55,2 14,2.45 14,3 L14,3 Z M13,3 L1,3 L1,13 L13,13 L13,3 L13,3 Z"/></g></g></svg>