<svg xmlns="http://www.w3.org/2000/svg" xmlns:xlink="http://www.w3.org/1999/xlink" width="12" height="16" version="1.1" viewBox="0 0 12 16"><title>three-bars</title><desc>Created with Sketch.</desc><g id="Octicons" fill="none" fill-rule="evenodd" stroke="none" stroke-width="1"><g id="three-bars" fill="#000"><path id="Shape" d="M11.41,9 L0.59,9 C0,9 0,8.59 0,8 C0,7.41 0,7 0.59,7 L11.4,7 C11.99,7 11.99,7.41 11.99,8 C11.99,8.59 11.99,9 11.4,9 L11.41,9 Z M11.41,5 L0.59,5 C0,5 0,4.59 0,4 C0,3.41 0,3 0.59,3 L11.4,3 C11.99,3 11.99,3.41 11.99,4 C11.99,4.59 11.99,5 11.4,5 L11.41,5 Z M0.59,11 L11.4,11 C11.99,11 11.99,11.41 11.99,12 C11.99,12.59 11.99,13 11.4,13 L0.59,13 C0,13 0,12.59 0,12 C0,11.41 0,11 0.59,11 L0.59,11 Z"/></g></g></svg>